%TF.GenerationSoftware,KiCad,Pcbnew,(6.0.0-0)*%
%TF.CreationDate,2022-01-25T22:05:01-05:00*%
%TF.ProjectId,Autodrone_V2,4175746f-6472-46f6-9e65-5f56322e6b69,rev?*%
%TF.SameCoordinates,Original*%
%TF.FileFunction,Soldermask,Top*%
%TF.FilePolarity,Negative*%
%FSLAX46Y46*%
G04 Gerber Fmt 4.6, Leading zero omitted, Abs format (unit mm)*
G04 Created by KiCad (PCBNEW (6.0.0-0)) date 2022-01-25 22:05:01*
%MOMM*%
%LPD*%
G01*
G04 APERTURE LIST*
G04 Aperture macros list*
%AMRoundRect*
0 Rectangle with rounded corners*
0 $1 Rounding radius*
0 $2 $3 $4 $5 $6 $7 $8 $9 X,Y pos of 4 corners*
0 Add a 4 corners polygon primitive as box body*
4,1,4,$2,$3,$4,$5,$6,$7,$8,$9,$2,$3,0*
0 Add four circle primitives for the rounded corners*
1,1,$1+$1,$2,$3*
1,1,$1+$1,$4,$5*
1,1,$1+$1,$6,$7*
1,1,$1+$1,$8,$9*
0 Add four rect primitives between the rounded corners*
20,1,$1+$1,$2,$3,$4,$5,0*
20,1,$1+$1,$4,$5,$6,$7,0*
20,1,$1+$1,$6,$7,$8,$9,0*
20,1,$1+$1,$8,$9,$2,$3,0*%
G04 Aperture macros list end*
%ADD10RoundRect,0.140000X-0.170000X0.140000X-0.170000X-0.140000X0.170000X-0.140000X0.170000X0.140000X0*%
%ADD11R,1.100000X1.100000*%
%ADD12O,1.200000X2.000000*%
%ADD13RoundRect,0.150000X0.150000X-0.587500X0.150000X0.587500X-0.150000X0.587500X-0.150000X-0.587500X0*%
%ADD14RoundRect,0.135000X0.185000X-0.135000X0.185000X0.135000X-0.185000X0.135000X-0.185000X-0.135000X0*%
%ADD15RoundRect,0.135000X0.135000X0.185000X-0.135000X0.185000X-0.135000X-0.185000X0.135000X-0.185000X0*%
%ADD16R,0.900000X1.700000*%
%ADD17RoundRect,0.140000X0.140000X0.170000X-0.140000X0.170000X-0.140000X-0.170000X0.140000X-0.170000X0*%
%ADD18RoundRect,0.135000X-0.185000X0.135000X-0.185000X-0.135000X0.185000X-0.135000X0.185000X0.135000X0*%
%ADD19R,0.400000X1.650000*%
%ADD20R,2.000000X1.500000*%
%ADD21R,1.825000X0.700000*%
%ADD22O,1.100000X1.500000*%
%ADD23R,1.350000X2.000000*%
%ADD24O,1.350000X1.700000*%
%ADD25R,1.430000X2.500000*%
%ADD26RoundRect,0.140000X0.170000X-0.140000X0.170000X0.140000X-0.170000X0.140000X-0.170000X-0.140000X0*%
%ADD27RoundRect,0.150000X0.625000X-0.150000X0.625000X0.150000X-0.625000X0.150000X-0.625000X-0.150000X0*%
%ADD28RoundRect,0.250000X0.650000X-0.350000X0.650000X0.350000X-0.650000X0.350000X-0.650000X-0.350000X0*%
%ADD29R,1.100000X1.300000*%
%ADD30C,6.000000*%
%ADD31R,0.350000X0.500000*%
%ADD32RoundRect,0.218750X0.026517X-0.335876X0.335876X-0.026517X-0.026517X0.335876X-0.335876X0.026517X0*%
%ADD33C,1.500000*%
%ADD34RoundRect,0.250000X0.000000X0.954594X-0.954594X0.000000X0.000000X-0.954594X0.954594X0.000000X0*%
%ADD35C,1.850000*%
%ADD36O,2.000000X1.200000*%
%ADD37RoundRect,0.218750X-0.335876X-0.026517X-0.026517X-0.335876X0.335876X0.026517X0.026517X0.335876X0*%
%ADD38RoundRect,0.250000X-0.954594X0.000000X0.000000X-0.954594X0.954594X0.000000X0.000000X0.954594X0*%
%ADD39RoundRect,0.075000X0.350000X0.075000X-0.350000X0.075000X-0.350000X-0.075000X0.350000X-0.075000X0*%
%ADD40RoundRect,0.075000X-0.075000X0.350000X-0.075000X-0.350000X0.075000X-0.350000X0.075000X0.350000X0*%
%ADD41RoundRect,0.150000X0.512500X0.150000X-0.512500X0.150000X-0.512500X-0.150000X0.512500X-0.150000X0*%
%ADD42R,0.355600X1.358900*%
%ADD43R,6.908800X3.098800*%
%ADD44RoundRect,0.218750X0.256250X-0.218750X0.256250X0.218750X-0.256250X0.218750X-0.256250X-0.218750X0*%
%ADD45C,1.000000*%
%ADD46R,1.070100X1.899920*%
G04 APERTURE END LIST*
D10*
%TO.C,C38*%
X102490000Y-86700000D03*
X102490000Y-87660000D03*
%TD*%
%TO.C,C39*%
X97250000Y-84960000D03*
X97250000Y-85920000D03*
%TD*%
D11*
%TO.C,D14*%
X100510000Y-83390000D03*
X97710000Y-83390000D03*
%TD*%
D12*
%TO.C,J8*%
X100750000Y-109700000D03*
X102750000Y-109700000D03*
X104750000Y-109700000D03*
X106750000Y-109700000D03*
%TD*%
%TO.C,J13*%
X89990000Y-77500000D03*
X87990000Y-77500000D03*
X85990000Y-77500000D03*
%TD*%
%TO.C,J16*%
X89994999Y-73500000D03*
X87994999Y-73500000D03*
X85994999Y-73500000D03*
%TD*%
%TO.C,J17*%
X85710000Y-109700000D03*
X87710000Y-109700000D03*
%TD*%
%TO.C,J2*%
X91150000Y-109700000D03*
X93150000Y-109700000D03*
X95150000Y-109700000D03*
X97150000Y-109700000D03*
%TD*%
D13*
%TO.C,Q1*%
X82580000Y-81837500D03*
X84480000Y-81837500D03*
X83530000Y-79962500D03*
%TD*%
D14*
%TO.C,R9*%
X80540000Y-81850000D03*
X80540000Y-80830000D03*
%TD*%
D15*
%TO.C,R5*%
X93420000Y-79180000D03*
X92400000Y-79180000D03*
%TD*%
D16*
%TO.C,SW1*%
X90020000Y-81300000D03*
X93420000Y-81300000D03*
%TD*%
D12*
%TO.C,J11*%
X85710000Y-105700000D03*
X87710000Y-105700000D03*
%TD*%
D17*
%TO.C,C1*%
X97090000Y-101810000D03*
X96130000Y-101810000D03*
%TD*%
%TO.C,C2*%
X98950000Y-101810000D03*
X97990000Y-101810000D03*
%TD*%
D14*
%TO.C,R2*%
X96770000Y-98070000D03*
X96770000Y-97050000D03*
%TD*%
D18*
%TO.C,R12*%
X95770000Y-80510000D03*
X95770000Y-81530000D03*
%TD*%
%TO.C,R13*%
X94590000Y-80510000D03*
X94590000Y-81530000D03*
%TD*%
D19*
%TO.C,J5*%
X96970000Y-77100000D03*
X96320000Y-77100000D03*
X95670000Y-77100000D03*
X95020000Y-77100000D03*
X94370000Y-77100000D03*
D20*
X92770000Y-77220000D03*
D21*
X92670000Y-75900000D03*
D22*
X98090000Y-77220000D03*
D23*
X92920000Y-75150000D03*
D20*
X98520000Y-77200000D03*
D23*
X98400000Y-75150000D03*
D21*
X98620000Y-75900000D03*
D24*
X98400000Y-74220000D03*
D25*
X96630000Y-73950000D03*
D24*
X92940000Y-74220000D03*
D22*
X93250000Y-77220000D03*
D25*
X94710000Y-73950000D03*
%TD*%
D26*
%TO.C,C40*%
X97250000Y-88030000D03*
X97250000Y-87070000D03*
%TD*%
D27*
%TO.C,J6*%
X116800000Y-95100000D03*
D28*
X120675000Y-96400000D03*
X120675000Y-86800000D03*
D27*
X116800000Y-94100000D03*
X116800000Y-93100000D03*
X116800000Y-92100000D03*
X116800000Y-91100000D03*
X116800000Y-90100000D03*
X116800000Y-89100000D03*
X116800000Y-88100000D03*
%TD*%
D10*
%TO.C,C17*%
X105680000Y-81720000D03*
X105680000Y-82680000D03*
%TD*%
%TO.C,C18*%
X106870000Y-81720000D03*
X106870000Y-82680000D03*
%TD*%
%TO.C,C16*%
X109050000Y-81720000D03*
X109050000Y-82680000D03*
%TD*%
D26*
%TO.C,C19*%
X104080000Y-90900000D03*
X104080000Y-89940000D03*
%TD*%
%TO.C,C20*%
X107960000Y-82680000D03*
X107960000Y-81720000D03*
%TD*%
%TO.C,C21*%
X111220000Y-82680000D03*
X111220000Y-81720000D03*
%TD*%
%TO.C,C22*%
X105020000Y-92760000D03*
X105020000Y-91800000D03*
%TD*%
%TO.C,C23*%
X109360000Y-94620000D03*
X109360000Y-93660000D03*
%TD*%
D18*
%TO.C,R22*%
X112310000Y-81690000D03*
X112310000Y-82710000D03*
%TD*%
%TO.C,R23*%
X113400000Y-81690000D03*
X113400000Y-82710000D03*
%TD*%
D15*
%TO.C,R24*%
X113445000Y-91320000D03*
X112425000Y-91320000D03*
%TD*%
D14*
%TO.C,R25*%
X110140000Y-82710000D03*
X110140000Y-81690000D03*
%TD*%
D18*
%TO.C,R27*%
X109360000Y-91770000D03*
X109360000Y-92790000D03*
%TD*%
D29*
%TO.C,Y2*%
X106365000Y-92300000D03*
X106365000Y-94400000D03*
X108015000Y-94400000D03*
X108015000Y-92300000D03*
%TD*%
D30*
%TO.C,H3*%
X111850000Y-76350000D03*
%TD*%
%TO.C,H4*%
X81350000Y-106850000D03*
%TD*%
%TO.C,H1*%
X81350000Y-76350000D03*
%TD*%
D12*
%TO.C,J9*%
X91150000Y-105700000D03*
X93150000Y-105700000D03*
X95150000Y-105700000D03*
X97150000Y-105700000D03*
%TD*%
%TO.C,J10*%
X107170000Y-73500000D03*
X105170000Y-73500000D03*
X103170000Y-73500000D03*
X101170000Y-73500000D03*
%TD*%
%TO.C,J4*%
X107170000Y-77500000D03*
X105170000Y-77500000D03*
X103170000Y-77500000D03*
%TD*%
D31*
%TO.C,U1*%
X97125000Y-99240000D03*
X97775000Y-99240000D03*
X98425000Y-99240000D03*
X99075000Y-99240000D03*
X99075000Y-100840000D03*
X98425000Y-100840000D03*
X97775000Y-100840000D03*
X97125000Y-100840000D03*
%TD*%
D30*
%TO.C,H2*%
X111850000Y-106850000D03*
%TD*%
D12*
%TO.C,J3*%
X100750000Y-105700000D03*
X102750000Y-105700000D03*
X104750000Y-105700000D03*
X106750000Y-105700000D03*
%TD*%
D32*
%TO.C,D4*%
X74436915Y-106797076D03*
X75550609Y-105683382D03*
%TD*%
%TO.C,D8*%
X72358021Y-104718182D03*
X73471715Y-103604488D03*
%TD*%
%TO.C,D10*%
X71318574Y-103678735D03*
X72432268Y-102565041D03*
%TD*%
%TO.C,D2*%
X75476362Y-107836523D03*
X76590056Y-106722829D03*
%TD*%
D14*
%TO.C,R1*%
X97960000Y-98070000D03*
X97960000Y-97050000D03*
%TD*%
D33*
%TO.C,J7*%
X123330000Y-97550000D03*
X123330000Y-95850000D03*
X123330000Y-94150000D03*
X123330000Y-92450000D03*
X123330000Y-90750000D03*
X123330000Y-89050000D03*
X123330000Y-87350000D03*
X123330000Y-85650000D03*
%TD*%
D14*
%TO.C,R26*%
X104490000Y-82710000D03*
X104490000Y-81690000D03*
%TD*%
D34*
%TO.C,J15*%
X121084924Y-106220000D03*
D35*
X118115076Y-109189848D03*
%TD*%
D36*
%TO.C,J14*%
X123080000Y-83150000D03*
X123080000Y-81150000D03*
X123080000Y-79150000D03*
%TD*%
%TO.C,J18*%
X123080000Y-104050000D03*
X123080000Y-102050000D03*
X123080000Y-100050000D03*
%TD*%
D37*
%TO.C,D1*%
X75686169Y-73889150D03*
X76799863Y-75002844D03*
%TD*%
%TO.C,D3*%
X74653793Y-74921526D03*
X75767487Y-76035220D03*
%TD*%
%TO.C,D5*%
X73621417Y-75953902D03*
X74735111Y-77067596D03*
%TD*%
%TO.C,D7*%
X72589041Y-76986278D03*
X73702735Y-78099972D03*
%TD*%
D38*
%TO.C,J12*%
X118115076Y-74015076D03*
D35*
X121084924Y-76984924D03*
%TD*%
D39*
%TO.C,U3*%
X102150000Y-93850000D03*
X102150000Y-93350000D03*
X102150000Y-92850000D03*
X102150000Y-92350000D03*
X102150000Y-91850000D03*
X102150000Y-91350000D03*
D40*
X101450000Y-90650000D03*
X100950000Y-90650000D03*
X100450000Y-90650000D03*
X99950000Y-90650000D03*
X99450000Y-90650000D03*
X98950000Y-90650000D03*
D39*
X98250000Y-91350000D03*
X98250000Y-91850000D03*
X98250000Y-92350000D03*
X98250000Y-92850000D03*
X98250000Y-93350000D03*
X98250000Y-93850000D03*
D40*
X98950000Y-94550000D03*
X99450000Y-94550000D03*
X99950000Y-94550000D03*
X100450000Y-94550000D03*
X100950000Y-94550000D03*
X101450000Y-94550000D03*
%TD*%
D41*
%TO.C,U9*%
X101147500Y-87230000D03*
X101147500Y-86280000D03*
X101147500Y-85330000D03*
X98872500Y-85330000D03*
X98872500Y-87230000D03*
%TD*%
D26*
%TO.C,C3*%
X97080000Y-90430000D03*
X97080000Y-89470000D03*
%TD*%
D32*
%TO.C,D6*%
X73397468Y-105757629D03*
X74511162Y-104643935D03*
%TD*%
D17*
%TO.C,C4*%
X98960000Y-95970000D03*
X98000000Y-95970000D03*
%TD*%
D42*
%TO.C,U5*%
X104985000Y-89917350D03*
X105635001Y-89917350D03*
X106285000Y-89917350D03*
X106935001Y-89917350D03*
X107584999Y-89917350D03*
X108235001Y-89917350D03*
X108884999Y-89917350D03*
X109534998Y-89917350D03*
X110184999Y-89917350D03*
X110834998Y-89917350D03*
X111484999Y-89917350D03*
X112134998Y-89917350D03*
X112784999Y-89917350D03*
X113434998Y-89917350D03*
X113435000Y-84062650D03*
X112784999Y-84062650D03*
X112135000Y-84062650D03*
X111484999Y-84062650D03*
X110835001Y-84062650D03*
X110184999Y-84062650D03*
X109535001Y-84062650D03*
X108884999Y-84062650D03*
X108235001Y-84062650D03*
X107584999Y-84062650D03*
X106935001Y-84062650D03*
X106285000Y-84062650D03*
X105635001Y-84062650D03*
X104985000Y-84062650D03*
D43*
X109210000Y-86990000D03*
%TD*%
D44*
%TO.C,FB3*%
X102750000Y-85307500D03*
X102750000Y-83732500D03*
%TD*%
D45*
%TO.C,J20*%
X108890000Y-100200000D03*
X110090000Y-100200000D03*
X111290000Y-100200000D03*
X112490000Y-100200000D03*
%TD*%
%TO.C,J1*%
X100720000Y-101220000D03*
X100720000Y-102420000D03*
%TD*%
%TO.C,J19*%
X100150000Y-97090000D03*
X101350000Y-97090000D03*
X102550000Y-97090000D03*
X103750000Y-97090000D03*
%TD*%
D17*
%TO.C,C5*%
X99950000Y-89230000D03*
X98990000Y-89230000D03*
%TD*%
D45*
%TO.C,J21*%
X113510000Y-92720000D03*
X113510000Y-93920000D03*
X113510000Y-95120000D03*
X113510000Y-96320000D03*
%TD*%
D46*
%TO.C,U2*%
X74826000Y-98920030D03*
X76096000Y-98920030D03*
X77366000Y-98920030D03*
X78636000Y-98920030D03*
X79906000Y-98920030D03*
X81176000Y-98920030D03*
X82446000Y-98920030D03*
X83716000Y-98920030D03*
X84986000Y-98920030D03*
X86256000Y-98920030D03*
X87526000Y-98920030D03*
X88796000Y-98920030D03*
X90066000Y-98920030D03*
X91336000Y-98920030D03*
X92606000Y-98920030D03*
X93876000Y-98920030D03*
X93876000Y-84279970D03*
X92606000Y-84279970D03*
X91336000Y-84279970D03*
X90066000Y-84279970D03*
X88796000Y-84279970D03*
X87526000Y-84279970D03*
X86256000Y-84279970D03*
X84986000Y-84279970D03*
X83716000Y-84279970D03*
X82446000Y-84279970D03*
X81176000Y-84279970D03*
X79906000Y-84279970D03*
X78636000Y-84279970D03*
X77366000Y-84279970D03*
X76096000Y-84279970D03*
X74826000Y-84279970D03*
%TD*%
D37*
%TO.C,D9*%
X71552753Y-78017153D03*
X72666447Y-79130847D03*
%TD*%
M02*
