%TF.GenerationSoftware,KiCad,Pcbnew,(6.0.0-0)*%
%TF.CreationDate,2022-01-25T22:05:00-05:00*%
%TF.ProjectId,Autodrone_V2,4175746f-6472-46f6-9e65-5f56322e6b69,rev?*%
%TF.SameCoordinates,Original*%
%TF.FileFunction,Legend,Top*%
%TF.FilePolarity,Positive*%
%FSLAX46Y46*%
G04 Gerber Fmt 4.6, Leading zero omitted, Abs format (unit mm)*
G04 Created by KiCad (PCBNEW (6.0.0-0)) date 2022-01-25 22:05:00*
%MOMM*%
%LPD*%
G01*
G04 APERTURE LIST*
%ADD10C,0.120000*%
%ADD11C,0.150000*%
%ADD12C,0.207500*%
%ADD13C,0.200000*%
%ADD14C,0.187500*%
%ADD15C,0.250000*%
%ADD16C,0.142500*%
%ADD17C,0.100000*%
%ADD18C,0.152400*%
%ADD19C,0.010000*%
G04 APERTURE END LIST*
D10*
X123220387Y-77112203D02*
X122290000Y-78050000D01*
X123220387Y-106087797D02*
X122270000Y-105150000D01*
X120550000Y-104740000D02*
X118949462Y-106342355D01*
X121580000Y-98950000D02*
X121580000Y-104440000D01*
X124580000Y-78050000D02*
X122290000Y-78050000D01*
X118949462Y-76857645D02*
X120630000Y-78540000D01*
X124580000Y-105150000D02*
X122290000Y-105150000D01*
X121580000Y-84250000D02*
X121580000Y-78760000D01*
D11*
X99787142Y-103782857D02*
X100244285Y-103782857D01*
X100015714Y-104011428D02*
X100015714Y-103554285D01*
X100815714Y-103411428D02*
X100530000Y-103411428D01*
X100501428Y-103697142D01*
X100530000Y-103668571D01*
X100587142Y-103640000D01*
X100730000Y-103640000D01*
X100787142Y-103668571D01*
X100815714Y-103697142D01*
X100844285Y-103754285D01*
X100844285Y-103897142D01*
X100815714Y-103954285D01*
X100787142Y-103982857D01*
X100730000Y-104011428D01*
X100587142Y-104011428D01*
X100530000Y-103982857D01*
X100501428Y-103954285D01*
X101015714Y-103411428D02*
X101215714Y-104011428D01*
X101415714Y-103411428D01*
X102387142Y-103440000D02*
X102330000Y-103411428D01*
X102244285Y-103411428D01*
X102158571Y-103440000D01*
X102101428Y-103497142D01*
X102072857Y-103554285D01*
X102044285Y-103668571D01*
X102044285Y-103754285D01*
X102072857Y-103868571D01*
X102101428Y-103925714D01*
X102158571Y-103982857D01*
X102244285Y-104011428D01*
X102301428Y-104011428D01*
X102387142Y-103982857D01*
X102415714Y-103954285D01*
X102415714Y-103754285D01*
X102301428Y-103754285D01*
X102672857Y-104011428D02*
X102672857Y-103411428D01*
X103015714Y-104011428D01*
X103015714Y-103411428D01*
X103301428Y-104011428D02*
X103301428Y-103411428D01*
X103444285Y-103411428D01*
X103530000Y-103440000D01*
X103587142Y-103497142D01*
X103615714Y-103554285D01*
X103644285Y-103668571D01*
X103644285Y-103754285D01*
X103615714Y-103868571D01*
X103587142Y-103925714D01*
X103530000Y-103982857D01*
X103444285Y-104011428D01*
X103301428Y-104011428D01*
X104701428Y-104011428D02*
X104501428Y-103725714D01*
X104358571Y-104011428D02*
X104358571Y-103411428D01*
X104587142Y-103411428D01*
X104644285Y-103440000D01*
X104672857Y-103468571D01*
X104701428Y-103525714D01*
X104701428Y-103611428D01*
X104672857Y-103668571D01*
X104644285Y-103697142D01*
X104587142Y-103725714D01*
X104358571Y-103725714D01*
X104901428Y-103411428D02*
X105301428Y-104011428D01*
X105301428Y-103411428D02*
X104901428Y-104011428D01*
X105815714Y-103411428D02*
X105530000Y-103411428D01*
X105501428Y-103697142D01*
X105530000Y-103668571D01*
X105587142Y-103640000D01*
X105730000Y-103640000D01*
X105787142Y-103668571D01*
X105815714Y-103697142D01*
X105844285Y-103754285D01*
X105844285Y-103897142D01*
X105815714Y-103954285D01*
X105787142Y-103982857D01*
X105730000Y-104011428D01*
X105587142Y-104011428D01*
X105530000Y-103982857D01*
X105501428Y-103954285D01*
X106472857Y-103411428D02*
X106815714Y-103411428D01*
X106644285Y-104011428D02*
X106644285Y-103411428D01*
X106958571Y-103411428D02*
X107358571Y-104011428D01*
X107358571Y-103411428D02*
X106958571Y-104011428D01*
X107872857Y-103411428D02*
X107587142Y-103411428D01*
X107558571Y-103697142D01*
X107587142Y-103668571D01*
X107644285Y-103640000D01*
X107787142Y-103640000D01*
X107844285Y-103668571D01*
X107872857Y-103697142D01*
X107901428Y-103754285D01*
X107901428Y-103897142D01*
X107872857Y-103954285D01*
X107844285Y-103982857D01*
X107787142Y-104011428D01*
X107644285Y-104011428D01*
X107587142Y-103982857D01*
X107558571Y-103954285D01*
X99787142Y-107782857D02*
X100244285Y-107782857D01*
X100015714Y-108011428D02*
X100015714Y-107554285D01*
X100815714Y-107411428D02*
X100530000Y-107411428D01*
X100501428Y-107697142D01*
X100530000Y-107668571D01*
X100587142Y-107640000D01*
X100730000Y-107640000D01*
X100787142Y-107668571D01*
X100815714Y-107697142D01*
X100844285Y-107754285D01*
X100844285Y-107897142D01*
X100815714Y-107954285D01*
X100787142Y-107982857D01*
X100730000Y-108011428D01*
X100587142Y-108011428D01*
X100530000Y-107982857D01*
X100501428Y-107954285D01*
X101015714Y-107411428D02*
X101215714Y-108011428D01*
X101415714Y-107411428D01*
X102387142Y-107440000D02*
X102330000Y-107411428D01*
X102244285Y-107411428D01*
X102158571Y-107440000D01*
X102101428Y-107497142D01*
X102072857Y-107554285D01*
X102044285Y-107668571D01*
X102044285Y-107754285D01*
X102072857Y-107868571D01*
X102101428Y-107925714D01*
X102158571Y-107982857D01*
X102244285Y-108011428D01*
X102301428Y-108011428D01*
X102387142Y-107982857D01*
X102415714Y-107954285D01*
X102415714Y-107754285D01*
X102301428Y-107754285D01*
X102672857Y-108011428D02*
X102672857Y-107411428D01*
X103015714Y-108011428D01*
X103015714Y-107411428D01*
X103301428Y-108011428D02*
X103301428Y-107411428D01*
X103444285Y-107411428D01*
X103530000Y-107440000D01*
X103587142Y-107497142D01*
X103615714Y-107554285D01*
X103644285Y-107668571D01*
X103644285Y-107754285D01*
X103615714Y-107868571D01*
X103587142Y-107925714D01*
X103530000Y-107982857D01*
X103444285Y-108011428D01*
X103301428Y-108011428D01*
X104701428Y-108011428D02*
X104501428Y-107725714D01*
X104358571Y-108011428D02*
X104358571Y-107411428D01*
X104587142Y-107411428D01*
X104644285Y-107440000D01*
X104672857Y-107468571D01*
X104701428Y-107525714D01*
X104701428Y-107611428D01*
X104672857Y-107668571D01*
X104644285Y-107697142D01*
X104587142Y-107725714D01*
X104358571Y-107725714D01*
X104901428Y-107411428D02*
X105301428Y-108011428D01*
X105301428Y-107411428D02*
X104901428Y-108011428D01*
X105787142Y-107411428D02*
X105672857Y-107411428D01*
X105615714Y-107440000D01*
X105587142Y-107468571D01*
X105530000Y-107554285D01*
X105501428Y-107668571D01*
X105501428Y-107897142D01*
X105530000Y-107954285D01*
X105558571Y-107982857D01*
X105615714Y-108011428D01*
X105730000Y-108011428D01*
X105787142Y-107982857D01*
X105815714Y-107954285D01*
X105844285Y-107897142D01*
X105844285Y-107754285D01*
X105815714Y-107697142D01*
X105787142Y-107668571D01*
X105730000Y-107640000D01*
X105615714Y-107640000D01*
X105558571Y-107668571D01*
X105530000Y-107697142D01*
X105501428Y-107754285D01*
X106472857Y-107411428D02*
X106815714Y-107411428D01*
X106644285Y-108011428D02*
X106644285Y-107411428D01*
X106958571Y-107411428D02*
X107358571Y-108011428D01*
X107358571Y-107411428D02*
X106958571Y-108011428D01*
X107844285Y-107411428D02*
X107730000Y-107411428D01*
X107672857Y-107440000D01*
X107644285Y-107468571D01*
X107587142Y-107554285D01*
X107558571Y-107668571D01*
X107558571Y-107897142D01*
X107587142Y-107954285D01*
X107615714Y-107982857D01*
X107672857Y-108011428D01*
X107787142Y-108011428D01*
X107844285Y-107982857D01*
X107872857Y-107954285D01*
X107901428Y-107897142D01*
X107901428Y-107754285D01*
X107872857Y-107697142D01*
X107844285Y-107668571D01*
X107787142Y-107640000D01*
X107672857Y-107640000D01*
X107615714Y-107668571D01*
X107587142Y-107697142D01*
X107558571Y-107754285D01*
X90480000Y-107611428D02*
X90480000Y-108011428D01*
X90337142Y-107382857D02*
X90194285Y-107811428D01*
X90565714Y-107811428D01*
X90708571Y-107411428D02*
X90908571Y-108011428D01*
X91108571Y-107411428D01*
X91594285Y-107411428D02*
X91308571Y-107411428D01*
X91280000Y-107697142D01*
X91308571Y-107668571D01*
X91365714Y-107640000D01*
X91508571Y-107640000D01*
X91565714Y-107668571D01*
X91594285Y-107697142D01*
X91622857Y-107754285D01*
X91622857Y-107897142D01*
X91594285Y-107954285D01*
X91565714Y-107982857D01*
X91508571Y-108011428D01*
X91365714Y-108011428D01*
X91308571Y-107982857D01*
X91280000Y-107954285D01*
X92651428Y-107440000D02*
X92594285Y-107411428D01*
X92508571Y-107411428D01*
X92422857Y-107440000D01*
X92365714Y-107497142D01*
X92337142Y-107554285D01*
X92308571Y-107668571D01*
X92308571Y-107754285D01*
X92337142Y-107868571D01*
X92365714Y-107925714D01*
X92422857Y-107982857D01*
X92508571Y-108011428D01*
X92565714Y-108011428D01*
X92651428Y-107982857D01*
X92680000Y-107954285D01*
X92680000Y-107754285D01*
X92565714Y-107754285D01*
X92937142Y-108011428D02*
X92937142Y-107411428D01*
X93280000Y-108011428D01*
X93280000Y-107411428D01*
X93565714Y-108011428D02*
X93565714Y-107411428D01*
X93708571Y-107411428D01*
X93794285Y-107440000D01*
X93851428Y-107497142D01*
X93880000Y-107554285D01*
X93908571Y-107668571D01*
X93908571Y-107754285D01*
X93880000Y-107868571D01*
X93851428Y-107925714D01*
X93794285Y-107982857D01*
X93708571Y-108011428D01*
X93565714Y-108011428D01*
X94965714Y-108011428D02*
X94765714Y-107725714D01*
X94622857Y-108011428D02*
X94622857Y-107411428D01*
X94851428Y-107411428D01*
X94908571Y-107440000D01*
X94937142Y-107468571D01*
X94965714Y-107525714D01*
X94965714Y-107611428D01*
X94937142Y-107668571D01*
X94908571Y-107697142D01*
X94851428Y-107725714D01*
X94622857Y-107725714D01*
X95165714Y-107411428D02*
X95565714Y-108011428D01*
X95565714Y-107411428D02*
X95165714Y-108011428D01*
X96108571Y-108011428D02*
X95765714Y-108011428D01*
X95937142Y-108011428D02*
X95937142Y-107411428D01*
X95880000Y-107497142D01*
X95822857Y-107554285D01*
X95765714Y-107582857D01*
X96737142Y-107411428D02*
X97080000Y-107411428D01*
X96908571Y-108011428D02*
X96908571Y-107411428D01*
X97222857Y-107411428D02*
X97622857Y-108011428D01*
X97622857Y-107411428D02*
X97222857Y-108011428D01*
X98165714Y-108011428D02*
X97822857Y-108011428D01*
X97994285Y-108011428D02*
X97994285Y-107411428D01*
X97937142Y-107497142D01*
X97880000Y-107554285D01*
X97822857Y-107582857D01*
X84904285Y-107982857D02*
X84990000Y-108011428D01*
X85132857Y-108011428D01*
X85190000Y-107982857D01*
X85218571Y-107954285D01*
X85247142Y-107897142D01*
X85247142Y-107840000D01*
X85218571Y-107782857D01*
X85190000Y-107754285D01*
X85132857Y-107725714D01*
X85018571Y-107697142D01*
X84961428Y-107668571D01*
X84932857Y-107640000D01*
X84904285Y-107582857D01*
X84904285Y-107525714D01*
X84932857Y-107468571D01*
X84961428Y-107440000D01*
X85018571Y-107411428D01*
X85161428Y-107411428D01*
X85247142Y-107440000D01*
X85504285Y-108011428D02*
X85504285Y-107411428D01*
X85647142Y-107411428D01*
X85732857Y-107440000D01*
X85790000Y-107497142D01*
X85818571Y-107554285D01*
X85847142Y-107668571D01*
X85847142Y-107754285D01*
X85818571Y-107868571D01*
X85790000Y-107925714D01*
X85732857Y-107982857D01*
X85647142Y-108011428D01*
X85504285Y-108011428D01*
X86075714Y-107840000D02*
X86361428Y-107840000D01*
X86018571Y-108011428D02*
X86218571Y-107411428D01*
X86418571Y-108011428D01*
X87047142Y-107982857D02*
X87132857Y-108011428D01*
X87275714Y-108011428D01*
X87332857Y-107982857D01*
X87361428Y-107954285D01*
X87390000Y-107897142D01*
X87390000Y-107840000D01*
X87361428Y-107782857D01*
X87332857Y-107754285D01*
X87275714Y-107725714D01*
X87161428Y-107697142D01*
X87104285Y-107668571D01*
X87075714Y-107640000D01*
X87047142Y-107582857D01*
X87047142Y-107525714D01*
X87075714Y-107468571D01*
X87104285Y-107440000D01*
X87161428Y-107411428D01*
X87304285Y-107411428D01*
X87390000Y-107440000D01*
X87990000Y-107954285D02*
X87961428Y-107982857D01*
X87875714Y-108011428D01*
X87818571Y-108011428D01*
X87732857Y-107982857D01*
X87675714Y-107925714D01*
X87647142Y-107868571D01*
X87618571Y-107754285D01*
X87618571Y-107668571D01*
X87647142Y-107554285D01*
X87675714Y-107497142D01*
X87732857Y-107440000D01*
X87818571Y-107411428D01*
X87875714Y-107411428D01*
X87961428Y-107440000D01*
X87990000Y-107468571D01*
X88532857Y-108011428D02*
X88247142Y-108011428D01*
X88247142Y-107411428D01*
X84804285Y-103411428D02*
X85175714Y-103411428D01*
X84975714Y-103640000D01*
X85061428Y-103640000D01*
X85118571Y-103668571D01*
X85147142Y-103697142D01*
X85175714Y-103754285D01*
X85175714Y-103897142D01*
X85147142Y-103954285D01*
X85118571Y-103982857D01*
X85061428Y-104011428D01*
X84890000Y-104011428D01*
X84832857Y-103982857D01*
X84804285Y-103954285D01*
X85347142Y-103411428D02*
X85547142Y-104011428D01*
X85747142Y-103411428D01*
X85890000Y-103411428D02*
X86261428Y-103411428D01*
X86061428Y-103640000D01*
X86147142Y-103640000D01*
X86204285Y-103668571D01*
X86232857Y-103697142D01*
X86261428Y-103754285D01*
X86261428Y-103897142D01*
X86232857Y-103954285D01*
X86204285Y-103982857D01*
X86147142Y-104011428D01*
X85975714Y-104011428D01*
X85918571Y-103982857D01*
X85890000Y-103954285D01*
X87290000Y-103440000D02*
X87232857Y-103411428D01*
X87147142Y-103411428D01*
X87061428Y-103440000D01*
X87004285Y-103497142D01*
X86975714Y-103554285D01*
X86947142Y-103668571D01*
X86947142Y-103754285D01*
X86975714Y-103868571D01*
X87004285Y-103925714D01*
X87061428Y-103982857D01*
X87147142Y-104011428D01*
X87204285Y-104011428D01*
X87290000Y-103982857D01*
X87318571Y-103954285D01*
X87318571Y-103754285D01*
X87204285Y-103754285D01*
X87575714Y-104011428D02*
X87575714Y-103411428D01*
X87918571Y-104011428D01*
X87918571Y-103411428D01*
X88204285Y-104011428D02*
X88204285Y-103411428D01*
X88347142Y-103411428D01*
X88432857Y-103440000D01*
X88490000Y-103497142D01*
X88518571Y-103554285D01*
X88547142Y-103668571D01*
X88547142Y-103754285D01*
X88518571Y-103868571D01*
X88490000Y-103925714D01*
X88432857Y-103982857D01*
X88347142Y-104011428D01*
X88204285Y-104011428D01*
X90957142Y-75417142D02*
X90500000Y-75417142D01*
X90728571Y-75188571D02*
X90728571Y-75645714D01*
X89928571Y-75788571D02*
X90214285Y-75788571D01*
X90242857Y-75502857D01*
X90214285Y-75531428D01*
X90157142Y-75560000D01*
X90014285Y-75560000D01*
X89957142Y-75531428D01*
X89928571Y-75502857D01*
X89900000Y-75445714D01*
X89900000Y-75302857D01*
X89928571Y-75245714D01*
X89957142Y-75217142D01*
X90014285Y-75188571D01*
X90157142Y-75188571D01*
X90214285Y-75217142D01*
X90242857Y-75245714D01*
X89728571Y-75788571D02*
X89528571Y-75188571D01*
X89328571Y-75788571D01*
X88357142Y-75760000D02*
X88414285Y-75788571D01*
X88500000Y-75788571D01*
X88585714Y-75760000D01*
X88642857Y-75702857D01*
X88671428Y-75645714D01*
X88700000Y-75531428D01*
X88700000Y-75445714D01*
X88671428Y-75331428D01*
X88642857Y-75274285D01*
X88585714Y-75217142D01*
X88500000Y-75188571D01*
X88442857Y-75188571D01*
X88357142Y-75217142D01*
X88328571Y-75245714D01*
X88328571Y-75445714D01*
X88442857Y-75445714D01*
X88071428Y-75188571D02*
X88071428Y-75788571D01*
X87728571Y-75188571D01*
X87728571Y-75788571D01*
X87442857Y-75188571D02*
X87442857Y-75788571D01*
X87300000Y-75788571D01*
X87214285Y-75760000D01*
X87157142Y-75702857D01*
X87128571Y-75645714D01*
X87100000Y-75531428D01*
X87100000Y-75445714D01*
X87128571Y-75331428D01*
X87157142Y-75274285D01*
X87214285Y-75217142D01*
X87300000Y-75188571D01*
X87442857Y-75188571D01*
X86100000Y-75188571D02*
X86385714Y-75188571D01*
X86385714Y-75788571D01*
X85900000Y-75502857D02*
X85700000Y-75502857D01*
X85614285Y-75188571D02*
X85900000Y-75188571D01*
X85900000Y-75788571D01*
X85614285Y-75788571D01*
X85357142Y-75188571D02*
X85357142Y-75788571D01*
X85214285Y-75788571D01*
X85128571Y-75760000D01*
X85071428Y-75702857D01*
X85042857Y-75645714D01*
X85014285Y-75531428D01*
X85014285Y-75445714D01*
X85042857Y-75331428D01*
X85071428Y-75274285D01*
X85128571Y-75217142D01*
X85214285Y-75188571D01*
X85357142Y-75188571D01*
X91032857Y-79417142D02*
X90575714Y-79417142D01*
X90804285Y-79188571D02*
X90804285Y-79645714D01*
X90004285Y-79788571D02*
X90290000Y-79788571D01*
X90318571Y-79502857D01*
X90290000Y-79531428D01*
X90232857Y-79560000D01*
X90090000Y-79560000D01*
X90032857Y-79531428D01*
X90004285Y-79502857D01*
X89975714Y-79445714D01*
X89975714Y-79302857D01*
X90004285Y-79245714D01*
X90032857Y-79217142D01*
X90090000Y-79188571D01*
X90232857Y-79188571D01*
X90290000Y-79217142D01*
X90318571Y-79245714D01*
X89804285Y-79788571D02*
X89604285Y-79188571D01*
X89404285Y-79788571D01*
X88432857Y-79760000D02*
X88490000Y-79788571D01*
X88575714Y-79788571D01*
X88661428Y-79760000D01*
X88718571Y-79702857D01*
X88747142Y-79645714D01*
X88775714Y-79531428D01*
X88775714Y-79445714D01*
X88747142Y-79331428D01*
X88718571Y-79274285D01*
X88661428Y-79217142D01*
X88575714Y-79188571D01*
X88518571Y-79188571D01*
X88432857Y-79217142D01*
X88404285Y-79245714D01*
X88404285Y-79445714D01*
X88518571Y-79445714D01*
X88147142Y-79188571D02*
X88147142Y-79788571D01*
X87804285Y-79188571D01*
X87804285Y-79788571D01*
X87518571Y-79188571D02*
X87518571Y-79788571D01*
X87375714Y-79788571D01*
X87290000Y-79760000D01*
X87232857Y-79702857D01*
X87204285Y-79645714D01*
X87175714Y-79531428D01*
X87175714Y-79445714D01*
X87204285Y-79331428D01*
X87232857Y-79274285D01*
X87290000Y-79217142D01*
X87375714Y-79188571D01*
X87518571Y-79188571D01*
X86261428Y-79502857D02*
X86175714Y-79474285D01*
X86147142Y-79445714D01*
X86118571Y-79388571D01*
X86118571Y-79302857D01*
X86147142Y-79245714D01*
X86175714Y-79217142D01*
X86232857Y-79188571D01*
X86461428Y-79188571D01*
X86461428Y-79788571D01*
X86261428Y-79788571D01*
X86204285Y-79760000D01*
X86175714Y-79731428D01*
X86147142Y-79674285D01*
X86147142Y-79617142D01*
X86175714Y-79560000D01*
X86204285Y-79531428D01*
X86261428Y-79502857D01*
X86461428Y-79502857D01*
X85861428Y-79788571D02*
X85861428Y-79302857D01*
X85832857Y-79245714D01*
X85804285Y-79217142D01*
X85747142Y-79188571D01*
X85632857Y-79188571D01*
X85575714Y-79217142D01*
X85547142Y-79245714D01*
X85518571Y-79302857D01*
X85518571Y-79788571D01*
X85290000Y-79788571D02*
X84890000Y-79788571D01*
X85290000Y-79188571D01*
X84890000Y-79188571D01*
X107971428Y-75417142D02*
X107514285Y-75417142D01*
X107742857Y-75188571D02*
X107742857Y-75645714D01*
X107200000Y-75188571D02*
X107085714Y-75188571D01*
X107028571Y-75217142D01*
X107000000Y-75245714D01*
X106942857Y-75331428D01*
X106914285Y-75445714D01*
X106914285Y-75674285D01*
X106942857Y-75731428D01*
X106971428Y-75760000D01*
X107028571Y-75788571D01*
X107142857Y-75788571D01*
X107200000Y-75760000D01*
X107228571Y-75731428D01*
X107257142Y-75674285D01*
X107257142Y-75531428D01*
X107228571Y-75474285D01*
X107200000Y-75445714D01*
X107142857Y-75417142D01*
X107028571Y-75417142D01*
X106971428Y-75445714D01*
X106942857Y-75474285D01*
X106914285Y-75531428D01*
X106742857Y-75788571D02*
X106542857Y-75188571D01*
X106342857Y-75788571D01*
X105371428Y-75760000D02*
X105428571Y-75788571D01*
X105514285Y-75788571D01*
X105600000Y-75760000D01*
X105657142Y-75702857D01*
X105685714Y-75645714D01*
X105714285Y-75531428D01*
X105714285Y-75445714D01*
X105685714Y-75331428D01*
X105657142Y-75274285D01*
X105600000Y-75217142D01*
X105514285Y-75188571D01*
X105457142Y-75188571D01*
X105371428Y-75217142D01*
X105342857Y-75245714D01*
X105342857Y-75445714D01*
X105457142Y-75445714D01*
X105085714Y-75188571D02*
X105085714Y-75788571D01*
X104742857Y-75188571D01*
X104742857Y-75788571D01*
X104457142Y-75188571D02*
X104457142Y-75788571D01*
X104314285Y-75788571D01*
X104228571Y-75760000D01*
X104171428Y-75702857D01*
X104142857Y-75645714D01*
X104114285Y-75531428D01*
X104114285Y-75445714D01*
X104142857Y-75331428D01*
X104171428Y-75274285D01*
X104228571Y-75217142D01*
X104314285Y-75188571D01*
X104457142Y-75188571D01*
X103485714Y-75788571D02*
X103142857Y-75788571D01*
X103314285Y-75188571D02*
X103314285Y-75788571D01*
X103000000Y-75788571D02*
X102600000Y-75188571D01*
X102600000Y-75788571D02*
X103000000Y-75188571D01*
X102114285Y-75788571D02*
X102228571Y-75788571D01*
X102285714Y-75760000D01*
X102314285Y-75731428D01*
X102371428Y-75645714D01*
X102400000Y-75531428D01*
X102400000Y-75302857D01*
X102371428Y-75245714D01*
X102342857Y-75217142D01*
X102285714Y-75188571D01*
X102171428Y-75188571D01*
X102114285Y-75217142D01*
X102085714Y-75245714D01*
X102057142Y-75302857D01*
X102057142Y-75445714D01*
X102085714Y-75502857D01*
X102114285Y-75531428D01*
X102171428Y-75560000D01*
X102285714Y-75560000D01*
X102342857Y-75531428D01*
X102371428Y-75502857D01*
X102400000Y-75445714D01*
X101428571Y-75788571D02*
X101228571Y-75188571D01*
X101028571Y-75788571D01*
X100828571Y-75188571D02*
X100828571Y-75788571D01*
X100542857Y-75188571D02*
X100542857Y-75788571D01*
X100400000Y-75788571D01*
X100314285Y-75760000D01*
X100257142Y-75702857D01*
X100228571Y-75645714D01*
X100200000Y-75531428D01*
X100200000Y-75445714D01*
X100228571Y-75331428D01*
X100257142Y-75274285D01*
X100314285Y-75217142D01*
X100400000Y-75188571D01*
X100542857Y-75188571D01*
X108212857Y-79417142D02*
X107755714Y-79417142D01*
X107984285Y-79188571D02*
X107984285Y-79645714D01*
X107441428Y-79188571D02*
X107327142Y-79188571D01*
X107270000Y-79217142D01*
X107241428Y-79245714D01*
X107184285Y-79331428D01*
X107155714Y-79445714D01*
X107155714Y-79674285D01*
X107184285Y-79731428D01*
X107212857Y-79760000D01*
X107270000Y-79788571D01*
X107384285Y-79788571D01*
X107441428Y-79760000D01*
X107470000Y-79731428D01*
X107498571Y-79674285D01*
X107498571Y-79531428D01*
X107470000Y-79474285D01*
X107441428Y-79445714D01*
X107384285Y-79417142D01*
X107270000Y-79417142D01*
X107212857Y-79445714D01*
X107184285Y-79474285D01*
X107155714Y-79531428D01*
X106984285Y-79788571D02*
X106784285Y-79188571D01*
X106584285Y-79788571D01*
X105612857Y-79760000D02*
X105670000Y-79788571D01*
X105755714Y-79788571D01*
X105841428Y-79760000D01*
X105898571Y-79702857D01*
X105927142Y-79645714D01*
X105955714Y-79531428D01*
X105955714Y-79445714D01*
X105927142Y-79331428D01*
X105898571Y-79274285D01*
X105841428Y-79217142D01*
X105755714Y-79188571D01*
X105698571Y-79188571D01*
X105612857Y-79217142D01*
X105584285Y-79245714D01*
X105584285Y-79445714D01*
X105698571Y-79445714D01*
X105327142Y-79188571D02*
X105327142Y-79788571D01*
X104984285Y-79188571D01*
X104984285Y-79788571D01*
X104698571Y-79188571D02*
X104698571Y-79788571D01*
X104555714Y-79788571D01*
X104470000Y-79760000D01*
X104412857Y-79702857D01*
X104384285Y-79645714D01*
X104355714Y-79531428D01*
X104355714Y-79445714D01*
X104384285Y-79331428D01*
X104412857Y-79274285D01*
X104470000Y-79217142D01*
X104555714Y-79188571D01*
X104698571Y-79188571D01*
X103298571Y-79245714D02*
X103327142Y-79217142D01*
X103412857Y-79188571D01*
X103470000Y-79188571D01*
X103555714Y-79217142D01*
X103612857Y-79274285D01*
X103641428Y-79331428D01*
X103670000Y-79445714D01*
X103670000Y-79531428D01*
X103641428Y-79645714D01*
X103612857Y-79702857D01*
X103555714Y-79760000D01*
X103470000Y-79788571D01*
X103412857Y-79788571D01*
X103327142Y-79760000D01*
X103298571Y-79731428D01*
X103070000Y-79360000D02*
X102784285Y-79360000D01*
X103127142Y-79188571D02*
X102927142Y-79788571D01*
X102727142Y-79188571D01*
X102527142Y-79188571D02*
X102527142Y-79788571D01*
X102327142Y-79360000D01*
X102127142Y-79788571D01*
X102127142Y-79188571D01*
D12*
X72946257Y-101781320D02*
X73728789Y-102172586D01*
X73337523Y-101390054D01*
X74399530Y-101390054D02*
X74399530Y-101445949D01*
X74343635Y-101557740D01*
X74287740Y-101613635D01*
X74175949Y-101669530D01*
X74064159Y-101669530D01*
X73980317Y-101641582D01*
X73840579Y-101557740D01*
X73756736Y-101473897D01*
X73672894Y-101334159D01*
X73644946Y-101250317D01*
X73644946Y-101138526D01*
X73700841Y-101026736D01*
X73756736Y-100970841D01*
X73868526Y-100914946D01*
X73924422Y-100914946D01*
X74986429Y-100803156D02*
X74986429Y-100859051D01*
X74930533Y-100970841D01*
X74874638Y-101026736D01*
X74762848Y-101082631D01*
X74651058Y-101082631D01*
X74567215Y-101054684D01*
X74427477Y-100970841D01*
X74343635Y-100886998D01*
X74259792Y-100747261D01*
X74231845Y-100663418D01*
X74231845Y-100551628D01*
X74287740Y-100439838D01*
X74343635Y-100383942D01*
X74455425Y-100328047D01*
X74511320Y-100328047D01*
X74282430Y-103061598D02*
X74729591Y-102614437D01*
X74729591Y-103061598D02*
X74282430Y-102614437D01*
X75260594Y-102530594D02*
X75372384Y-102418804D01*
X75400332Y-102334961D01*
X75400332Y-102279066D01*
X75372384Y-102139329D01*
X75288542Y-101999591D01*
X75064961Y-101776010D01*
X74981119Y-101748063D01*
X74925224Y-101748063D01*
X74841381Y-101776010D01*
X74729591Y-101887801D01*
X74701643Y-101971643D01*
X74701643Y-102027538D01*
X74729591Y-102111381D01*
X74869329Y-102251119D01*
X74953171Y-102279066D01*
X75009066Y-102279066D01*
X75092909Y-102251119D01*
X75204699Y-102139329D01*
X75232647Y-102055486D01*
X75232647Y-101999591D01*
X75204699Y-101915748D01*
X75120856Y-101496535D02*
X75903388Y-101887801D01*
X75512122Y-101105269D01*
X75227337Y-104006505D02*
X75674498Y-103559344D01*
X75674498Y-104006505D02*
X75227337Y-103559344D01*
X75870131Y-102637075D02*
X75590655Y-102916550D01*
X75842183Y-103223973D01*
X75842183Y-103168078D01*
X75870131Y-103084236D01*
X76009868Y-102944498D01*
X76093711Y-102916550D01*
X76149606Y-102916550D01*
X76233449Y-102944498D01*
X76373187Y-103084236D01*
X76401134Y-103168078D01*
X76401134Y-103223973D01*
X76373187Y-103307816D01*
X76233449Y-103447554D01*
X76149606Y-103475501D01*
X76093711Y-103475501D01*
X76065763Y-102441442D02*
X76848295Y-102832708D01*
X76457029Y-102050176D01*
X75836873Y-104560146D02*
X76200191Y-104196828D01*
X76228139Y-104616041D01*
X76311982Y-104532198D01*
X76395824Y-104504251D01*
X76451719Y-104504251D01*
X76535562Y-104532198D01*
X76675300Y-104671936D01*
X76703247Y-104755779D01*
X76703247Y-104811674D01*
X76675300Y-104895517D01*
X76507615Y-105063202D01*
X76423772Y-105091150D01*
X76367877Y-105091150D01*
X76367877Y-104029143D02*
X77150408Y-104420408D01*
X76759143Y-103637877D01*
X76898880Y-103498139D02*
X77262198Y-103134821D01*
X77290146Y-103554034D01*
X77373989Y-103470191D01*
X77457831Y-103442244D01*
X77513726Y-103442244D01*
X77597569Y-103470191D01*
X77737307Y-103609929D01*
X77765254Y-103693772D01*
X77765254Y-103749667D01*
X77737307Y-103833510D01*
X77569622Y-104001195D01*
X77485779Y-104029143D01*
X77429884Y-104029143D01*
X76837675Y-105505053D02*
X76753833Y-105533001D01*
X76669990Y-105616843D01*
X76614095Y-105728633D01*
X76614095Y-105840424D01*
X76642042Y-105924266D01*
X76725885Y-106064004D01*
X76809728Y-106147847D01*
X76949466Y-106231689D01*
X77033308Y-106259637D01*
X77145098Y-106259637D01*
X77256889Y-106203742D01*
X77312784Y-106147847D01*
X77368679Y-106036057D01*
X77368679Y-105980161D01*
X77173046Y-105784529D01*
X77061256Y-105896319D01*
X77508417Y-105393263D02*
X77787892Y-105672738D01*
X77005361Y-105281473D02*
X77508417Y-105393263D01*
X77396626Y-104890207D01*
X78514529Y-104946102D02*
X78039420Y-104862259D01*
X78179158Y-105281473D02*
X77592259Y-104694574D01*
X77815840Y-104470994D01*
X77899682Y-104443046D01*
X77955577Y-104443046D01*
X78039420Y-104470994D01*
X78123263Y-104554836D01*
X78151210Y-104638679D01*
X78151210Y-104694574D01*
X78123263Y-104778417D01*
X77899682Y-105001997D01*
X78290948Y-103995885D02*
X78402738Y-103884095D01*
X78486581Y-103856147D01*
X78598371Y-103856147D01*
X78738109Y-103939990D01*
X78933742Y-104135623D01*
X79017585Y-104275361D01*
X79017585Y-104387151D01*
X78989637Y-104470994D01*
X78877847Y-104582784D01*
X78794004Y-104610731D01*
X78682214Y-104610731D01*
X78542476Y-104526889D01*
X78346843Y-104331256D01*
X78263001Y-104191518D01*
X78263001Y-104079728D01*
X78290948Y-103995885D01*
D11*
X120791428Y-83992857D02*
X120791428Y-83621428D01*
X121020000Y-83821428D01*
X121020000Y-83735714D01*
X121048571Y-83678571D01*
X121077142Y-83650000D01*
X121134285Y-83621428D01*
X121277142Y-83621428D01*
X121334285Y-83650000D01*
X121362857Y-83678571D01*
X121391428Y-83735714D01*
X121391428Y-83907142D01*
X121362857Y-83964285D01*
X121334285Y-83992857D01*
X120791428Y-83450000D02*
X121391428Y-83250000D01*
X120791428Y-83050000D01*
X120791428Y-82907142D02*
X120791428Y-82535714D01*
X121020000Y-82735714D01*
X121020000Y-82650000D01*
X121048571Y-82592857D01*
X121077142Y-82564285D01*
X121134285Y-82535714D01*
X121277142Y-82535714D01*
X121334285Y-82564285D01*
X121362857Y-82592857D01*
X121391428Y-82650000D01*
X121391428Y-82821428D01*
X121362857Y-82878571D01*
X121334285Y-82907142D01*
X120820000Y-81507142D02*
X120791428Y-81564285D01*
X120791428Y-81650000D01*
X120820000Y-81735714D01*
X120877142Y-81792857D01*
X120934285Y-81821428D01*
X121048571Y-81850000D01*
X121134285Y-81850000D01*
X121248571Y-81821428D01*
X121305714Y-81792857D01*
X121362857Y-81735714D01*
X121391428Y-81650000D01*
X121391428Y-81592857D01*
X121362857Y-81507142D01*
X121334285Y-81478571D01*
X121134285Y-81478571D01*
X121134285Y-81592857D01*
X121391428Y-81221428D02*
X120791428Y-81221428D01*
X121391428Y-80878571D01*
X120791428Y-80878571D01*
X121391428Y-80592857D02*
X120791428Y-80592857D01*
X120791428Y-80450000D01*
X120820000Y-80364285D01*
X120877142Y-80307142D01*
X120934285Y-80278571D01*
X121048571Y-80250000D01*
X121134285Y-80250000D01*
X121248571Y-80278571D01*
X121305714Y-80307142D01*
X121362857Y-80364285D01*
X121391428Y-80450000D01*
X121391428Y-80592857D01*
X121391428Y-79250000D02*
X121391428Y-79535714D01*
X120791428Y-79535714D01*
X121391428Y-79050000D02*
X120791428Y-79050000D01*
X121391428Y-78764285D02*
X120791428Y-78764285D01*
X121220000Y-78564285D01*
X120791428Y-78364285D01*
X121391428Y-78364285D01*
X120791428Y-104892857D02*
X120791428Y-104521428D01*
X121020000Y-104721428D01*
X121020000Y-104635714D01*
X121048571Y-104578571D01*
X121077142Y-104550000D01*
X121134285Y-104521428D01*
X121277142Y-104521428D01*
X121334285Y-104550000D01*
X121362857Y-104578571D01*
X121391428Y-104635714D01*
X121391428Y-104807142D01*
X121362857Y-104864285D01*
X121334285Y-104892857D01*
X120791428Y-104350000D02*
X121391428Y-104150000D01*
X120791428Y-103950000D01*
X120791428Y-103807142D02*
X120791428Y-103435714D01*
X121020000Y-103635714D01*
X121020000Y-103550000D01*
X121048571Y-103492857D01*
X121077142Y-103464285D01*
X121134285Y-103435714D01*
X121277142Y-103435714D01*
X121334285Y-103464285D01*
X121362857Y-103492857D01*
X121391428Y-103550000D01*
X121391428Y-103721428D01*
X121362857Y-103778571D01*
X121334285Y-103807142D01*
X120820000Y-102407142D02*
X120791428Y-102464285D01*
X120791428Y-102550000D01*
X120820000Y-102635714D01*
X120877142Y-102692857D01*
X120934285Y-102721428D01*
X121048571Y-102750000D01*
X121134285Y-102750000D01*
X121248571Y-102721428D01*
X121305714Y-102692857D01*
X121362857Y-102635714D01*
X121391428Y-102550000D01*
X121391428Y-102492857D01*
X121362857Y-102407142D01*
X121334285Y-102378571D01*
X121134285Y-102378571D01*
X121134285Y-102492857D01*
X121391428Y-102121428D02*
X120791428Y-102121428D01*
X121391428Y-101778571D01*
X120791428Y-101778571D01*
X121391428Y-101492857D02*
X120791428Y-101492857D01*
X120791428Y-101350000D01*
X120820000Y-101264285D01*
X120877142Y-101207142D01*
X120934285Y-101178571D01*
X121048571Y-101150000D01*
X121134285Y-101150000D01*
X121248571Y-101178571D01*
X121305714Y-101207142D01*
X121362857Y-101264285D01*
X121391428Y-101350000D01*
X121391428Y-101492857D01*
X121391428Y-100150000D02*
X121391428Y-100435714D01*
X120791428Y-100435714D01*
X121391428Y-99950000D02*
X120791428Y-99950000D01*
X121391428Y-99664285D02*
X120791428Y-99664285D01*
X121220000Y-99464285D01*
X120791428Y-99264285D01*
X121391428Y-99264285D01*
D12*
X73417251Y-80151073D02*
X73696726Y-80430548D01*
X74004149Y-80179020D01*
X73948254Y-80179020D01*
X73864412Y-80151073D01*
X73724674Y-80011335D01*
X73696726Y-79927492D01*
X73696726Y-79871597D01*
X73724674Y-79787754D01*
X73864412Y-79648017D01*
X73948254Y-79620069D01*
X74004149Y-79620069D01*
X74087992Y-79648017D01*
X74227730Y-79787754D01*
X74255677Y-79871597D01*
X74255677Y-79927492D01*
X74585738Y-79038480D02*
X74977004Y-78647215D01*
X74501896Y-79401798D02*
X75060847Y-79122323D01*
X74697529Y-78759005D01*
X75642436Y-78596629D02*
X75279117Y-78233311D01*
X75698331Y-78205363D01*
X75614488Y-78121521D01*
X75586540Y-78037678D01*
X75586540Y-77981783D01*
X75614488Y-77897940D01*
X75754226Y-77758203D01*
X75838068Y-77730255D01*
X75893963Y-77730255D01*
X75977806Y-77758203D01*
X76145491Y-77925888D01*
X76173439Y-78009731D01*
X76173439Y-78065626D01*
X76615290Y-77567880D02*
X76559395Y-77567880D01*
X76475552Y-77539932D01*
X76335815Y-77400194D01*
X76307867Y-77316352D01*
X76307867Y-77260456D01*
X76335815Y-77176614D01*
X76391710Y-77120719D01*
X76503500Y-77064824D01*
X77174241Y-77064824D01*
X76810923Y-76701505D01*
X77755830Y-75756598D02*
X78091201Y-76091969D01*
X77923515Y-75924284D02*
X77336617Y-76511182D01*
X77476354Y-76483235D01*
X77588145Y-76483235D01*
X77671987Y-76511182D01*
D13*
X119164928Y-79463871D02*
X118599242Y-80029556D01*
X118814741Y-79436934D01*
X118222119Y-79652433D01*
X118787804Y-79086747D01*
X117844995Y-79275309D02*
X117737245Y-79167560D01*
X117710308Y-79086747D01*
X117710308Y-78978998D01*
X117791120Y-78844311D01*
X117979682Y-78655749D01*
X118114369Y-78574937D01*
X118222119Y-78574937D01*
X118302931Y-78601874D01*
X118410680Y-78709624D01*
X118437618Y-78790436D01*
X118437618Y-78898186D01*
X118356806Y-79032873D01*
X118168244Y-79221434D01*
X118033557Y-79302247D01*
X117925807Y-79302247D01*
X117844995Y-79275309D01*
X117440934Y-78871248D02*
X117117685Y-78547999D01*
X117844995Y-78143938D02*
X117279310Y-78709624D01*
X116821374Y-78251688D02*
X116713624Y-78143938D01*
X116686687Y-78063126D01*
X116686687Y-77955377D01*
X116767499Y-77820689D01*
X116956061Y-77632128D01*
X117090748Y-77551315D01*
X117198497Y-77551315D01*
X117279310Y-77578253D01*
X117387059Y-77686002D01*
X117413997Y-77766815D01*
X117413997Y-77874564D01*
X117333184Y-78009251D01*
X117144623Y-78197813D01*
X117009935Y-78278625D01*
X116902186Y-78278625D01*
X116821374Y-78251688D01*
X116578937Y-76877880D02*
X116498125Y-77335816D01*
X116902186Y-77201129D02*
X116336500Y-77766815D01*
X116121001Y-77551315D01*
X116094064Y-77470503D01*
X116094064Y-77416628D01*
X116121001Y-77335816D01*
X116201813Y-77255004D01*
X116282626Y-77228067D01*
X116336500Y-77228067D01*
X116417313Y-77255004D01*
X116632812Y-77470503D01*
X115609191Y-75908134D02*
X115932439Y-76231383D01*
X115770815Y-76069758D02*
X115205130Y-76635444D01*
X115339817Y-76608506D01*
X115447566Y-76608506D01*
X115528378Y-76635444D01*
X119725495Y-78202931D02*
X119994869Y-78472305D01*
X119429184Y-79037990D01*
X116950943Y-75428378D02*
X116385258Y-75994064D01*
X116654632Y-75724690D02*
X116331383Y-75401441D01*
X116627694Y-75105130D02*
X116062009Y-75670815D01*
X115636128Y-107264928D02*
X115070443Y-106699242D01*
X115663065Y-106914741D01*
X115447566Y-106322119D01*
X116013252Y-106887804D01*
X115824690Y-105944995D02*
X115932439Y-105837245D01*
X116013252Y-105810308D01*
X116121001Y-105810308D01*
X116255688Y-105891120D01*
X116444250Y-106079682D01*
X116525062Y-106214369D01*
X116525062Y-106322119D01*
X116498125Y-106402931D01*
X116390375Y-106510680D01*
X116309563Y-106537618D01*
X116201813Y-106537618D01*
X116067126Y-106456806D01*
X115878565Y-106268244D01*
X115797752Y-106133557D01*
X115797752Y-106025807D01*
X115824690Y-105944995D01*
X116228751Y-105540934D02*
X116552000Y-105217685D01*
X116956061Y-105944995D02*
X116390375Y-105379310D01*
X116848311Y-104921374D02*
X116956061Y-104813624D01*
X117036873Y-104786687D01*
X117144623Y-104786687D01*
X117279310Y-104867499D01*
X117467871Y-105056061D01*
X117548684Y-105190748D01*
X117548684Y-105298497D01*
X117521746Y-105379310D01*
X117413997Y-105487059D01*
X117333184Y-105513997D01*
X117225435Y-105513997D01*
X117090748Y-105433184D01*
X116902186Y-105244623D01*
X116821374Y-105109935D01*
X116821374Y-105002186D01*
X116848311Y-104921374D01*
X118222119Y-104678937D02*
X117764183Y-104598125D01*
X117898870Y-105002186D02*
X117333184Y-104436500D01*
X117548684Y-104221001D01*
X117629496Y-104194064D01*
X117683371Y-104194064D01*
X117764183Y-104221001D01*
X117844995Y-104301813D01*
X117871932Y-104382626D01*
X117871932Y-104436500D01*
X117844995Y-104517313D01*
X117629496Y-104732812D01*
X118356806Y-103520629D02*
X118356806Y-103466754D01*
X118383743Y-103385942D01*
X118518430Y-103251255D01*
X118599242Y-103224317D01*
X118653117Y-103224317D01*
X118733929Y-103251255D01*
X118787804Y-103305130D01*
X118841679Y-103412879D01*
X118841679Y-104059377D01*
X119191865Y-103709191D01*
X116897068Y-107825495D02*
X116627694Y-108094869D01*
X116062009Y-107529184D01*
X119671621Y-105050943D02*
X119105935Y-104485258D01*
X119375309Y-104754632D02*
X119698558Y-104431383D01*
X119994869Y-104727694D02*
X119429184Y-104162009D01*
D14*
X100406607Y-98539017D02*
X100442321Y-98574732D01*
X100478035Y-98681875D01*
X100478035Y-98753303D01*
X100442321Y-98860446D01*
X100370892Y-98931875D01*
X100299464Y-98967589D01*
X100156607Y-99003303D01*
X100049464Y-99003303D01*
X99906607Y-98967589D01*
X99835178Y-98931875D01*
X99763750Y-98860446D01*
X99728035Y-98753303D01*
X99728035Y-98681875D01*
X99763750Y-98574732D01*
X99799464Y-98539017D01*
X100442321Y-98253303D02*
X100478035Y-98146160D01*
X100478035Y-97967589D01*
X100442321Y-97896160D01*
X100406607Y-97860446D01*
X100335178Y-97824732D01*
X100263750Y-97824732D01*
X100192321Y-97860446D01*
X100156607Y-97896160D01*
X100120892Y-97967589D01*
X100085178Y-98110446D01*
X100049464Y-98181875D01*
X100013750Y-98217589D01*
X99942321Y-98253303D01*
X99870892Y-98253303D01*
X99799464Y-98217589D01*
X99763750Y-98181875D01*
X99728035Y-98110446D01*
X99728035Y-97931875D01*
X99763750Y-97824732D01*
X101649821Y-99753303D02*
X101685535Y-99646160D01*
X101685535Y-99467589D01*
X101649821Y-99396160D01*
X101614107Y-99360446D01*
X101542678Y-99324732D01*
X101471250Y-99324732D01*
X101399821Y-99360446D01*
X101364107Y-99396160D01*
X101328392Y-99467589D01*
X101292678Y-99610446D01*
X101256964Y-99681875D01*
X101221250Y-99717589D01*
X101149821Y-99753303D01*
X101078392Y-99753303D01*
X101006964Y-99717589D01*
X100971250Y-99681875D01*
X100935535Y-99610446D01*
X100935535Y-99431875D01*
X100971250Y-99324732D01*
X101614107Y-98574732D02*
X101649821Y-98610446D01*
X101685535Y-98717589D01*
X101685535Y-98789017D01*
X101649821Y-98896160D01*
X101578392Y-98967589D01*
X101506964Y-99003303D01*
X101364107Y-99039017D01*
X101256964Y-99039017D01*
X101114107Y-99003303D01*
X101042678Y-98967589D01*
X100971250Y-98896160D01*
X100935535Y-98789017D01*
X100935535Y-98717589D01*
X100971250Y-98610446D01*
X101006964Y-98574732D01*
X101685535Y-98253303D02*
X100935535Y-98253303D01*
X101685535Y-97824732D02*
X101256964Y-98146160D01*
X100935535Y-97824732D02*
X101364107Y-98253303D01*
X102893035Y-100217589D02*
X102143035Y-100217589D01*
X102678750Y-99967589D01*
X102143035Y-99717589D01*
X102893035Y-99717589D01*
X102143035Y-99217589D02*
X102143035Y-99074732D01*
X102178750Y-99003303D01*
X102250178Y-98931875D01*
X102393035Y-98896160D01*
X102643035Y-98896160D01*
X102785892Y-98931875D01*
X102857321Y-99003303D01*
X102893035Y-99074732D01*
X102893035Y-99217589D01*
X102857321Y-99289017D01*
X102785892Y-99360446D01*
X102643035Y-99396160D01*
X102393035Y-99396160D01*
X102250178Y-99360446D01*
X102178750Y-99289017D01*
X102143035Y-99217589D01*
X102857321Y-98610446D02*
X102893035Y-98503303D01*
X102893035Y-98324732D01*
X102857321Y-98253303D01*
X102821607Y-98217589D01*
X102750178Y-98181875D01*
X102678750Y-98181875D01*
X102607321Y-98217589D01*
X102571607Y-98253303D01*
X102535892Y-98324732D01*
X102500178Y-98467589D01*
X102464464Y-98539017D01*
X102428750Y-98574732D01*
X102357321Y-98610446D01*
X102285892Y-98610446D01*
X102214464Y-98574732D01*
X102178750Y-98539017D01*
X102143035Y-98467589D01*
X102143035Y-98289017D01*
X102178750Y-98181875D01*
X102893035Y-97860446D02*
X102143035Y-97860446D01*
X104100535Y-100217589D02*
X103350535Y-100217589D01*
X103886250Y-99967589D01*
X103350535Y-99717589D01*
X104100535Y-99717589D01*
X104100535Y-99360446D02*
X103350535Y-99360446D01*
X104064821Y-99039017D02*
X104100535Y-98931875D01*
X104100535Y-98753303D01*
X104064821Y-98681875D01*
X104029107Y-98646160D01*
X103957678Y-98610446D01*
X103886250Y-98610446D01*
X103814821Y-98646160D01*
X103779107Y-98681875D01*
X103743392Y-98753303D01*
X103707678Y-98896160D01*
X103671964Y-98967589D01*
X103636250Y-99003303D01*
X103564821Y-99039017D01*
X103493392Y-99039017D01*
X103421964Y-99003303D01*
X103386250Y-98967589D01*
X103350535Y-98896160D01*
X103350535Y-98717589D01*
X103386250Y-98610446D01*
X103350535Y-98146160D02*
X103350535Y-98003303D01*
X103386250Y-97931875D01*
X103457678Y-97860446D01*
X103600535Y-97824732D01*
X103850535Y-97824732D01*
X103993392Y-97860446D01*
X104064821Y-97931875D01*
X104100535Y-98003303D01*
X104100535Y-98146160D01*
X104064821Y-98217589D01*
X103993392Y-98289017D01*
X103850535Y-98324732D01*
X103600535Y-98324732D01*
X103457678Y-98289017D01*
X103386250Y-98217589D01*
X103350535Y-98146160D01*
X110525267Y-93048035D02*
X110525267Y-92298035D01*
X110703839Y-92298035D01*
X110810982Y-92333750D01*
X110882410Y-92405178D01*
X110918125Y-92476607D01*
X110953839Y-92619464D01*
X110953839Y-92726607D01*
X110918125Y-92869464D01*
X110882410Y-92940892D01*
X110810982Y-93012321D01*
X110703839Y-93048035D01*
X110525267Y-93048035D01*
X111275267Y-93048035D02*
X111275267Y-92298035D01*
X112060982Y-93048035D02*
X111810982Y-92690892D01*
X111632410Y-93048035D02*
X111632410Y-92298035D01*
X111918125Y-92298035D01*
X111989553Y-92333750D01*
X112025267Y-92369464D01*
X112060982Y-92440892D01*
X112060982Y-92548035D01*
X112025267Y-92619464D01*
X111989553Y-92655178D01*
X111918125Y-92690892D01*
X111632410Y-92690892D01*
X112775267Y-93048035D02*
X112346696Y-93048035D01*
X112560982Y-93048035D02*
X112560982Y-92298035D01*
X112489553Y-92405178D01*
X112418125Y-92476607D01*
X112346696Y-92512321D01*
X110525267Y-94255535D02*
X110525267Y-93505535D01*
X110703839Y-93505535D01*
X110810982Y-93541250D01*
X110882410Y-93612678D01*
X110918125Y-93684107D01*
X110953839Y-93826964D01*
X110953839Y-93934107D01*
X110918125Y-94076964D01*
X110882410Y-94148392D01*
X110810982Y-94219821D01*
X110703839Y-94255535D01*
X110525267Y-94255535D01*
X111275267Y-94255535D02*
X111275267Y-93505535D01*
X112060982Y-94255535D02*
X111810982Y-93898392D01*
X111632410Y-94255535D02*
X111632410Y-93505535D01*
X111918125Y-93505535D01*
X111989553Y-93541250D01*
X112025267Y-93576964D01*
X112060982Y-93648392D01*
X112060982Y-93755535D01*
X112025267Y-93826964D01*
X111989553Y-93862678D01*
X111918125Y-93898392D01*
X111632410Y-93898392D01*
X112346696Y-93576964D02*
X112382410Y-93541250D01*
X112453839Y-93505535D01*
X112632410Y-93505535D01*
X112703839Y-93541250D01*
X112739553Y-93576964D01*
X112775267Y-93648392D01*
X112775267Y-93719821D01*
X112739553Y-93826964D01*
X112310982Y-94255535D01*
X112775267Y-94255535D01*
X109918125Y-95463035D02*
X109918125Y-94713035D01*
X110203839Y-94713035D01*
X110275267Y-94748750D01*
X110310982Y-94784464D01*
X110346696Y-94855892D01*
X110346696Y-94963035D01*
X110310982Y-95034464D01*
X110275267Y-95070178D01*
X110203839Y-95105892D01*
X109918125Y-95105892D01*
X110596696Y-94713035D02*
X110775267Y-95463035D01*
X110918125Y-94927321D01*
X111060982Y-95463035D01*
X111239553Y-94713035D01*
X111525267Y-95463035D02*
X111525267Y-94713035D01*
X111775267Y-95248750D01*
X112025267Y-94713035D01*
X112025267Y-95463035D01*
X112346696Y-94784464D02*
X112382410Y-94748750D01*
X112453839Y-94713035D01*
X112632410Y-94713035D01*
X112703839Y-94748750D01*
X112739553Y-94784464D01*
X112775267Y-94855892D01*
X112775267Y-94927321D01*
X112739553Y-95034464D01*
X112310982Y-95463035D01*
X112775267Y-95463035D01*
X109918125Y-96670535D02*
X109918125Y-95920535D01*
X110203839Y-95920535D01*
X110275267Y-95956250D01*
X110310982Y-95991964D01*
X110346696Y-96063392D01*
X110346696Y-96170535D01*
X110310982Y-96241964D01*
X110275267Y-96277678D01*
X110203839Y-96313392D01*
X109918125Y-96313392D01*
X110596696Y-95920535D02*
X110775267Y-96670535D01*
X110918125Y-96134821D01*
X111060982Y-96670535D01*
X111239553Y-95920535D01*
X111525267Y-96670535D02*
X111525267Y-95920535D01*
X111775267Y-96456250D01*
X112025267Y-95920535D01*
X112025267Y-96670535D01*
X112775267Y-96670535D02*
X112346696Y-96670535D01*
X112560982Y-96670535D02*
X112560982Y-95920535D01*
X112489553Y-96027678D01*
X112418125Y-96099107D01*
X112346696Y-96134821D01*
X101393839Y-101519821D02*
X101500982Y-101555535D01*
X101679553Y-101555535D01*
X101750982Y-101519821D01*
X101786696Y-101484107D01*
X101822410Y-101412678D01*
X101822410Y-101341250D01*
X101786696Y-101269821D01*
X101750982Y-101234107D01*
X101679553Y-101198392D01*
X101536696Y-101162678D01*
X101465267Y-101126964D01*
X101429553Y-101091250D01*
X101393839Y-101019821D01*
X101393839Y-100948392D01*
X101429553Y-100876964D01*
X101465267Y-100841250D01*
X101536696Y-100805535D01*
X101715267Y-100805535D01*
X101822410Y-100841250D01*
X102143839Y-101555535D02*
X102143839Y-100805535D01*
X102322410Y-100805535D01*
X102429553Y-100841250D01*
X102500982Y-100912678D01*
X102536696Y-100984107D01*
X102572410Y-101126964D01*
X102572410Y-101234107D01*
X102536696Y-101376964D01*
X102500982Y-101448392D01*
X102429553Y-101519821D01*
X102322410Y-101555535D01*
X102143839Y-101555535D01*
X102858125Y-101341250D02*
X103215267Y-101341250D01*
X102786696Y-101555535D02*
X103036696Y-100805535D01*
X103286696Y-101555535D01*
X101429553Y-102727321D02*
X101536696Y-102763035D01*
X101715267Y-102763035D01*
X101786696Y-102727321D01*
X101822410Y-102691607D01*
X101858125Y-102620178D01*
X101858125Y-102548750D01*
X101822410Y-102477321D01*
X101786696Y-102441607D01*
X101715267Y-102405892D01*
X101572410Y-102370178D01*
X101500982Y-102334464D01*
X101465267Y-102298750D01*
X101429553Y-102227321D01*
X101429553Y-102155892D01*
X101465267Y-102084464D01*
X101500982Y-102048750D01*
X101572410Y-102013035D01*
X101750982Y-102013035D01*
X101858125Y-102048750D01*
X102608125Y-102691607D02*
X102572410Y-102727321D01*
X102465267Y-102763035D01*
X102393839Y-102763035D01*
X102286696Y-102727321D01*
X102215267Y-102655892D01*
X102179553Y-102584464D01*
X102143839Y-102441607D01*
X102143839Y-102334464D01*
X102179553Y-102191607D01*
X102215267Y-102120178D01*
X102286696Y-102048750D01*
X102393839Y-102013035D01*
X102465267Y-102013035D01*
X102572410Y-102048750D01*
X102608125Y-102084464D01*
X103286696Y-102763035D02*
X102929553Y-102763035D01*
X102929553Y-102013035D01*
D15*
X100759523Y-95510000D02*
X100664285Y-95462380D01*
X100521428Y-95462380D01*
X100378571Y-95510000D01*
X100283333Y-95605238D01*
X100235714Y-95700476D01*
X100188095Y-95890952D01*
X100188095Y-96033809D01*
X100235714Y-96224285D01*
X100283333Y-96319523D01*
X100378571Y-96414761D01*
X100521428Y-96462380D01*
X100616666Y-96462380D01*
X100759523Y-96414761D01*
X100807142Y-96367142D01*
X100807142Y-96033809D01*
X100616666Y-96033809D01*
X101426190Y-95986190D02*
X101426190Y-96462380D01*
X101092857Y-95462380D02*
X101426190Y-95986190D01*
X101759523Y-95462380D01*
X102664285Y-96462380D02*
X102330952Y-95986190D01*
X102092857Y-96462380D02*
X102092857Y-95462380D01*
X102473809Y-95462380D01*
X102569047Y-95510000D01*
X102616666Y-95557619D01*
X102664285Y-95652857D01*
X102664285Y-95795714D01*
X102616666Y-95890952D01*
X102569047Y-95938571D01*
X102473809Y-95986190D01*
X102092857Y-95986190D01*
X103283333Y-95462380D02*
X103473809Y-95462380D01*
X103569047Y-95510000D01*
X103664285Y-95605238D01*
X103711904Y-95795714D01*
X103711904Y-96129047D01*
X103664285Y-96319523D01*
X103569047Y-96414761D01*
X103473809Y-96462380D01*
X103283333Y-96462380D01*
X103188095Y-96414761D01*
X103092857Y-96319523D01*
X103045238Y-96129047D01*
X103045238Y-95795714D01*
X103092857Y-95605238D01*
X103188095Y-95510000D01*
X103283333Y-95462380D01*
D11*
X90137142Y-103782857D02*
X90594285Y-103782857D01*
X90365714Y-104011428D02*
X90365714Y-103554285D01*
X91165714Y-103411428D02*
X90880000Y-103411428D01*
X90851428Y-103697142D01*
X90880000Y-103668571D01*
X90937142Y-103640000D01*
X91080000Y-103640000D01*
X91137142Y-103668571D01*
X91165714Y-103697142D01*
X91194285Y-103754285D01*
X91194285Y-103897142D01*
X91165714Y-103954285D01*
X91137142Y-103982857D01*
X91080000Y-104011428D01*
X90937142Y-104011428D01*
X90880000Y-103982857D01*
X90851428Y-103954285D01*
X91365714Y-103411428D02*
X91565714Y-104011428D01*
X91765714Y-103411428D01*
X92737142Y-103440000D02*
X92680000Y-103411428D01*
X92594285Y-103411428D01*
X92508571Y-103440000D01*
X92451428Y-103497142D01*
X92422857Y-103554285D01*
X92394285Y-103668571D01*
X92394285Y-103754285D01*
X92422857Y-103868571D01*
X92451428Y-103925714D01*
X92508571Y-103982857D01*
X92594285Y-104011428D01*
X92651428Y-104011428D01*
X92737142Y-103982857D01*
X92765714Y-103954285D01*
X92765714Y-103754285D01*
X92651428Y-103754285D01*
X93022857Y-104011428D02*
X93022857Y-103411428D01*
X93365714Y-104011428D01*
X93365714Y-103411428D01*
X93651428Y-104011428D02*
X93651428Y-103411428D01*
X93794285Y-103411428D01*
X93880000Y-103440000D01*
X93937142Y-103497142D01*
X93965714Y-103554285D01*
X93994285Y-103668571D01*
X93994285Y-103754285D01*
X93965714Y-103868571D01*
X93937142Y-103925714D01*
X93880000Y-103982857D01*
X93794285Y-104011428D01*
X93651428Y-104011428D01*
X95051428Y-104011428D02*
X94851428Y-103725714D01*
X94708571Y-104011428D02*
X94708571Y-103411428D01*
X94937142Y-103411428D01*
X94994285Y-103440000D01*
X95022857Y-103468571D01*
X95051428Y-103525714D01*
X95051428Y-103611428D01*
X95022857Y-103668571D01*
X94994285Y-103697142D01*
X94937142Y-103725714D01*
X94708571Y-103725714D01*
X95251428Y-103411428D02*
X95651428Y-104011428D01*
X95651428Y-103411428D02*
X95251428Y-104011428D01*
X95822857Y-103411428D02*
X96194285Y-103411428D01*
X95994285Y-103640000D01*
X96080000Y-103640000D01*
X96137142Y-103668571D01*
X96165714Y-103697142D01*
X96194285Y-103754285D01*
X96194285Y-103897142D01*
X96165714Y-103954285D01*
X96137142Y-103982857D01*
X96080000Y-104011428D01*
X95908571Y-104011428D01*
X95851428Y-103982857D01*
X95822857Y-103954285D01*
X96822857Y-103411428D02*
X97165714Y-103411428D01*
X96994285Y-104011428D02*
X96994285Y-103411428D01*
X97308571Y-103411428D02*
X97708571Y-104011428D01*
X97708571Y-103411428D02*
X97308571Y-104011428D01*
X97880000Y-103411428D02*
X98251428Y-103411428D01*
X98051428Y-103640000D01*
X98137142Y-103640000D01*
X98194285Y-103668571D01*
X98222857Y-103697142D01*
X98251428Y-103754285D01*
X98251428Y-103897142D01*
X98222857Y-103954285D01*
X98194285Y-103982857D01*
X98137142Y-104011428D01*
X97965714Y-104011428D01*
X97908571Y-103982857D01*
X97880000Y-103954285D01*
D15*
X109618571Y-98582380D02*
X109809047Y-98582380D01*
X109904285Y-98630000D01*
X109999523Y-98725238D01*
X110047142Y-98915714D01*
X110047142Y-99249047D01*
X109999523Y-99439523D01*
X109904285Y-99534761D01*
X109809047Y-99582380D01*
X109618571Y-99582380D01*
X109523333Y-99534761D01*
X109428095Y-99439523D01*
X109380476Y-99249047D01*
X109380476Y-98915714D01*
X109428095Y-98725238D01*
X109523333Y-98630000D01*
X109618571Y-98582380D01*
X110428095Y-99534761D02*
X110570952Y-99582380D01*
X110809047Y-99582380D01*
X110904285Y-99534761D01*
X110951904Y-99487142D01*
X110999523Y-99391904D01*
X110999523Y-99296666D01*
X110951904Y-99201428D01*
X110904285Y-99153809D01*
X110809047Y-99106190D01*
X110618571Y-99058571D01*
X110523333Y-99010952D01*
X110475714Y-98963333D01*
X110428095Y-98868095D01*
X110428095Y-98772857D01*
X110475714Y-98677619D01*
X110523333Y-98630000D01*
X110618571Y-98582380D01*
X110856666Y-98582380D01*
X110999523Y-98630000D01*
X111428095Y-99582380D02*
X111428095Y-98582380D01*
X111666190Y-98582380D01*
X111809047Y-98630000D01*
X111904285Y-98725238D01*
X111951904Y-98820476D01*
X111999523Y-99010952D01*
X111999523Y-99153809D01*
X111951904Y-99344285D01*
X111904285Y-99439523D01*
X111809047Y-99534761D01*
X111666190Y-99582380D01*
X111428095Y-99582380D01*
D16*
X114558571Y-88645907D02*
X114558571Y-88075907D01*
X114748571Y-88483050D01*
X114938571Y-88075907D01*
X114938571Y-88645907D01*
X115454285Y-88265907D02*
X115454285Y-88645907D01*
X115318571Y-88048764D02*
X115182857Y-88455907D01*
X115535714Y-88455907D01*
X114558571Y-89563607D02*
X114558571Y-88993607D01*
X114748571Y-89400750D01*
X114938571Y-88993607D01*
X114938571Y-89563607D01*
X115155714Y-88993607D02*
X115508571Y-88993607D01*
X115318571Y-89210750D01*
X115400000Y-89210750D01*
X115454285Y-89237892D01*
X115481428Y-89265035D01*
X115508571Y-89319321D01*
X115508571Y-89455035D01*
X115481428Y-89509321D01*
X115454285Y-89536464D01*
X115400000Y-89563607D01*
X115237142Y-89563607D01*
X115182857Y-89536464D01*
X115155714Y-89509321D01*
X114558571Y-90481307D02*
X114558571Y-89911307D01*
X114748571Y-90318450D01*
X114938571Y-89911307D01*
X114938571Y-90481307D01*
X115182857Y-89965592D02*
X115210000Y-89938450D01*
X115264285Y-89911307D01*
X115400000Y-89911307D01*
X115454285Y-89938450D01*
X115481428Y-89965592D01*
X115508571Y-90019878D01*
X115508571Y-90074164D01*
X115481428Y-90155592D01*
X115155714Y-90481307D01*
X115508571Y-90481307D01*
X114558571Y-91399007D02*
X114558571Y-90829007D01*
X114748571Y-91236150D01*
X114938571Y-90829007D01*
X114938571Y-91399007D01*
X115508571Y-91399007D02*
X115182857Y-91399007D01*
X115345714Y-91399007D02*
X115345714Y-90829007D01*
X115291428Y-90910435D01*
X115237142Y-90964721D01*
X115182857Y-90991864D01*
X114653571Y-92316707D02*
X114463571Y-92045278D01*
X114327857Y-92316707D02*
X114327857Y-91746707D01*
X114545000Y-91746707D01*
X114599285Y-91773850D01*
X114626428Y-91800992D01*
X114653571Y-91855278D01*
X114653571Y-91936707D01*
X114626428Y-91990992D01*
X114599285Y-92018135D01*
X114545000Y-92045278D01*
X114327857Y-92045278D01*
X114843571Y-91746707D02*
X115223571Y-92316707D01*
X115223571Y-91746707D02*
X114843571Y-92316707D01*
X115685000Y-91746707D02*
X115576428Y-91746707D01*
X115522142Y-91773850D01*
X115495000Y-91800992D01*
X115440714Y-91882421D01*
X115413571Y-91990992D01*
X115413571Y-92208135D01*
X115440714Y-92262421D01*
X115467857Y-92289564D01*
X115522142Y-92316707D01*
X115630714Y-92316707D01*
X115685000Y-92289564D01*
X115712142Y-92262421D01*
X115739285Y-92208135D01*
X115739285Y-92072421D01*
X115712142Y-92018135D01*
X115685000Y-91990992D01*
X115630714Y-91963850D01*
X115522142Y-91963850D01*
X115467857Y-91990992D01*
X115440714Y-92018135D01*
X115413571Y-92072421D01*
X114612857Y-93180121D02*
X114585714Y-93207264D01*
X114504285Y-93234407D01*
X114450000Y-93234407D01*
X114368571Y-93207264D01*
X114314285Y-93152978D01*
X114287142Y-93098692D01*
X114260000Y-92990121D01*
X114260000Y-92908692D01*
X114287142Y-92800121D01*
X114314285Y-92745835D01*
X114368571Y-92691550D01*
X114450000Y-92664407D01*
X114504285Y-92664407D01*
X114585714Y-92691550D01*
X114612857Y-92718692D01*
X114857142Y-92664407D02*
X114857142Y-93125835D01*
X114884285Y-93180121D01*
X114911428Y-93207264D01*
X114965714Y-93234407D01*
X115074285Y-93234407D01*
X115128571Y-93207264D01*
X115155714Y-93180121D01*
X115182857Y-93125835D01*
X115182857Y-92664407D01*
X115780000Y-93234407D02*
X115590000Y-92962978D01*
X115454285Y-93234407D02*
X115454285Y-92664407D01*
X115671428Y-92664407D01*
X115725714Y-92691550D01*
X115752857Y-92718692D01*
X115780000Y-92772978D01*
X115780000Y-92854407D01*
X115752857Y-92908692D01*
X115725714Y-92935835D01*
X115671428Y-92962978D01*
X115454285Y-92962978D01*
X114585714Y-93609250D02*
X114531428Y-93582107D01*
X114450000Y-93582107D01*
X114368571Y-93609250D01*
X114314285Y-93663535D01*
X114287142Y-93717821D01*
X114260000Y-93826392D01*
X114260000Y-93907821D01*
X114287142Y-94016392D01*
X114314285Y-94070678D01*
X114368571Y-94124964D01*
X114450000Y-94152107D01*
X114504285Y-94152107D01*
X114585714Y-94124964D01*
X114612857Y-94097821D01*
X114612857Y-93907821D01*
X114504285Y-93907821D01*
X114857142Y-94152107D02*
X114857142Y-93582107D01*
X115182857Y-94152107D01*
X115182857Y-93582107D01*
X115454285Y-94152107D02*
X115454285Y-93582107D01*
X115590000Y-93582107D01*
X115671428Y-93609250D01*
X115725714Y-93663535D01*
X115752857Y-93717821D01*
X115780000Y-93826392D01*
X115780000Y-93907821D01*
X115752857Y-94016392D01*
X115725714Y-94070678D01*
X115671428Y-94124964D01*
X115590000Y-94152107D01*
X115454285Y-94152107D01*
X114260000Y-94499807D02*
X114450000Y-95069807D01*
X114640000Y-94499807D01*
X115155714Y-95015521D02*
X115128571Y-95042664D01*
X115047142Y-95069807D01*
X114992857Y-95069807D01*
X114911428Y-95042664D01*
X114857142Y-94988378D01*
X114830000Y-94934092D01*
X114802857Y-94825521D01*
X114802857Y-94744092D01*
X114830000Y-94635521D01*
X114857142Y-94581235D01*
X114911428Y-94526950D01*
X114992857Y-94499807D01*
X115047142Y-94499807D01*
X115128571Y-94526950D01*
X115155714Y-94554092D01*
X115725714Y-95015521D02*
X115698571Y-95042664D01*
X115617142Y-95069807D01*
X115562857Y-95069807D01*
X115481428Y-95042664D01*
X115427142Y-94988378D01*
X115400000Y-94934092D01*
X115372857Y-94825521D01*
X115372857Y-94744092D01*
X115400000Y-94635521D01*
X115427142Y-94581235D01*
X115481428Y-94526950D01*
X115562857Y-94499807D01*
X115617142Y-94499807D01*
X115698571Y-94526950D01*
X115725714Y-94554092D01*
D14*
X109146607Y-101619017D02*
X109182321Y-101654732D01*
X109218035Y-101761875D01*
X109218035Y-101833303D01*
X109182321Y-101940446D01*
X109110892Y-102011875D01*
X109039464Y-102047589D01*
X108896607Y-102083303D01*
X108789464Y-102083303D01*
X108646607Y-102047589D01*
X108575178Y-102011875D01*
X108503750Y-101940446D01*
X108468035Y-101833303D01*
X108468035Y-101761875D01*
X108503750Y-101654732D01*
X108539464Y-101619017D01*
X109182321Y-101333303D02*
X109218035Y-101226160D01*
X109218035Y-101047589D01*
X109182321Y-100976160D01*
X109146607Y-100940446D01*
X109075178Y-100904732D01*
X109003750Y-100904732D01*
X108932321Y-100940446D01*
X108896607Y-100976160D01*
X108860892Y-101047589D01*
X108825178Y-101190446D01*
X108789464Y-101261875D01*
X108753750Y-101297589D01*
X108682321Y-101333303D01*
X108610892Y-101333303D01*
X108539464Y-101297589D01*
X108503750Y-101261875D01*
X108468035Y-101190446D01*
X108468035Y-101011875D01*
X108503750Y-100904732D01*
X110425535Y-103297589D02*
X109675535Y-103297589D01*
X110211250Y-103047589D01*
X109675535Y-102797589D01*
X110425535Y-102797589D01*
X109675535Y-102297589D02*
X109675535Y-102154732D01*
X109711250Y-102083303D01*
X109782678Y-102011875D01*
X109925535Y-101976160D01*
X110175535Y-101976160D01*
X110318392Y-102011875D01*
X110389821Y-102083303D01*
X110425535Y-102154732D01*
X110425535Y-102297589D01*
X110389821Y-102369017D01*
X110318392Y-102440446D01*
X110175535Y-102476160D01*
X109925535Y-102476160D01*
X109782678Y-102440446D01*
X109711250Y-102369017D01*
X109675535Y-102297589D01*
X110389821Y-101690446D02*
X110425535Y-101583303D01*
X110425535Y-101404732D01*
X110389821Y-101333303D01*
X110354107Y-101297589D01*
X110282678Y-101261875D01*
X110211250Y-101261875D01*
X110139821Y-101297589D01*
X110104107Y-101333303D01*
X110068392Y-101404732D01*
X110032678Y-101547589D01*
X109996964Y-101619017D01*
X109961250Y-101654732D01*
X109889821Y-101690446D01*
X109818392Y-101690446D01*
X109746964Y-101654732D01*
X109711250Y-101619017D01*
X109675535Y-101547589D01*
X109675535Y-101369017D01*
X109711250Y-101261875D01*
X110425535Y-100940446D02*
X109675535Y-100940446D01*
X111597321Y-102833303D02*
X111633035Y-102726160D01*
X111633035Y-102547589D01*
X111597321Y-102476160D01*
X111561607Y-102440446D01*
X111490178Y-102404732D01*
X111418750Y-102404732D01*
X111347321Y-102440446D01*
X111311607Y-102476160D01*
X111275892Y-102547589D01*
X111240178Y-102690446D01*
X111204464Y-102761875D01*
X111168750Y-102797589D01*
X111097321Y-102833303D01*
X111025892Y-102833303D01*
X110954464Y-102797589D01*
X110918750Y-102761875D01*
X110883035Y-102690446D01*
X110883035Y-102511875D01*
X110918750Y-102404732D01*
X111561607Y-101654732D02*
X111597321Y-101690446D01*
X111633035Y-101797589D01*
X111633035Y-101869017D01*
X111597321Y-101976160D01*
X111525892Y-102047589D01*
X111454464Y-102083303D01*
X111311607Y-102119017D01*
X111204464Y-102119017D01*
X111061607Y-102083303D01*
X110990178Y-102047589D01*
X110918750Y-101976160D01*
X110883035Y-101869017D01*
X110883035Y-101797589D01*
X110918750Y-101690446D01*
X110954464Y-101654732D01*
X111633035Y-101333303D02*
X110883035Y-101333303D01*
X111633035Y-100904732D02*
X111204464Y-101226160D01*
X110883035Y-100904732D02*
X111311607Y-101333303D01*
X112840535Y-103297589D02*
X112090535Y-103297589D01*
X112626250Y-103047589D01*
X112090535Y-102797589D01*
X112840535Y-102797589D01*
X112840535Y-102440446D02*
X112090535Y-102440446D01*
X112804821Y-102119017D02*
X112840535Y-102011875D01*
X112840535Y-101833303D01*
X112804821Y-101761875D01*
X112769107Y-101726160D01*
X112697678Y-101690446D01*
X112626250Y-101690446D01*
X112554821Y-101726160D01*
X112519107Y-101761875D01*
X112483392Y-101833303D01*
X112447678Y-101976160D01*
X112411964Y-102047589D01*
X112376250Y-102083303D01*
X112304821Y-102119017D01*
X112233392Y-102119017D01*
X112161964Y-102083303D01*
X112126250Y-102047589D01*
X112090535Y-101976160D01*
X112090535Y-101797589D01*
X112126250Y-101690446D01*
X112090535Y-101226160D02*
X112090535Y-101083303D01*
X112126250Y-101011875D01*
X112197678Y-100940446D01*
X112340535Y-100904732D01*
X112590535Y-100904732D01*
X112733392Y-100940446D01*
X112804821Y-101011875D01*
X112840535Y-101083303D01*
X112840535Y-101226160D01*
X112804821Y-101297589D01*
X112733392Y-101369017D01*
X112590535Y-101404732D01*
X112340535Y-101404732D01*
X112197678Y-101369017D01*
X112126250Y-101297589D01*
X112090535Y-101226160D01*
D10*
%TO.C,C38*%
X102130000Y-87072164D02*
X102130000Y-87287836D01*
X102850000Y-87072164D02*
X102850000Y-87287836D01*
%TO.C,C39*%
X96890000Y-85332164D02*
X96890000Y-85547836D01*
X97610000Y-85332164D02*
X97610000Y-85547836D01*
%TO.C,D14*%
X101310000Y-82390000D02*
X97460000Y-82390000D01*
X101310000Y-84390000D02*
X97460000Y-84390000D01*
X101310000Y-84390000D02*
X101310000Y-82390000D01*
%TO.C,J8*%
X107850000Y-108200000D02*
X107850000Y-111200000D01*
X99650000Y-111200000D02*
X99650000Y-108200000D01*
X99650000Y-111200000D02*
X107850000Y-111200000D01*
X107850000Y-108200000D02*
X99650000Y-108200000D01*
%TO.C,J13*%
X91090000Y-76000000D02*
X91090000Y-79000000D01*
X91090000Y-76000000D02*
X84890000Y-76000000D01*
X84890000Y-79000000D02*
X84890000Y-76000000D01*
X84890000Y-79000000D02*
X91090000Y-79000000D01*
%TO.C,J16*%
X91094999Y-72000000D02*
X84894999Y-72000000D01*
X84894999Y-75000000D02*
X84894999Y-72000000D01*
X91094999Y-72000000D02*
X91094999Y-75000000D01*
X84894999Y-75000000D02*
X91094999Y-75000000D01*
%TO.C,J17*%
X84610000Y-111200000D02*
X84610000Y-108200000D01*
X88810000Y-108200000D02*
X84610000Y-108200000D01*
X84610000Y-111200000D02*
X88810000Y-111200000D01*
X88810000Y-108200000D02*
X88810000Y-111200000D01*
%TO.C,J2*%
X98250000Y-108200000D02*
X90050000Y-108200000D01*
X90050000Y-111200000D02*
X98250000Y-111200000D01*
X90050000Y-111200000D02*
X90050000Y-108200000D01*
X98250000Y-108200000D02*
X98250000Y-111200000D01*
%TO.C,Q1*%
X85090000Y-80900000D02*
X85090000Y-80250000D01*
X81970000Y-80900000D02*
X81970000Y-82575000D01*
X81970000Y-80900000D02*
X81970000Y-80250000D01*
X85090000Y-80900000D02*
X85090000Y-81550000D01*
%TO.C,R9*%
X80160000Y-81493641D02*
X80160000Y-81186359D01*
X80920000Y-81493641D02*
X80920000Y-81186359D01*
%TO.C,R5*%
X93063641Y-79560000D02*
X92756359Y-79560000D01*
X93063641Y-78800000D02*
X92756359Y-78800000D01*
%TO.C,SW1*%
X93370000Y-79900000D02*
X93370000Y-80200000D01*
X93370000Y-82700000D02*
X93370000Y-82400000D01*
X90070000Y-80200000D02*
X90070000Y-79900000D01*
X90070000Y-79900000D02*
X93370000Y-79900000D01*
X90070000Y-82400000D02*
X90070000Y-82700000D01*
X90070000Y-82700000D02*
X93370000Y-82700000D01*
%TO.C,J11*%
X84610000Y-107200000D02*
X88810000Y-107200000D01*
X84610000Y-107200000D02*
X84610000Y-104200000D01*
X88810000Y-104200000D02*
X84610000Y-104200000D01*
X88810000Y-104200000D02*
X88810000Y-107200000D01*
%TO.C,C1*%
X96717836Y-101450000D02*
X96502164Y-101450000D01*
X96717836Y-102170000D02*
X96502164Y-102170000D01*
%TO.C,C2*%
X98577836Y-102170000D02*
X98362164Y-102170000D01*
X98577836Y-101450000D02*
X98362164Y-101450000D01*
%TO.C,R2*%
X96390000Y-97713641D02*
X96390000Y-97406359D01*
X97150000Y-97713641D02*
X97150000Y-97406359D01*
%TO.C,R12*%
X95390000Y-80866359D02*
X95390000Y-81173641D01*
X96150000Y-80866359D02*
X96150000Y-81173641D01*
%TO.C,R13*%
X94210000Y-80866359D02*
X94210000Y-81173641D01*
X94970000Y-80866359D02*
X94970000Y-81173641D01*
%TO.C,J5*%
X96570000Y-78650000D02*
X96970000Y-78200000D01*
X99520000Y-72600000D02*
X99520000Y-75400000D01*
X97370000Y-78650000D02*
X96570000Y-78650000D01*
X96970000Y-78200000D02*
X97370000Y-78650000D01*
X91820000Y-75400000D02*
X91520000Y-75400000D01*
X91520000Y-75400000D02*
X91520000Y-76950000D01*
X91820000Y-72600000D02*
X91820000Y-75400000D01*
X99820000Y-75400000D02*
X99520000Y-75400000D01*
X99820000Y-75400000D02*
X99820000Y-76950000D01*
%TO.C,C40*%
X96890000Y-87657836D02*
X96890000Y-87442164D01*
X97610000Y-87657836D02*
X97610000Y-87442164D01*
%TO.C,J6*%
X117015000Y-95660000D02*
X116025000Y-95660000D01*
X121485000Y-95540000D02*
X121485000Y-87660000D01*
X117015000Y-96710000D02*
X117015000Y-95660000D01*
X117015000Y-86490000D02*
X117015000Y-87540000D01*
X119515000Y-96710000D02*
X117015000Y-96710000D01*
X119515000Y-86490000D02*
X117015000Y-86490000D01*
%TO.C,C17*%
X106040000Y-82092164D02*
X106040000Y-82307836D01*
X105320000Y-82092164D02*
X105320000Y-82307836D01*
%TO.C,C18*%
X107230000Y-82092164D02*
X107230000Y-82307836D01*
X106510000Y-82092164D02*
X106510000Y-82307836D01*
%TO.C,C16*%
X108690000Y-82092164D02*
X108690000Y-82307836D01*
X109410000Y-82092164D02*
X109410000Y-82307836D01*
%TO.C,C19*%
X104440000Y-90527836D02*
X104440000Y-90312164D01*
X103720000Y-90527836D02*
X103720000Y-90312164D01*
%TO.C,C20*%
X107600000Y-82307836D02*
X107600000Y-82092164D01*
X108320000Y-82307836D02*
X108320000Y-82092164D01*
%TO.C,C21*%
X111580000Y-82307836D02*
X111580000Y-82092164D01*
X110860000Y-82307836D02*
X110860000Y-82092164D01*
%TO.C,C22*%
X104660000Y-92387836D02*
X104660000Y-92172164D01*
X105380000Y-92387836D02*
X105380000Y-92172164D01*
%TO.C,C23*%
X109000000Y-94247836D02*
X109000000Y-94032164D01*
X109720000Y-94247836D02*
X109720000Y-94032164D01*
%TO.C,R22*%
X111930000Y-82046359D02*
X111930000Y-82353641D01*
X112690000Y-82046359D02*
X112690000Y-82353641D01*
%TO.C,R23*%
X113780000Y-82046359D02*
X113780000Y-82353641D01*
X113020000Y-82046359D02*
X113020000Y-82353641D01*
%TO.C,R24*%
X113088641Y-90940000D02*
X112781359Y-90940000D01*
X113088641Y-91700000D02*
X112781359Y-91700000D01*
%TO.C,R25*%
X110520000Y-82353641D02*
X110520000Y-82046359D01*
X109760000Y-82353641D02*
X109760000Y-82046359D01*
%TO.C,R27*%
X108980000Y-92126359D02*
X108980000Y-92433641D01*
X109740000Y-92126359D02*
X109740000Y-92433641D01*
%TO.C,Y2*%
X108765000Y-91450000D02*
X105615000Y-91450000D01*
X105615000Y-91450000D02*
X105615000Y-95250000D01*
%TO.C,J9*%
X98250000Y-104200000D02*
X90050000Y-104200000D01*
X90050000Y-107200000D02*
X98250000Y-107200000D01*
X90050000Y-107200000D02*
X90050000Y-104200000D01*
X98250000Y-104200000D02*
X98250000Y-107200000D01*
%TO.C,J10*%
X100070000Y-75000000D02*
X108270000Y-75000000D01*
X100070000Y-75000000D02*
X100070000Y-72000000D01*
X108270000Y-72000000D02*
X108270000Y-75000000D01*
X108270000Y-72000000D02*
X100070000Y-72000000D01*
%TO.C,J4*%
X102070000Y-79000000D02*
X108270000Y-79000000D01*
X108270000Y-76000000D02*
X102070000Y-76000000D01*
X102070000Y-79000000D02*
X102070000Y-76000000D01*
X108270000Y-76000000D02*
X108270000Y-79000000D01*
D17*
%TO.C,U1*%
X96750000Y-101140000D02*
X96750000Y-100500000D01*
X98970000Y-98940000D02*
X99450000Y-98940000D01*
X99450000Y-101140000D02*
X99450000Y-100500000D01*
X99450000Y-99580000D02*
X99450000Y-98940000D01*
X98970000Y-101140000D02*
X99450000Y-101140000D01*
X96750000Y-101140000D02*
X97230000Y-101140000D01*
X96750000Y-99580000D02*
X96750000Y-98940000D01*
D10*
%TO.C,J3*%
X107850000Y-104200000D02*
X107850000Y-107200000D01*
X107850000Y-104200000D02*
X99650000Y-104200000D01*
X99650000Y-107200000D02*
X99650000Y-104200000D01*
X99650000Y-107200000D02*
X107850000Y-107200000D01*
%TO.C,D4*%
X73423985Y-106770559D02*
X74463432Y-107810006D01*
X74463432Y-107810006D02*
X76079171Y-106194267D01*
X75039724Y-105154820D02*
X73423985Y-106770559D01*
%TO.C,D8*%
X72384538Y-105731112D02*
X74000277Y-104115373D01*
X71345091Y-104691665D02*
X72384538Y-105731112D01*
X72960830Y-103075926D02*
X71345091Y-104691665D01*
%TO.C,D10*%
X71921383Y-102036479D02*
X70305644Y-103652218D01*
X71345091Y-104691665D02*
X72960830Y-103075926D01*
X70305644Y-103652218D02*
X71345091Y-104691665D01*
%TO.C,D2*%
X75502879Y-108849453D02*
X77118618Y-107233714D01*
X76079171Y-106194267D02*
X74463432Y-107810006D01*
X74463432Y-107810006D02*
X75502879Y-108849453D01*
%TO.C,R1*%
X98340000Y-97713641D02*
X98340000Y-97406359D01*
X97580000Y-97713641D02*
X97580000Y-97406359D01*
%TO.C,J7*%
X124580000Y-98800000D02*
X122080000Y-98800000D01*
X122080000Y-98800000D02*
X122080000Y-84400000D01*
X122080000Y-84400000D02*
X124580000Y-84400000D01*
X124580000Y-84400000D02*
X124580000Y-98800000D01*
%TO.C,R26*%
X104870000Y-82353641D02*
X104870000Y-82046359D01*
X104110000Y-82353641D02*
X104110000Y-82046359D01*
%TO.C,J15*%
X117987797Y-111325311D02*
X120250538Y-109062569D01*
X115979613Y-109317127D02*
X117987797Y-111325311D01*
X123220387Y-106092721D02*
X120957645Y-108355462D01*
X115979613Y-109317127D02*
X118242355Y-107054386D01*
X120957645Y-108355462D02*
X118949462Y-106347279D01*
X120250538Y-109062569D02*
X118242355Y-107054386D01*
%TO.C,J14*%
X124580000Y-84250000D02*
X124580000Y-78050000D01*
X121580000Y-78050000D02*
X124580000Y-78050000D01*
X124580000Y-84250000D02*
X121580000Y-84250000D01*
X121580000Y-78050000D02*
X121580000Y-84250000D01*
%TO.C,J18*%
X121580000Y-98950000D02*
X124580000Y-98950000D01*
X124580000Y-105150000D02*
X124580000Y-98950000D01*
X121580000Y-98950000D02*
X121580000Y-105150000D01*
X124580000Y-105150000D02*
X121580000Y-105150000D01*
%TO.C,D1*%
X77328425Y-74491959D02*
X75712686Y-72876220D01*
X74673239Y-73915667D02*
X76288978Y-75531406D01*
X75712686Y-72876220D02*
X74673239Y-73915667D01*
%TO.C,D3*%
X74680310Y-73908596D02*
X73640863Y-74948043D01*
X73640863Y-74948043D02*
X75256602Y-76563782D01*
X76296049Y-75524335D02*
X74680310Y-73908596D01*
%TO.C,D5*%
X73647934Y-74940972D02*
X72608487Y-75980419D01*
X75263673Y-76556711D02*
X73647934Y-74940972D01*
X72608487Y-75980419D02*
X74224226Y-77596158D01*
%TO.C,D7*%
X72615558Y-75973348D02*
X71576111Y-77012795D01*
X74231297Y-77589087D02*
X72615558Y-75973348D01*
X71576111Y-77012795D02*
X73191850Y-78628534D01*
%TO.C,J12*%
X120957645Y-74849462D02*
X123220387Y-77112203D01*
X115979613Y-73887797D02*
X117987797Y-71879613D01*
X120250538Y-74142355D02*
X118242355Y-76150538D01*
X120957645Y-74849462D02*
X118949462Y-76857645D01*
X117987797Y-71879613D02*
X120250538Y-74142355D01*
X118242355Y-76150538D02*
X115979613Y-73887797D01*
D11*
%TO.C,U3*%
X98050000Y-90450000D02*
X98050000Y-90975000D01*
X98050000Y-94750000D02*
X98575000Y-94750000D01*
X98050000Y-94750000D02*
X98050000Y-94225000D01*
X102350000Y-90450000D02*
X101825000Y-90450000D01*
X98050000Y-90450000D02*
X98575000Y-90450000D01*
X102350000Y-94750000D02*
X101825000Y-94750000D01*
X102350000Y-90450000D02*
X102350000Y-90975000D01*
D10*
%TO.C,U9*%
X100010000Y-87840000D02*
X99210000Y-87840000D01*
X100010000Y-87840000D02*
X101810000Y-87840000D01*
X100010000Y-84720000D02*
X99210000Y-84720000D01*
X100010000Y-84720000D02*
X100810000Y-84720000D01*
%TO.C,C3*%
X96720000Y-90057836D02*
X96720000Y-89842164D01*
X97440000Y-90057836D02*
X97440000Y-89842164D01*
%TO.C,D6*%
X73423985Y-106770559D02*
X75039724Y-105154820D01*
X74000277Y-104115373D02*
X72384538Y-105731112D01*
X72384538Y-105731112D02*
X73423985Y-106770559D01*
%TO.C,C4*%
X98587836Y-96330000D02*
X98372164Y-96330000D01*
X98587836Y-95610000D02*
X98372164Y-95610000D01*
D18*
%TO.C,U5*%
X111025498Y-91104800D02*
X111025498Y-90850800D01*
X110644498Y-90850800D02*
X110644498Y-91104800D01*
X104180800Y-89364900D02*
X104474460Y-89364900D01*
X104180800Y-84615100D02*
X104180800Y-89364900D01*
X104474460Y-84615100D02*
X104180800Y-84615100D01*
X114239200Y-84615100D02*
X113945540Y-84615100D01*
X109994499Y-83129200D02*
X109994499Y-82875200D01*
X109994499Y-82875200D02*
X110375499Y-82875200D01*
X111025498Y-90850800D02*
X110644498Y-90850800D01*
X110375499Y-82875200D02*
X110375499Y-83129200D01*
X114239200Y-89364900D02*
X114239200Y-84615100D01*
X113945538Y-89364900D02*
X114239200Y-89364900D01*
X110644498Y-91104800D02*
X111025498Y-91104800D01*
X110375499Y-83129200D02*
X109994499Y-83129200D01*
D10*
%TO.C,FB3*%
X102240000Y-84682779D02*
X102240000Y-84357221D01*
X103260000Y-84682779D02*
X103260000Y-84357221D01*
D19*
%TO.C,L4*%
X78422144Y-101181687D02*
X78418905Y-101186211D01*
X78418905Y-101186211D02*
X78409911Y-101197000D01*
X78409911Y-101197000D02*
X78396249Y-101212842D01*
X78396249Y-101212842D02*
X78379009Y-101232521D01*
X78379009Y-101232521D02*
X78359275Y-101254825D01*
X78359275Y-101254825D02*
X78338137Y-101278538D01*
X78338137Y-101278538D02*
X78316680Y-101302450D01*
X78316680Y-101302450D02*
X78295993Y-101325343D01*
X78295993Y-101325343D02*
X78277163Y-101346005D01*
X78277163Y-101346005D02*
X78261276Y-101363222D01*
X78261276Y-101363222D02*
X78249420Y-101375781D01*
X78249420Y-101375781D02*
X78242684Y-101382467D01*
X78242684Y-101382467D02*
X78241608Y-101383236D01*
X78241608Y-101383236D02*
X78238610Y-101378735D01*
X78238610Y-101378735D02*
X78233404Y-101366609D01*
X78233404Y-101366609D02*
X78226826Y-101348926D01*
X78226826Y-101348926D02*
X78222242Y-101335517D01*
X78222242Y-101335517D02*
X78206441Y-101287798D01*
X78206441Y-101287798D02*
X78089432Y-101327979D01*
X78089432Y-101327979D02*
X78056894Y-101338993D01*
X78056894Y-101338993D02*
X78027607Y-101348600D01*
X78027607Y-101348600D02*
X78002916Y-101356388D01*
X78002916Y-101356388D02*
X77984159Y-101361938D01*
X77984159Y-101361938D02*
X77972674Y-101364839D01*
X77972674Y-101364839D02*
X77969657Y-101365048D01*
X77969657Y-101365048D02*
X77966789Y-101358920D01*
X77966789Y-101358920D02*
X77962018Y-101345978D01*
X77962018Y-101345978D02*
X77956837Y-101330434D01*
X77956837Y-101330434D02*
X77946782Y-101298933D01*
X77946782Y-101298933D02*
X78063009Y-101261978D01*
X78063009Y-101261978D02*
X78095649Y-101251511D01*
X78095649Y-101251511D02*
X78125021Y-101241919D01*
X78125021Y-101241919D02*
X78149751Y-101233665D01*
X78149751Y-101233665D02*
X78168462Y-101227215D01*
X78168462Y-101227215D02*
X78179778Y-101223030D01*
X78179778Y-101223030D02*
X78182540Y-101221723D01*
X78182540Y-101221723D02*
X78182408Y-101215821D01*
X78182408Y-101215821D02*
X78179413Y-101202547D01*
X78179413Y-101202547D02*
X78174106Y-101184097D01*
X78174106Y-101184097D02*
X78169503Y-101169845D01*
X78169503Y-101169845D02*
X78153164Y-101121268D01*
X78153164Y-101121268D02*
X78287654Y-101150337D01*
X78287654Y-101150337D02*
X78323048Y-101158068D01*
X78323048Y-101158068D02*
X78354955Y-101165191D01*
X78354955Y-101165191D02*
X78382096Y-101171410D01*
X78382096Y-101171410D02*
X78403192Y-101176426D01*
X78403192Y-101176426D02*
X78416964Y-101179941D01*
X78416964Y-101179941D02*
X78422134Y-101181657D01*
X78422134Y-101181657D02*
X78422144Y-101181687D01*
X78422144Y-101181687D02*
X78422144Y-101181687D01*
G36*
X78287654Y-101150337D02*
G01*
X78323048Y-101158068D01*
X78354955Y-101165191D01*
X78382096Y-101171410D01*
X78403192Y-101176426D01*
X78416964Y-101179941D01*
X78422134Y-101181657D01*
X78422144Y-101181687D01*
X78418905Y-101186211D01*
X78409911Y-101197000D01*
X78396249Y-101212842D01*
X78379009Y-101232521D01*
X78359275Y-101254825D01*
X78338137Y-101278538D01*
X78316680Y-101302450D01*
X78295993Y-101325343D01*
X78277163Y-101346005D01*
X78261276Y-101363222D01*
X78249420Y-101375781D01*
X78242684Y-101382467D01*
X78241608Y-101383236D01*
X78238610Y-101378735D01*
X78233404Y-101366609D01*
X78226826Y-101348926D01*
X78222242Y-101335517D01*
X78206441Y-101287798D01*
X78089432Y-101327979D01*
X78056894Y-101338993D01*
X78027607Y-101348600D01*
X78002916Y-101356388D01*
X77984159Y-101361938D01*
X77972674Y-101364839D01*
X77969657Y-101365048D01*
X77966789Y-101358920D01*
X77962018Y-101345978D01*
X77956837Y-101330434D01*
X77946782Y-101298933D01*
X78063009Y-101261978D01*
X78095649Y-101251511D01*
X78125021Y-101241919D01*
X78149751Y-101233665D01*
X78168462Y-101227215D01*
X78179778Y-101223030D01*
X78182540Y-101221723D01*
X78182408Y-101215821D01*
X78179413Y-101202547D01*
X78174106Y-101184097D01*
X78169503Y-101169845D01*
X78153164Y-101121268D01*
X78287654Y-101150337D01*
G37*
X78287654Y-101150337D02*
X78323048Y-101158068D01*
X78354955Y-101165191D01*
X78382096Y-101171410D01*
X78403192Y-101176426D01*
X78416964Y-101179941D01*
X78422134Y-101181657D01*
X78422144Y-101181687D01*
X78418905Y-101186211D01*
X78409911Y-101197000D01*
X78396249Y-101212842D01*
X78379009Y-101232521D01*
X78359275Y-101254825D01*
X78338137Y-101278538D01*
X78316680Y-101302450D01*
X78295993Y-101325343D01*
X78277163Y-101346005D01*
X78261276Y-101363222D01*
X78249420Y-101375781D01*
X78242684Y-101382467D01*
X78241608Y-101383236D01*
X78238610Y-101378735D01*
X78233404Y-101366609D01*
X78226826Y-101348926D01*
X78222242Y-101335517D01*
X78206441Y-101287798D01*
X78089432Y-101327979D01*
X78056894Y-101338993D01*
X78027607Y-101348600D01*
X78002916Y-101356388D01*
X77984159Y-101361938D01*
X77972674Y-101364839D01*
X77969657Y-101365048D01*
X77966789Y-101358920D01*
X77962018Y-101345978D01*
X77956837Y-101330434D01*
X77946782Y-101298933D01*
X78063009Y-101261978D01*
X78095649Y-101251511D01*
X78125021Y-101241919D01*
X78149751Y-101233665D01*
X78168462Y-101227215D01*
X78179778Y-101223030D01*
X78182540Y-101221723D01*
X78182408Y-101215821D01*
X78179413Y-101202547D01*
X78174106Y-101184097D01*
X78169503Y-101169845D01*
X78153164Y-101121268D01*
X78287654Y-101150337D01*
X78303919Y-100828006D02*
X78294809Y-100838643D01*
X78294809Y-100838643D02*
X78280959Y-100854333D01*
X78280959Y-100854333D02*
X78263456Y-100873884D01*
X78263456Y-100873884D02*
X78243393Y-100896101D01*
X78243393Y-100896101D02*
X78221856Y-100919792D01*
X78221856Y-100919792D02*
X78199936Y-100943763D01*
X78199936Y-100943763D02*
X78178723Y-100966824D01*
X78178723Y-100966824D02*
X78159305Y-100987779D01*
X78159305Y-100987779D02*
X78142773Y-101005435D01*
X78142773Y-101005435D02*
X78130216Y-101018601D01*
X78130216Y-101018601D02*
X78122724Y-101026083D01*
X78122724Y-101026083D02*
X78121134Y-101027347D01*
X78121134Y-101027347D02*
X78118807Y-101022932D01*
X78118807Y-101022932D02*
X78114437Y-101010837D01*
X78114437Y-101010837D02*
X78108751Y-100993156D01*
X78108751Y-100993156D02*
X78104987Y-100980667D01*
X78104987Y-100980667D02*
X78098937Y-100960426D01*
X78098937Y-100960426D02*
X78093942Y-100944276D01*
X78093942Y-100944276D02*
X78090686Y-100934405D01*
X78090686Y-100934405D02*
X78089855Y-100932407D01*
X78089855Y-100932407D02*
X78084887Y-100933590D01*
X78084887Y-100933590D02*
X78071613Y-100937603D01*
X78071613Y-100937603D02*
X78051350Y-100944027D01*
X78051350Y-100944027D02*
X78025416Y-100952437D01*
X78025416Y-100952437D02*
X77995130Y-100962415D01*
X77995130Y-100962415D02*
X77970138Y-100970744D01*
X77970138Y-100970744D02*
X77937417Y-100981596D01*
X77937417Y-100981596D02*
X77908026Y-100991153D01*
X77908026Y-100991153D02*
X77883288Y-100998996D01*
X77883288Y-100998996D02*
X77864524Y-101004714D01*
X77864524Y-101004714D02*
X77853057Y-101007890D01*
X77853057Y-101007890D02*
X77850041Y-101008353D01*
X77850041Y-101008353D02*
X77847741Y-101002821D01*
X77847741Y-101002821D02*
X77843393Y-100990371D01*
X77843393Y-100990371D02*
X77838359Y-100975003D01*
X77838359Y-100975003D02*
X77833528Y-100958669D01*
X77833528Y-100958669D02*
X77830680Y-100946620D01*
X77830680Y-100946620D02*
X77830400Y-100941653D01*
X77830400Y-100941653D02*
X77835600Y-100939574D01*
X77835600Y-100939574D02*
X77849110Y-100934831D01*
X77849110Y-100934831D02*
X77869564Y-100927885D01*
X77869564Y-100927885D02*
X77895603Y-100919195D01*
X77895603Y-100919195D02*
X77925864Y-100909219D01*
X77925864Y-100909219D02*
X77946955Y-100902328D01*
X77946955Y-100902328D02*
X77979272Y-100891798D01*
X77979272Y-100891798D02*
X78008311Y-100882326D01*
X78008311Y-100882326D02*
X78032695Y-100874362D01*
X78032695Y-100874362D02*
X78051049Y-100868354D01*
X78051049Y-100868354D02*
X78061998Y-100864752D01*
X78061998Y-100864752D02*
X78064483Y-100863917D01*
X78064483Y-100863917D02*
X78064214Y-100858978D01*
X78064214Y-100858978D02*
X78061090Y-100846553D01*
X78061090Y-100846553D02*
X78055682Y-100828721D01*
X78055682Y-100828721D02*
X78050984Y-100814554D01*
X78050984Y-100814554D02*
X78044256Y-100794138D01*
X78044256Y-100794138D02*
X78039303Y-100777636D01*
X78039303Y-100777636D02*
X78036735Y-100767165D01*
X78036735Y-100767165D02*
X78036652Y-100764575D01*
X78036652Y-100764575D02*
X78042142Y-100764988D01*
X78042142Y-100764988D02*
X78055894Y-100767337D01*
X78055894Y-100767337D02*
X78076350Y-100771284D01*
X78076350Y-100771284D02*
X78101952Y-100776488D01*
X78101952Y-100776488D02*
X78131140Y-100782610D01*
X78131140Y-100782610D02*
X78162355Y-100789309D01*
X78162355Y-100789309D02*
X78194040Y-100796243D01*
X78194040Y-100796243D02*
X78224634Y-100803075D01*
X78224634Y-100803075D02*
X78252579Y-100809464D01*
X78252579Y-100809464D02*
X78276317Y-100815069D01*
X78276317Y-100815069D02*
X78294289Y-100819551D01*
X78294289Y-100819551D02*
X78304937Y-100822567D01*
X78304937Y-100822567D02*
X78307197Y-100823615D01*
X78307197Y-100823615D02*
X78303919Y-100828006D01*
X78303919Y-100828006D02*
X78303919Y-100828006D01*
G36*
X78042142Y-100764988D02*
G01*
X78055894Y-100767337D01*
X78076350Y-100771284D01*
X78101952Y-100776488D01*
X78131140Y-100782610D01*
X78162355Y-100789309D01*
X78194040Y-100796243D01*
X78224634Y-100803075D01*
X78252579Y-100809464D01*
X78276317Y-100815069D01*
X78294289Y-100819551D01*
X78304937Y-100822567D01*
X78307197Y-100823615D01*
X78303919Y-100828006D01*
X78294809Y-100838643D01*
X78280959Y-100854333D01*
X78263456Y-100873884D01*
X78243393Y-100896101D01*
X78221856Y-100919792D01*
X78199936Y-100943763D01*
X78178723Y-100966824D01*
X78159305Y-100987779D01*
X78142773Y-101005435D01*
X78130216Y-101018601D01*
X78122724Y-101026083D01*
X78121134Y-101027347D01*
X78118807Y-101022932D01*
X78114437Y-101010837D01*
X78108751Y-100993156D01*
X78104987Y-100980667D01*
X78098937Y-100960426D01*
X78093942Y-100944276D01*
X78090686Y-100934405D01*
X78089855Y-100932407D01*
X78084887Y-100933590D01*
X78071613Y-100937603D01*
X78051350Y-100944027D01*
X78025416Y-100952437D01*
X77995130Y-100962415D01*
X77970138Y-100970744D01*
X77937417Y-100981596D01*
X77908026Y-100991153D01*
X77883288Y-100998996D01*
X77864524Y-101004714D01*
X77853057Y-101007890D01*
X77850041Y-101008353D01*
X77847741Y-101002821D01*
X77843393Y-100990371D01*
X77838359Y-100975003D01*
X77833528Y-100958669D01*
X77830680Y-100946620D01*
X77830400Y-100941653D01*
X77835600Y-100939574D01*
X77849110Y-100934831D01*
X77869564Y-100927885D01*
X77895603Y-100919195D01*
X77925864Y-100909219D01*
X77946955Y-100902328D01*
X77979272Y-100891798D01*
X78008311Y-100882326D01*
X78032695Y-100874362D01*
X78051049Y-100868354D01*
X78061998Y-100864752D01*
X78064483Y-100863917D01*
X78064214Y-100858978D01*
X78061090Y-100846553D01*
X78055682Y-100828721D01*
X78050984Y-100814554D01*
X78044256Y-100794138D01*
X78039303Y-100777636D01*
X78036735Y-100767165D01*
X78036652Y-100764575D01*
X78042142Y-100764988D01*
G37*
X78042142Y-100764988D02*
X78055894Y-100767337D01*
X78076350Y-100771284D01*
X78101952Y-100776488D01*
X78131140Y-100782610D01*
X78162355Y-100789309D01*
X78194040Y-100796243D01*
X78224634Y-100803075D01*
X78252579Y-100809464D01*
X78276317Y-100815069D01*
X78294289Y-100819551D01*
X78304937Y-100822567D01*
X78307197Y-100823615D01*
X78303919Y-100828006D01*
X78294809Y-100838643D01*
X78280959Y-100854333D01*
X78263456Y-100873884D01*
X78243393Y-100896101D01*
X78221856Y-100919792D01*
X78199936Y-100943763D01*
X78178723Y-100966824D01*
X78159305Y-100987779D01*
X78142773Y-101005435D01*
X78130216Y-101018601D01*
X78122724Y-101026083D01*
X78121134Y-101027347D01*
X78118807Y-101022932D01*
X78114437Y-101010837D01*
X78108751Y-100993156D01*
X78104987Y-100980667D01*
X78098937Y-100960426D01*
X78093942Y-100944276D01*
X78090686Y-100934405D01*
X78089855Y-100932407D01*
X78084887Y-100933590D01*
X78071613Y-100937603D01*
X78051350Y-100944027D01*
X78025416Y-100952437D01*
X77995130Y-100962415D01*
X77970138Y-100970744D01*
X77937417Y-100981596D01*
X77908026Y-100991153D01*
X77883288Y-100998996D01*
X77864524Y-101004714D01*
X77853057Y-101007890D01*
X77850041Y-101008353D01*
X77847741Y-101002821D01*
X77843393Y-100990371D01*
X77838359Y-100975003D01*
X77833528Y-100958669D01*
X77830680Y-100946620D01*
X77830400Y-100941653D01*
X77835600Y-100939574D01*
X77849110Y-100934831D01*
X77869564Y-100927885D01*
X77895603Y-100919195D01*
X77925864Y-100909219D01*
X77946955Y-100902328D01*
X77979272Y-100891798D01*
X78008311Y-100882326D01*
X78032695Y-100874362D01*
X78051049Y-100868354D01*
X78061998Y-100864752D01*
X78064483Y-100863917D01*
X78064214Y-100858978D01*
X78061090Y-100846553D01*
X78055682Y-100828721D01*
X78050984Y-100814554D01*
X78044256Y-100794138D01*
X78039303Y-100777636D01*
X78036735Y-100767165D01*
X78036652Y-100764575D01*
X78042142Y-100764988D01*
X77607990Y-100575796D02*
X77613140Y-100590058D01*
X77613140Y-100590058D02*
X77621146Y-100612784D01*
X77621146Y-100612784D02*
X77631809Y-100643395D01*
X77631809Y-100643395D02*
X77644930Y-100681311D01*
X77644930Y-100681311D02*
X77660309Y-100725953D01*
X77660309Y-100725953D02*
X77677747Y-100776738D01*
X77677747Y-100776738D02*
X77697046Y-100833091D01*
X77697046Y-100833091D02*
X77718006Y-100894426D01*
X77718006Y-100894426D02*
X77740428Y-100960169D01*
X77740428Y-100960169D02*
X77764113Y-101029736D01*
X77764113Y-101029736D02*
X77788862Y-101102549D01*
X77788862Y-101102549D02*
X77814476Y-101178028D01*
X77814476Y-101178028D02*
X77814773Y-101178907D01*
X77814773Y-101178907D02*
X77840394Y-101254453D01*
X77840394Y-101254453D02*
X77865131Y-101327374D01*
X77865131Y-101327374D02*
X77888788Y-101397087D01*
X77888788Y-101397087D02*
X77911167Y-101463007D01*
X77911167Y-101463007D02*
X77932067Y-101524554D01*
X77932067Y-101524554D02*
X77951295Y-101581144D01*
X77951295Y-101581144D02*
X77968650Y-101632195D01*
X77968650Y-101632195D02*
X77983932Y-101677124D01*
X77983932Y-101677124D02*
X77996946Y-101715347D01*
X77996946Y-101715347D02*
X78007494Y-101746284D01*
X78007494Y-101746284D02*
X78015375Y-101769349D01*
X78015375Y-101769349D02*
X78020394Y-101783963D01*
X78020394Y-101783963D02*
X78022352Y-101789541D01*
X78022352Y-101789541D02*
X78022354Y-101789547D01*
X78022354Y-101789547D02*
X78024377Y-101789585D01*
X78024377Y-101789585D02*
X78029452Y-101786285D01*
X78029452Y-101786285D02*
X78038059Y-101779195D01*
X78038059Y-101779195D02*
X78050682Y-101767857D01*
X78050682Y-101767857D02*
X78067802Y-101751815D01*
X78067802Y-101751815D02*
X78089903Y-101730616D01*
X78089903Y-101730616D02*
X78117467Y-101703805D01*
X78117467Y-101703805D02*
X78150976Y-101670925D01*
X78150976Y-101670925D02*
X78190912Y-101631522D01*
X78190912Y-101631522D02*
X78213996Y-101608681D01*
X78213996Y-101608681D02*
X78402986Y-101421553D01*
X78402986Y-101421553D02*
X78499973Y-101518539D01*
X78499973Y-101518539D02*
X78306031Y-101714339D01*
X78306031Y-101714339D02*
X78112088Y-101910139D01*
X78112088Y-101910139D02*
X78435346Y-102233398D01*
X78435346Y-102233398D02*
X78758604Y-102556657D01*
X78758604Y-102556657D02*
X78658026Y-102657236D01*
X78658026Y-102657236D02*
X78011447Y-102010657D01*
X78011447Y-102010657D02*
X77623500Y-102398604D01*
X77623500Y-102398604D02*
X77522921Y-102298026D01*
X77522921Y-102298026D02*
X77709711Y-102111236D01*
X77709711Y-102111236D02*
X77745535Y-102075312D01*
X77745535Y-102075312D02*
X77779001Y-102041557D01*
X77779001Y-102041557D02*
X77809450Y-102010650D01*
X77809450Y-102010650D02*
X77836228Y-101983265D01*
X77836228Y-101983265D02*
X77858676Y-101960080D01*
X77858676Y-101960080D02*
X77876138Y-101941771D01*
X77876138Y-101941771D02*
X77887955Y-101929013D01*
X77887955Y-101929013D02*
X77893471Y-101922485D01*
X77893471Y-101922485D02*
X77893780Y-101921779D01*
X77893780Y-101921779D02*
X77888710Y-101919835D01*
X77888710Y-101919835D02*
X77874616Y-101914838D01*
X77874616Y-101914838D02*
X77852094Y-101906994D01*
X77852094Y-101906994D02*
X77821743Y-101896508D01*
X77821743Y-101896508D02*
X77784161Y-101883583D01*
X77784161Y-101883583D02*
X77739947Y-101868424D01*
X77739947Y-101868424D02*
X77689699Y-101851237D01*
X77689699Y-101851237D02*
X77634014Y-101832225D01*
X77634014Y-101832225D02*
X77573491Y-101811595D01*
X77573491Y-101811595D02*
X77508730Y-101789549D01*
X77508730Y-101789549D02*
X77440326Y-101766295D01*
X77440326Y-101766295D02*
X77368879Y-101742034D01*
X77368879Y-101742034D02*
X77325863Y-101727441D01*
X77325863Y-101727441D02*
X76760667Y-101535772D01*
X76760667Y-101535772D02*
X76696738Y-101471842D01*
X76696738Y-101471842D02*
X77084685Y-101083895D01*
X77084685Y-101083895D02*
X76502764Y-100501974D01*
X76502764Y-100501974D02*
X76553694Y-100451045D01*
X76553694Y-100451045D02*
X77236193Y-101133544D01*
X77236193Y-101133544D02*
X76927143Y-101442595D01*
X76927143Y-101442595D02*
X77137490Y-101514227D01*
X77137490Y-101514227D02*
X77187127Y-101531125D01*
X77187127Y-101531125D02*
X77244220Y-101550549D01*
X77244220Y-101550549D02*
X77306604Y-101571764D01*
X77306604Y-101571764D02*
X77372112Y-101594034D01*
X77372112Y-101594034D02*
X77438578Y-101616622D01*
X77438578Y-101616622D02*
X77503836Y-101638792D01*
X77503836Y-101638792D02*
X77565720Y-101659807D01*
X77565720Y-101659807D02*
X77604806Y-101673075D01*
X77604806Y-101673075D02*
X77653495Y-101689552D01*
X77653495Y-101689552D02*
X77699161Y-101704913D01*
X77699161Y-101704913D02*
X77740923Y-101718868D01*
X77740923Y-101718868D02*
X77777904Y-101731127D01*
X77777904Y-101731127D02*
X77809224Y-101741402D01*
X77809224Y-101741402D02*
X77834004Y-101749403D01*
X77834004Y-101749403D02*
X77851364Y-101754842D01*
X77851364Y-101754842D02*
X77860425Y-101757428D01*
X77860425Y-101757428D02*
X77861569Y-101757563D01*
X77861569Y-101757563D02*
X77859954Y-101752520D01*
X77859954Y-101752520D02*
X77855346Y-101738660D01*
X77855346Y-101738660D02*
X77848017Y-101716786D01*
X77848017Y-101716786D02*
X77838240Y-101687705D01*
X77838240Y-101687705D02*
X77826287Y-101652219D01*
X77826287Y-101652219D02*
X77812431Y-101611134D01*
X77812431Y-101611134D02*
X77796941Y-101565252D01*
X77796941Y-101565252D02*
X77780093Y-101515379D01*
X77780093Y-101515379D02*
X77762159Y-101462318D01*
X77762159Y-101462318D02*
X77743408Y-101406874D01*
X77743408Y-101406874D02*
X77724116Y-101349851D01*
X77724116Y-101349851D02*
X77704553Y-101292053D01*
X77704553Y-101292053D02*
X77684992Y-101234285D01*
X77684992Y-101234285D02*
X77665705Y-101177350D01*
X77665705Y-101177350D02*
X77646965Y-101122053D01*
X77646965Y-101122053D02*
X77629042Y-101069198D01*
X77629042Y-101069198D02*
X77612211Y-101019590D01*
X77612211Y-101019590D02*
X77596743Y-100974032D01*
X77596743Y-100974032D02*
X77582911Y-100933328D01*
X77582911Y-100933328D02*
X77570985Y-100898283D01*
X77570985Y-100898283D02*
X77561240Y-100869700D01*
X77561240Y-100869700D02*
X77553947Y-100848385D01*
X77553947Y-100848385D02*
X77549378Y-100835143D01*
X77549378Y-100835143D02*
X77547853Y-100830865D01*
X77547853Y-100830865D02*
X77546075Y-100831010D01*
X77546075Y-100831010D02*
X77541495Y-100834157D01*
X77541495Y-100834157D02*
X77533729Y-100840675D01*
X77533729Y-100840675D02*
X77522397Y-100850936D01*
X77522397Y-100850936D02*
X77507115Y-100865310D01*
X77507115Y-100865310D02*
X77487499Y-100884170D01*
X77487499Y-100884170D02*
X77463171Y-100907886D01*
X77463171Y-100907886D02*
X77433744Y-100936832D01*
X77433744Y-100936832D02*
X77398838Y-100971376D01*
X77398838Y-100971376D02*
X77358071Y-101011891D01*
X77358071Y-101011891D02*
X77311059Y-101058749D01*
X77311059Y-101058749D02*
X77257421Y-101112321D01*
X77257421Y-101112321D02*
X77236193Y-101133544D01*
X77236193Y-101133544D02*
X76553694Y-100451045D01*
X76553694Y-100451045D02*
X76603343Y-100401396D01*
X76603343Y-100401396D02*
X77185264Y-100983316D01*
X77185264Y-100983316D02*
X77393606Y-100774974D01*
X77393606Y-100774974D02*
X77441752Y-100726918D01*
X77441752Y-100726918D02*
X77483091Y-100685862D01*
X77483091Y-100685862D02*
X77517910Y-100651527D01*
X77517910Y-100651527D02*
X77546496Y-100623636D01*
X77546496Y-100623636D02*
X77569136Y-100601915D01*
X77569136Y-100601915D02*
X77586115Y-100586087D01*
X77586115Y-100586087D02*
X77597722Y-100575876D01*
X77597722Y-100575876D02*
X77604242Y-100571006D01*
X77604242Y-100571006D02*
X77605896Y-100570581D01*
X77605896Y-100570581D02*
X77607990Y-100575796D01*
X77607990Y-100575796D02*
X77607990Y-100575796D01*
G36*
X77185264Y-100983316D02*
G01*
X77393606Y-100774974D01*
X77441752Y-100726918D01*
X77483091Y-100685862D01*
X77517910Y-100651527D01*
X77546496Y-100623636D01*
X77569136Y-100601915D01*
X77586115Y-100586087D01*
X77597722Y-100575876D01*
X77604242Y-100571006D01*
X77605896Y-100570581D01*
X77607990Y-100575796D01*
X77613140Y-100590058D01*
X77621146Y-100612784D01*
X77631809Y-100643395D01*
X77644930Y-100681311D01*
X77660309Y-100725953D01*
X77677747Y-100776738D01*
X77697046Y-100833091D01*
X77718006Y-100894426D01*
X77740428Y-100960169D01*
X77764113Y-101029736D01*
X77788862Y-101102549D01*
X77814476Y-101178028D01*
X77814773Y-101178907D01*
X77840394Y-101254453D01*
X77865131Y-101327374D01*
X77888788Y-101397087D01*
X77911167Y-101463007D01*
X77932067Y-101524554D01*
X77951295Y-101581144D01*
X77968650Y-101632195D01*
X77983932Y-101677124D01*
X77996946Y-101715347D01*
X78007494Y-101746284D01*
X78015375Y-101769349D01*
X78020394Y-101783963D01*
X78022352Y-101789541D01*
X78022354Y-101789547D01*
X78024377Y-101789585D01*
X78029452Y-101786285D01*
X78038059Y-101779195D01*
X78050682Y-101767857D01*
X78067802Y-101751815D01*
X78089903Y-101730616D01*
X78117467Y-101703805D01*
X78150976Y-101670925D01*
X78190912Y-101631522D01*
X78213996Y-101608681D01*
X78402986Y-101421553D01*
X78499973Y-101518539D01*
X78306031Y-101714339D01*
X78112088Y-101910139D01*
X78758604Y-102556657D01*
X78658026Y-102657236D01*
X78011447Y-102010657D01*
X77623500Y-102398604D01*
X77522921Y-102298026D01*
X77709711Y-102111236D01*
X77745535Y-102075312D01*
X77779001Y-102041557D01*
X77809450Y-102010650D01*
X77836228Y-101983265D01*
X77858676Y-101960080D01*
X77876138Y-101941771D01*
X77887955Y-101929013D01*
X77893471Y-101922485D01*
X77893780Y-101921779D01*
X77888710Y-101919835D01*
X77874616Y-101914838D01*
X77852094Y-101906994D01*
X77821743Y-101896508D01*
X77784161Y-101883583D01*
X77739947Y-101868424D01*
X77689699Y-101851237D01*
X77634014Y-101832225D01*
X77573491Y-101811595D01*
X77508730Y-101789549D01*
X77440326Y-101766295D01*
X77368879Y-101742034D01*
X77325863Y-101727441D01*
X76760667Y-101535772D01*
X76696738Y-101471842D01*
X76725985Y-101442595D01*
X76927143Y-101442595D01*
X77137490Y-101514227D01*
X77187127Y-101531125D01*
X77244220Y-101550549D01*
X77306604Y-101571764D01*
X77372112Y-101594034D01*
X77438578Y-101616622D01*
X77503836Y-101638792D01*
X77565720Y-101659807D01*
X77604806Y-101673075D01*
X77653495Y-101689552D01*
X77699161Y-101704913D01*
X77740923Y-101718868D01*
X77777904Y-101731127D01*
X77809224Y-101741402D01*
X77834004Y-101749403D01*
X77851364Y-101754842D01*
X77860425Y-101757428D01*
X77861569Y-101757563D01*
X77859954Y-101752520D01*
X77855346Y-101738660D01*
X77848017Y-101716786D01*
X77838240Y-101687705D01*
X77826287Y-101652219D01*
X77812431Y-101611134D01*
X77796941Y-101565252D01*
X77780093Y-101515379D01*
X77762159Y-101462318D01*
X77743408Y-101406874D01*
X77724116Y-101349851D01*
X77704553Y-101292053D01*
X77684992Y-101234285D01*
X77665705Y-101177350D01*
X77646965Y-101122053D01*
X77629042Y-101069198D01*
X77612211Y-101019590D01*
X77596743Y-100974032D01*
X77582911Y-100933328D01*
X77570985Y-100898283D01*
X77561240Y-100869700D01*
X77553947Y-100848385D01*
X77549378Y-100835143D01*
X77547853Y-100830865D01*
X77546075Y-100831010D01*
X77541495Y-100834157D01*
X77533729Y-100840675D01*
X77522397Y-100850936D01*
X77507115Y-100865310D01*
X77487499Y-100884170D01*
X77463171Y-100907886D01*
X77433744Y-100936832D01*
X77398838Y-100971376D01*
X77358071Y-101011891D01*
X77311059Y-101058749D01*
X77257421Y-101112321D01*
X77236193Y-101133544D01*
X76927143Y-101442595D01*
X76725985Y-101442595D01*
X77084685Y-101083895D01*
X76502764Y-100501974D01*
X76553694Y-100451045D01*
X76603343Y-100401396D01*
X77185264Y-100983316D01*
G37*
X77185264Y-100983316D02*
X77393606Y-100774974D01*
X77441752Y-100726918D01*
X77483091Y-100685862D01*
X77517910Y-100651527D01*
X77546496Y-100623636D01*
X77569136Y-100601915D01*
X77586115Y-100586087D01*
X77597722Y-100575876D01*
X77604242Y-100571006D01*
X77605896Y-100570581D01*
X77607990Y-100575796D01*
X77613140Y-100590058D01*
X77621146Y-100612784D01*
X77631809Y-100643395D01*
X77644930Y-100681311D01*
X77660309Y-100725953D01*
X77677747Y-100776738D01*
X77697046Y-100833091D01*
X77718006Y-100894426D01*
X77740428Y-100960169D01*
X77764113Y-101029736D01*
X77788862Y-101102549D01*
X77814476Y-101178028D01*
X77814773Y-101178907D01*
X77840394Y-101254453D01*
X77865131Y-101327374D01*
X77888788Y-101397087D01*
X77911167Y-101463007D01*
X77932067Y-101524554D01*
X77951295Y-101581144D01*
X77968650Y-101632195D01*
X77983932Y-101677124D01*
X77996946Y-101715347D01*
X78007494Y-101746284D01*
X78015375Y-101769349D01*
X78020394Y-101783963D01*
X78022352Y-101789541D01*
X78022354Y-101789547D01*
X78024377Y-101789585D01*
X78029452Y-101786285D01*
X78038059Y-101779195D01*
X78050682Y-101767857D01*
X78067802Y-101751815D01*
X78089903Y-101730616D01*
X78117467Y-101703805D01*
X78150976Y-101670925D01*
X78190912Y-101631522D01*
X78213996Y-101608681D01*
X78402986Y-101421553D01*
X78499973Y-101518539D01*
X78306031Y-101714339D01*
X78112088Y-101910139D01*
X78758604Y-102556657D01*
X78658026Y-102657236D01*
X78011447Y-102010657D01*
X77623500Y-102398604D01*
X77522921Y-102298026D01*
X77709711Y-102111236D01*
X77745535Y-102075312D01*
X77779001Y-102041557D01*
X77809450Y-102010650D01*
X77836228Y-101983265D01*
X77858676Y-101960080D01*
X77876138Y-101941771D01*
X77887955Y-101929013D01*
X77893471Y-101922485D01*
X77893780Y-101921779D01*
X77888710Y-101919835D01*
X77874616Y-101914838D01*
X77852094Y-101906994D01*
X77821743Y-101896508D01*
X77784161Y-101883583D01*
X77739947Y-101868424D01*
X77689699Y-101851237D01*
X77634014Y-101832225D01*
X77573491Y-101811595D01*
X77508730Y-101789549D01*
X77440326Y-101766295D01*
X77368879Y-101742034D01*
X77325863Y-101727441D01*
X76760667Y-101535772D01*
X76696738Y-101471842D01*
X76725985Y-101442595D01*
X76927143Y-101442595D01*
X77137490Y-101514227D01*
X77187127Y-101531125D01*
X77244220Y-101550549D01*
X77306604Y-101571764D01*
X77372112Y-101594034D01*
X77438578Y-101616622D01*
X77503836Y-101638792D01*
X77565720Y-101659807D01*
X77604806Y-101673075D01*
X77653495Y-101689552D01*
X77699161Y-101704913D01*
X77740923Y-101718868D01*
X77777904Y-101731127D01*
X77809224Y-101741402D01*
X77834004Y-101749403D01*
X77851364Y-101754842D01*
X77860425Y-101757428D01*
X77861569Y-101757563D01*
X77859954Y-101752520D01*
X77855346Y-101738660D01*
X77848017Y-101716786D01*
X77838240Y-101687705D01*
X77826287Y-101652219D01*
X77812431Y-101611134D01*
X77796941Y-101565252D01*
X77780093Y-101515379D01*
X77762159Y-101462318D01*
X77743408Y-101406874D01*
X77724116Y-101349851D01*
X77704553Y-101292053D01*
X77684992Y-101234285D01*
X77665705Y-101177350D01*
X77646965Y-101122053D01*
X77629042Y-101069198D01*
X77612211Y-101019590D01*
X77596743Y-100974032D01*
X77582911Y-100933328D01*
X77570985Y-100898283D01*
X77561240Y-100869700D01*
X77553947Y-100848385D01*
X77549378Y-100835143D01*
X77547853Y-100830865D01*
X77546075Y-100831010D01*
X77541495Y-100834157D01*
X77533729Y-100840675D01*
X77522397Y-100850936D01*
X77507115Y-100865310D01*
X77487499Y-100884170D01*
X77463171Y-100907886D01*
X77433744Y-100936832D01*
X77398838Y-100971376D01*
X77358071Y-101011891D01*
X77311059Y-101058749D01*
X77257421Y-101112321D01*
X77236193Y-101133544D01*
X76927143Y-101442595D01*
X76725985Y-101442595D01*
X77084685Y-101083895D01*
X76502764Y-100501974D01*
X76553694Y-100451045D01*
X76603343Y-100401396D01*
X77185264Y-100983316D01*
D10*
%TO.C,C5*%
X99577836Y-89590000D02*
X99362164Y-89590000D01*
X99577836Y-88870000D02*
X99362164Y-88870000D01*
D19*
%TO.C,L2*%
X115839010Y-81168263D02*
X115855185Y-81176664D01*
X115855185Y-81176664D02*
X115881030Y-81190411D01*
X115881030Y-81190411D02*
X115915822Y-81209109D01*
X115915822Y-81209109D02*
X115958835Y-81232363D01*
X115958835Y-81232363D02*
X116009345Y-81259781D01*
X116009345Y-81259781D02*
X116066627Y-81290968D01*
X116066627Y-81290968D02*
X116129957Y-81325529D01*
X116129957Y-81325529D02*
X116198608Y-81363071D01*
X116198608Y-81363071D02*
X116271857Y-81403200D01*
X116271857Y-81403200D02*
X116348979Y-81445521D01*
X116348979Y-81445521D02*
X116428759Y-81489372D01*
X116428759Y-81489372D02*
X116529392Y-81544729D01*
X116529392Y-81544729D02*
X116639281Y-81605181D01*
X116639281Y-81605181D02*
X116758554Y-81670796D01*
X116758554Y-81670796D02*
X116887336Y-81741644D01*
X116887336Y-81741644D02*
X117025753Y-81817795D01*
X117025753Y-81817795D02*
X117173933Y-81899318D01*
X117173933Y-81899318D02*
X117332000Y-81986283D01*
X117332000Y-81986283D02*
X117500082Y-82078759D01*
X117500082Y-82078759D02*
X117678304Y-82176815D01*
X117678304Y-82176815D02*
X117866793Y-82280521D01*
X117866793Y-82280521D02*
X118065675Y-82389947D01*
X118065675Y-82389947D02*
X118275076Y-82505162D01*
X118275076Y-82505162D02*
X118495123Y-82626235D01*
X118495123Y-82626235D02*
X118725942Y-82753236D01*
X118725942Y-82753236D02*
X118967659Y-82886234D01*
X118967659Y-82886234D02*
X119171300Y-82998282D01*
X119171300Y-82998282D02*
X119229354Y-83030237D01*
X119229354Y-83030237D02*
X119283995Y-83060337D01*
X119283995Y-83060337D02*
X119334224Y-83088029D01*
X119334224Y-83088029D02*
X119379044Y-83112762D01*
X119379044Y-83112762D02*
X119417454Y-83133986D01*
X119417454Y-83133986D02*
X119448457Y-83151146D01*
X119448457Y-83151146D02*
X119471054Y-83163694D01*
X119471054Y-83163694D02*
X119484247Y-83171076D01*
X119484247Y-83171076D02*
X119487364Y-83172885D01*
X119487364Y-83172885D02*
X119482118Y-83176085D01*
X119482118Y-83176085D02*
X119466379Y-83185044D01*
X119466379Y-83185044D02*
X119440788Y-83199410D01*
X119440788Y-83199410D02*
X119405983Y-83218827D01*
X119405983Y-83218827D02*
X119362605Y-83242942D01*
X119362605Y-83242942D02*
X119311293Y-83271401D01*
X119311293Y-83271401D02*
X119252686Y-83303850D01*
X119252686Y-83303850D02*
X119187424Y-83339935D01*
X119187424Y-83339935D02*
X119116146Y-83379303D01*
X119116146Y-83379303D02*
X119039492Y-83421598D01*
X119039492Y-83421598D02*
X118958102Y-83466468D01*
X118958102Y-83466468D02*
X118872614Y-83513558D01*
X118872614Y-83513558D02*
X118783669Y-83562514D01*
X118783669Y-83562514D02*
X118738064Y-83587601D01*
X118738064Y-83587601D02*
X118609732Y-83658185D01*
X118609732Y-83658185D02*
X118474123Y-83732774D01*
X118474123Y-83732774D02*
X118332305Y-83810781D01*
X118332305Y-83810781D02*
X118185347Y-83891619D01*
X118185347Y-83891619D02*
X118034316Y-83974701D01*
X118034316Y-83974701D02*
X117880281Y-84059438D01*
X117880281Y-84059438D02*
X117724308Y-84145243D01*
X117724308Y-84145243D02*
X117567466Y-84231529D01*
X117567466Y-84231529D02*
X117410823Y-84317709D01*
X117410823Y-84317709D02*
X117255446Y-84403193D01*
X117255446Y-84403193D02*
X117102404Y-84487397D01*
X117102404Y-84487397D02*
X116952764Y-84569730D01*
X116952764Y-84569730D02*
X116807595Y-84649607D01*
X116807595Y-84649607D02*
X116667963Y-84726440D01*
X116667963Y-84726440D02*
X116534937Y-84799640D01*
X116534937Y-84799640D02*
X116409585Y-84868622D01*
X116409585Y-84868622D02*
X116292974Y-84932796D01*
X116292974Y-84932796D02*
X116186173Y-84991576D01*
X116186173Y-84991576D02*
X116162621Y-85004539D01*
X116162621Y-85004539D02*
X116103587Y-85036994D01*
X116103587Y-85036994D02*
X116047882Y-85067547D01*
X116047882Y-85067547D02*
X115996497Y-85095658D01*
X115996497Y-85095658D02*
X115950424Y-85120789D01*
X115950424Y-85120789D02*
X115910653Y-85142402D01*
X115910653Y-85142402D02*
X115878175Y-85159957D01*
X115878175Y-85159957D02*
X115853982Y-85172915D01*
X115853982Y-85172915D02*
X115839064Y-85180739D01*
X115839064Y-85180739D02*
X115834410Y-85182950D01*
X115834410Y-85182950D02*
X115832895Y-85177861D01*
X115832895Y-85177861D02*
X115834808Y-85168662D01*
X115834808Y-85168662D02*
X115837805Y-85159329D01*
X115837805Y-85159329D02*
X115844243Y-85139465D01*
X115844243Y-85139465D02*
X115853620Y-85110609D01*
X115853620Y-85110609D02*
X115865435Y-85074302D01*
X115865435Y-85074302D02*
X115879186Y-85032086D01*
X115879186Y-85032086D02*
X115894373Y-84985500D01*
X115894373Y-84985500D02*
X115904534Y-84954350D01*
X115904534Y-84954350D02*
X115927236Y-84884745D01*
X115927236Y-84884745D02*
X115953146Y-84805263D01*
X115953146Y-84805263D02*
X115981723Y-84717566D01*
X115981723Y-84717566D02*
X116012425Y-84623320D01*
X116012425Y-84623320D02*
X116044711Y-84524187D01*
X116044711Y-84524187D02*
X116078038Y-84421832D01*
X116078038Y-84421832D02*
X116111865Y-84317920D01*
X116111865Y-84317920D02*
X116145651Y-84214113D01*
X116145651Y-84214113D02*
X116178854Y-84112076D01*
X116178854Y-84112076D02*
X116210932Y-84013472D01*
X116210932Y-84013472D02*
X116241344Y-83919967D01*
X116241344Y-83919967D02*
X116269548Y-83833223D01*
X116269548Y-83833223D02*
X116295002Y-83754904D01*
X116295002Y-83754904D02*
X116317165Y-83686676D01*
X116317165Y-83686676D02*
X116321013Y-83674825D01*
X116321013Y-83674825D02*
X116340608Y-83614530D01*
X116340608Y-83614530D02*
X116360675Y-83552883D01*
X116360675Y-83552883D02*
X116380498Y-83492080D01*
X116380498Y-83492080D02*
X116399360Y-83434316D01*
X116399360Y-83434316D02*
X116416543Y-83381788D01*
X116416543Y-83381788D02*
X116431331Y-83336693D01*
X116431331Y-83336693D02*
X116443005Y-83301226D01*
X116443005Y-83301226D02*
X116444136Y-83297802D01*
X116444136Y-83297802D02*
X116484792Y-83174780D01*
X116484792Y-83174780D02*
X116395606Y-82900927D01*
X116395606Y-82900927D02*
X116379730Y-82852177D01*
X116379730Y-82852177D02*
X116360410Y-82792847D01*
X116360410Y-82792847D02*
X116338134Y-82724436D01*
X116338134Y-82724436D02*
X116313390Y-82648440D01*
X116313390Y-82648440D02*
X116286663Y-82566356D01*
X116286663Y-82566356D02*
X116258443Y-82479682D01*
X116258443Y-82479682D02*
X116229217Y-82389915D01*
X116229217Y-82389915D02*
X116199471Y-82298551D01*
X116199471Y-82298551D02*
X116169694Y-82207089D01*
X116169694Y-82207089D02*
X116140373Y-82117025D01*
X116140373Y-82117025D02*
X116125535Y-82071450D01*
X116125535Y-82071450D02*
X116097646Y-81985792D01*
X116097646Y-81985792D02*
X116069767Y-81900189D01*
X116069767Y-81900189D02*
X116042300Y-81815875D01*
X116042300Y-81815875D02*
X116015649Y-81734082D01*
X116015649Y-81734082D02*
X115990214Y-81656042D01*
X115990214Y-81656042D02*
X115966397Y-81582989D01*
X115966397Y-81582989D02*
X115944601Y-81516156D01*
X115944601Y-81516156D02*
X115925227Y-81456775D01*
X115925227Y-81456775D02*
X115908677Y-81406079D01*
X115908677Y-81406079D02*
X115895353Y-81365301D01*
X115895353Y-81365301D02*
X115887711Y-81341943D01*
X115887711Y-81341943D02*
X115873237Y-81297411D01*
X115873237Y-81297411D02*
X115860288Y-81256925D01*
X115860288Y-81256925D02*
X115849335Y-81222018D01*
X115849335Y-81222018D02*
X115840852Y-81194219D01*
X115840852Y-81194219D02*
X115835312Y-81175059D01*
X115835312Y-81175059D02*
X115833187Y-81166069D01*
X115833187Y-81166069D02*
X115833232Y-81165600D01*
X115833232Y-81165600D02*
X115839010Y-81168263D01*
X115839010Y-81168263D02*
X115839010Y-81168263D01*
G36*
X115839010Y-81168263D02*
G01*
X115855185Y-81176664D01*
X115881030Y-81190411D01*
X115915822Y-81209109D01*
X115958835Y-81232363D01*
X116009345Y-81259781D01*
X116066627Y-81290968D01*
X116129957Y-81325529D01*
X116198608Y-81363071D01*
X116271857Y-81403200D01*
X116348979Y-81445521D01*
X116428759Y-81489372D01*
X116529392Y-81544729D01*
X116639281Y-81605181D01*
X116758554Y-81670796D01*
X116887336Y-81741644D01*
X117025753Y-81817795D01*
X117173933Y-81899318D01*
X117332000Y-81986283D01*
X117500082Y-82078759D01*
X117678304Y-82176815D01*
X117866793Y-82280521D01*
X118065675Y-82389947D01*
X118275076Y-82505162D01*
X118495123Y-82626235D01*
X118725942Y-82753236D01*
X118967659Y-82886234D01*
X119171300Y-82998282D01*
X119229354Y-83030237D01*
X119283995Y-83060337D01*
X119334224Y-83088029D01*
X119379044Y-83112762D01*
X119417454Y-83133986D01*
X119448457Y-83151146D01*
X119471054Y-83163694D01*
X119484247Y-83171076D01*
X119487364Y-83172885D01*
X119482118Y-83176085D01*
X119466379Y-83185044D01*
X119440788Y-83199410D01*
X119405983Y-83218827D01*
X119362605Y-83242942D01*
X119311293Y-83271401D01*
X119252686Y-83303850D01*
X119187424Y-83339935D01*
X119116146Y-83379303D01*
X119039492Y-83421598D01*
X118958102Y-83466468D01*
X118872614Y-83513558D01*
X118783669Y-83562514D01*
X118738064Y-83587601D01*
X118609732Y-83658185D01*
X118474123Y-83732774D01*
X118332305Y-83810781D01*
X118185347Y-83891619D01*
X118034316Y-83974701D01*
X117880281Y-84059438D01*
X117724308Y-84145243D01*
X117567466Y-84231529D01*
X117410823Y-84317709D01*
X117255446Y-84403193D01*
X117102404Y-84487397D01*
X116952764Y-84569730D01*
X116807595Y-84649607D01*
X116667963Y-84726440D01*
X116534937Y-84799640D01*
X116409585Y-84868622D01*
X116292974Y-84932796D01*
X116186173Y-84991576D01*
X116162621Y-85004539D01*
X116103587Y-85036994D01*
X116047882Y-85067547D01*
X115996497Y-85095658D01*
X115950424Y-85120789D01*
X115910653Y-85142402D01*
X115878175Y-85159957D01*
X115853982Y-85172915D01*
X115839064Y-85180739D01*
X115834410Y-85182950D01*
X115832895Y-85177861D01*
X115834808Y-85168662D01*
X115837805Y-85159329D01*
X115844243Y-85139465D01*
X115853620Y-85110609D01*
X115865435Y-85074302D01*
X115879186Y-85032086D01*
X115894373Y-84985500D01*
X115904534Y-84954350D01*
X115927236Y-84884745D01*
X115953146Y-84805263D01*
X115981723Y-84717566D01*
X116012425Y-84623320D01*
X116044711Y-84524187D01*
X116078038Y-84421832D01*
X116111865Y-84317920D01*
X116145651Y-84214113D01*
X116178854Y-84112076D01*
X116210932Y-84013472D01*
X116241344Y-83919967D01*
X116269548Y-83833223D01*
X116295002Y-83754904D01*
X116317165Y-83686676D01*
X116321013Y-83674825D01*
X116340608Y-83614530D01*
X116360675Y-83552883D01*
X116380498Y-83492080D01*
X116399360Y-83434316D01*
X116416543Y-83381788D01*
X116431331Y-83336693D01*
X116443005Y-83301226D01*
X116444136Y-83297802D01*
X116484792Y-83174780D01*
X116395606Y-82900927D01*
X116379730Y-82852177D01*
X116360410Y-82792847D01*
X116338134Y-82724436D01*
X116313390Y-82648440D01*
X116286663Y-82566356D01*
X116258443Y-82479682D01*
X116229217Y-82389915D01*
X116199471Y-82298551D01*
X116169694Y-82207089D01*
X116140373Y-82117025D01*
X116125535Y-82071450D01*
X116097646Y-81985792D01*
X116069767Y-81900189D01*
X116042300Y-81815875D01*
X116015649Y-81734082D01*
X115990214Y-81656042D01*
X115966397Y-81582989D01*
X115944601Y-81516156D01*
X115925227Y-81456775D01*
X115908677Y-81406079D01*
X115895353Y-81365301D01*
X115887711Y-81341943D01*
X115873237Y-81297411D01*
X115860288Y-81256925D01*
X115849335Y-81222018D01*
X115840852Y-81194219D01*
X115835312Y-81175059D01*
X115833187Y-81166069D01*
X115833232Y-81165600D01*
X115839010Y-81168263D01*
G37*
X115839010Y-81168263D02*
X115855185Y-81176664D01*
X115881030Y-81190411D01*
X115915822Y-81209109D01*
X115958835Y-81232363D01*
X116009345Y-81259781D01*
X116066627Y-81290968D01*
X116129957Y-81325529D01*
X116198608Y-81363071D01*
X116271857Y-81403200D01*
X116348979Y-81445521D01*
X116428759Y-81489372D01*
X116529392Y-81544729D01*
X116639281Y-81605181D01*
X116758554Y-81670796D01*
X116887336Y-81741644D01*
X117025753Y-81817795D01*
X117173933Y-81899318D01*
X117332000Y-81986283D01*
X117500082Y-82078759D01*
X117678304Y-82176815D01*
X117866793Y-82280521D01*
X118065675Y-82389947D01*
X118275076Y-82505162D01*
X118495123Y-82626235D01*
X118725942Y-82753236D01*
X118967659Y-82886234D01*
X119171300Y-82998282D01*
X119229354Y-83030237D01*
X119283995Y-83060337D01*
X119334224Y-83088029D01*
X119379044Y-83112762D01*
X119417454Y-83133986D01*
X119448457Y-83151146D01*
X119471054Y-83163694D01*
X119484247Y-83171076D01*
X119487364Y-83172885D01*
X119482118Y-83176085D01*
X119466379Y-83185044D01*
X119440788Y-83199410D01*
X119405983Y-83218827D01*
X119362605Y-83242942D01*
X119311293Y-83271401D01*
X119252686Y-83303850D01*
X119187424Y-83339935D01*
X119116146Y-83379303D01*
X119039492Y-83421598D01*
X118958102Y-83466468D01*
X118872614Y-83513558D01*
X118783669Y-83562514D01*
X118738064Y-83587601D01*
X118609732Y-83658185D01*
X118474123Y-83732774D01*
X118332305Y-83810781D01*
X118185347Y-83891619D01*
X118034316Y-83974701D01*
X117880281Y-84059438D01*
X117724308Y-84145243D01*
X117567466Y-84231529D01*
X117410823Y-84317709D01*
X117255446Y-84403193D01*
X117102404Y-84487397D01*
X116952764Y-84569730D01*
X116807595Y-84649607D01*
X116667963Y-84726440D01*
X116534937Y-84799640D01*
X116409585Y-84868622D01*
X116292974Y-84932796D01*
X116186173Y-84991576D01*
X116162621Y-85004539D01*
X116103587Y-85036994D01*
X116047882Y-85067547D01*
X115996497Y-85095658D01*
X115950424Y-85120789D01*
X115910653Y-85142402D01*
X115878175Y-85159957D01*
X115853982Y-85172915D01*
X115839064Y-85180739D01*
X115834410Y-85182950D01*
X115832895Y-85177861D01*
X115834808Y-85168662D01*
X115837805Y-85159329D01*
X115844243Y-85139465D01*
X115853620Y-85110609D01*
X115865435Y-85074302D01*
X115879186Y-85032086D01*
X115894373Y-84985500D01*
X115904534Y-84954350D01*
X115927236Y-84884745D01*
X115953146Y-84805263D01*
X115981723Y-84717566D01*
X116012425Y-84623320D01*
X116044711Y-84524187D01*
X116078038Y-84421832D01*
X116111865Y-84317920D01*
X116145651Y-84214113D01*
X116178854Y-84112076D01*
X116210932Y-84013472D01*
X116241344Y-83919967D01*
X116269548Y-83833223D01*
X116295002Y-83754904D01*
X116317165Y-83686676D01*
X116321013Y-83674825D01*
X116340608Y-83614530D01*
X116360675Y-83552883D01*
X116380498Y-83492080D01*
X116399360Y-83434316D01*
X116416543Y-83381788D01*
X116431331Y-83336693D01*
X116443005Y-83301226D01*
X116444136Y-83297802D01*
X116484792Y-83174780D01*
X116395606Y-82900927D01*
X116379730Y-82852177D01*
X116360410Y-82792847D01*
X116338134Y-82724436D01*
X116313390Y-82648440D01*
X116286663Y-82566356D01*
X116258443Y-82479682D01*
X116229217Y-82389915D01*
X116199471Y-82298551D01*
X116169694Y-82207089D01*
X116140373Y-82117025D01*
X116125535Y-82071450D01*
X116097646Y-81985792D01*
X116069767Y-81900189D01*
X116042300Y-81815875D01*
X116015649Y-81734082D01*
X115990214Y-81656042D01*
X115966397Y-81582989D01*
X115944601Y-81516156D01*
X115925227Y-81456775D01*
X115908677Y-81406079D01*
X115895353Y-81365301D01*
X115887711Y-81341943D01*
X115873237Y-81297411D01*
X115860288Y-81256925D01*
X115849335Y-81222018D01*
X115840852Y-81194219D01*
X115835312Y-81175059D01*
X115833187Y-81166069D01*
X115833232Y-81165600D01*
X115839010Y-81168263D01*
%TO.C,L3*%
X77129513Y-79884744D02*
X77124989Y-79881505D01*
X77124989Y-79881505D02*
X77114200Y-79872511D01*
X77114200Y-79872511D02*
X77098358Y-79858849D01*
X77098358Y-79858849D02*
X77078679Y-79841609D01*
X77078679Y-79841609D02*
X77056375Y-79821875D01*
X77056375Y-79821875D02*
X77032662Y-79800737D01*
X77032662Y-79800737D02*
X77008750Y-79779280D01*
X77008750Y-79779280D02*
X76985857Y-79758593D01*
X76985857Y-79758593D02*
X76965195Y-79739763D01*
X76965195Y-79739763D02*
X76947978Y-79723876D01*
X76947978Y-79723876D02*
X76935419Y-79712020D01*
X76935419Y-79712020D02*
X76928733Y-79705284D01*
X76928733Y-79705284D02*
X76927964Y-79704208D01*
X76927964Y-79704208D02*
X76932465Y-79701210D01*
X76932465Y-79701210D02*
X76944591Y-79696004D01*
X76944591Y-79696004D02*
X76962274Y-79689426D01*
X76962274Y-79689426D02*
X76975683Y-79684842D01*
X76975683Y-79684842D02*
X77023402Y-79669041D01*
X77023402Y-79669041D02*
X76983221Y-79552032D01*
X76983221Y-79552032D02*
X76972207Y-79519494D01*
X76972207Y-79519494D02*
X76962600Y-79490207D01*
X76962600Y-79490207D02*
X76954812Y-79465516D01*
X76954812Y-79465516D02*
X76949262Y-79446759D01*
X76949262Y-79446759D02*
X76946361Y-79435274D01*
X76946361Y-79435274D02*
X76946152Y-79432257D01*
X76946152Y-79432257D02*
X76952280Y-79429389D01*
X76952280Y-79429389D02*
X76965222Y-79424618D01*
X76965222Y-79424618D02*
X76980766Y-79419437D01*
X76980766Y-79419437D02*
X77012267Y-79409382D01*
X77012267Y-79409382D02*
X77049222Y-79525609D01*
X77049222Y-79525609D02*
X77059689Y-79558249D01*
X77059689Y-79558249D02*
X77069281Y-79587621D01*
X77069281Y-79587621D02*
X77077535Y-79612351D01*
X77077535Y-79612351D02*
X77083985Y-79631062D01*
X77083985Y-79631062D02*
X77088170Y-79642378D01*
X77088170Y-79642378D02*
X77089477Y-79645140D01*
X77089477Y-79645140D02*
X77095379Y-79645008D01*
X77095379Y-79645008D02*
X77108653Y-79642013D01*
X77108653Y-79642013D02*
X77127103Y-79636706D01*
X77127103Y-79636706D02*
X77141355Y-79632103D01*
X77141355Y-79632103D02*
X77189932Y-79615764D01*
X77189932Y-79615764D02*
X77160863Y-79750254D01*
X77160863Y-79750254D02*
X77153132Y-79785648D01*
X77153132Y-79785648D02*
X77146009Y-79817555D01*
X77146009Y-79817555D02*
X77139790Y-79844696D01*
X77139790Y-79844696D02*
X77134774Y-79865792D01*
X77134774Y-79865792D02*
X77131259Y-79879564D01*
X77131259Y-79879564D02*
X77129543Y-79884734D01*
X77129543Y-79884734D02*
X77129513Y-79884744D01*
X77129513Y-79884744D02*
X77129513Y-79884744D01*
G36*
X77049222Y-79525609D02*
G01*
X77059689Y-79558249D01*
X77069281Y-79587621D01*
X77077535Y-79612351D01*
X77083985Y-79631062D01*
X77088170Y-79642378D01*
X77089477Y-79645140D01*
X77095379Y-79645008D01*
X77108653Y-79642013D01*
X77127103Y-79636706D01*
X77141355Y-79632103D01*
X77189932Y-79615764D01*
X77160863Y-79750254D01*
X77153132Y-79785648D01*
X77146009Y-79817555D01*
X77139790Y-79844696D01*
X77134774Y-79865792D01*
X77131259Y-79879564D01*
X77129543Y-79884734D01*
X77129513Y-79884744D01*
X77124989Y-79881505D01*
X77114200Y-79872511D01*
X77098358Y-79858849D01*
X77078679Y-79841609D01*
X77056375Y-79821875D01*
X77032662Y-79800737D01*
X77008750Y-79779280D01*
X76985857Y-79758593D01*
X76965195Y-79739763D01*
X76947978Y-79723876D01*
X76935419Y-79712020D01*
X76928733Y-79705284D01*
X76927964Y-79704208D01*
X76932465Y-79701210D01*
X76944591Y-79696004D01*
X76962274Y-79689426D01*
X76975683Y-79684842D01*
X77023402Y-79669041D01*
X76983221Y-79552032D01*
X76972207Y-79519494D01*
X76962600Y-79490207D01*
X76954812Y-79465516D01*
X76949262Y-79446759D01*
X76946361Y-79435274D01*
X76946152Y-79432257D01*
X76952280Y-79429389D01*
X76965222Y-79424618D01*
X76980766Y-79419437D01*
X77012267Y-79409382D01*
X77049222Y-79525609D01*
G37*
X77049222Y-79525609D02*
X77059689Y-79558249D01*
X77069281Y-79587621D01*
X77077535Y-79612351D01*
X77083985Y-79631062D01*
X77088170Y-79642378D01*
X77089477Y-79645140D01*
X77095379Y-79645008D01*
X77108653Y-79642013D01*
X77127103Y-79636706D01*
X77141355Y-79632103D01*
X77189932Y-79615764D01*
X77160863Y-79750254D01*
X77153132Y-79785648D01*
X77146009Y-79817555D01*
X77139790Y-79844696D01*
X77134774Y-79865792D01*
X77131259Y-79879564D01*
X77129543Y-79884734D01*
X77129513Y-79884744D01*
X77124989Y-79881505D01*
X77114200Y-79872511D01*
X77098358Y-79858849D01*
X77078679Y-79841609D01*
X77056375Y-79821875D01*
X77032662Y-79800737D01*
X77008750Y-79779280D01*
X76985857Y-79758593D01*
X76965195Y-79739763D01*
X76947978Y-79723876D01*
X76935419Y-79712020D01*
X76928733Y-79705284D01*
X76927964Y-79704208D01*
X76932465Y-79701210D01*
X76944591Y-79696004D01*
X76962274Y-79689426D01*
X76975683Y-79684842D01*
X77023402Y-79669041D01*
X76983221Y-79552032D01*
X76972207Y-79519494D01*
X76962600Y-79490207D01*
X76954812Y-79465516D01*
X76949262Y-79446759D01*
X76946361Y-79435274D01*
X76946152Y-79432257D01*
X76952280Y-79429389D01*
X76965222Y-79424618D01*
X76980766Y-79419437D01*
X77012267Y-79409382D01*
X77049222Y-79525609D01*
X77483194Y-79766519D02*
X77472557Y-79757409D01*
X77472557Y-79757409D02*
X77456867Y-79743559D01*
X77456867Y-79743559D02*
X77437316Y-79726056D01*
X77437316Y-79726056D02*
X77415099Y-79705993D01*
X77415099Y-79705993D02*
X77391408Y-79684456D01*
X77391408Y-79684456D02*
X77367437Y-79662536D01*
X77367437Y-79662536D02*
X77344376Y-79641323D01*
X77344376Y-79641323D02*
X77323421Y-79621905D01*
X77323421Y-79621905D02*
X77305765Y-79605373D01*
X77305765Y-79605373D02*
X77292599Y-79592816D01*
X77292599Y-79592816D02*
X77285117Y-79585324D01*
X77285117Y-79585324D02*
X77283853Y-79583734D01*
X77283853Y-79583734D02*
X77288268Y-79581407D01*
X77288268Y-79581407D02*
X77300363Y-79577037D01*
X77300363Y-79577037D02*
X77318044Y-79571351D01*
X77318044Y-79571351D02*
X77330533Y-79567587D01*
X77330533Y-79567587D02*
X77350774Y-79561537D01*
X77350774Y-79561537D02*
X77366924Y-79556542D01*
X77366924Y-79556542D02*
X77376795Y-79553286D01*
X77376795Y-79553286D02*
X77378793Y-79552455D01*
X77378793Y-79552455D02*
X77377610Y-79547487D01*
X77377610Y-79547487D02*
X77373597Y-79534213D01*
X77373597Y-79534213D02*
X77367173Y-79513950D01*
X77367173Y-79513950D02*
X77358763Y-79488016D01*
X77358763Y-79488016D02*
X77348785Y-79457730D01*
X77348785Y-79457730D02*
X77340456Y-79432738D01*
X77340456Y-79432738D02*
X77329604Y-79400017D01*
X77329604Y-79400017D02*
X77320047Y-79370626D01*
X77320047Y-79370626D02*
X77312204Y-79345888D01*
X77312204Y-79345888D02*
X77306486Y-79327124D01*
X77306486Y-79327124D02*
X77303310Y-79315657D01*
X77303310Y-79315657D02*
X77302847Y-79312641D01*
X77302847Y-79312641D02*
X77308379Y-79310341D01*
X77308379Y-79310341D02*
X77320829Y-79305993D01*
X77320829Y-79305993D02*
X77336197Y-79300959D01*
X77336197Y-79300959D02*
X77352531Y-79296128D01*
X77352531Y-79296128D02*
X77364580Y-79293280D01*
X77364580Y-79293280D02*
X77369547Y-79293000D01*
X77369547Y-79293000D02*
X77371626Y-79298200D01*
X77371626Y-79298200D02*
X77376369Y-79311710D01*
X77376369Y-79311710D02*
X77383315Y-79332164D01*
X77383315Y-79332164D02*
X77392005Y-79358203D01*
X77392005Y-79358203D02*
X77401981Y-79388464D01*
X77401981Y-79388464D02*
X77408872Y-79409555D01*
X77408872Y-79409555D02*
X77419402Y-79441872D01*
X77419402Y-79441872D02*
X77428874Y-79470911D01*
X77428874Y-79470911D02*
X77436838Y-79495295D01*
X77436838Y-79495295D02*
X77442846Y-79513649D01*
X77442846Y-79513649D02*
X77446448Y-79524598D01*
X77446448Y-79524598D02*
X77447283Y-79527083D01*
X77447283Y-79527083D02*
X77452222Y-79526814D01*
X77452222Y-79526814D02*
X77464647Y-79523690D01*
X77464647Y-79523690D02*
X77482479Y-79518282D01*
X77482479Y-79518282D02*
X77496646Y-79513584D01*
X77496646Y-79513584D02*
X77517062Y-79506856D01*
X77517062Y-79506856D02*
X77533564Y-79501903D01*
X77533564Y-79501903D02*
X77544035Y-79499335D01*
X77544035Y-79499335D02*
X77546625Y-79499252D01*
X77546625Y-79499252D02*
X77546212Y-79504742D01*
X77546212Y-79504742D02*
X77543863Y-79518494D01*
X77543863Y-79518494D02*
X77539916Y-79538950D01*
X77539916Y-79538950D02*
X77534712Y-79564552D01*
X77534712Y-79564552D02*
X77528590Y-79593740D01*
X77528590Y-79593740D02*
X77521891Y-79624955D01*
X77521891Y-79624955D02*
X77514957Y-79656640D01*
X77514957Y-79656640D02*
X77508125Y-79687234D01*
X77508125Y-79687234D02*
X77501736Y-79715179D01*
X77501736Y-79715179D02*
X77496131Y-79738917D01*
X77496131Y-79738917D02*
X77491649Y-79756889D01*
X77491649Y-79756889D02*
X77488633Y-79767537D01*
X77488633Y-79767537D02*
X77487585Y-79769797D01*
X77487585Y-79769797D02*
X77483194Y-79766519D01*
X77483194Y-79766519D02*
X77483194Y-79766519D01*
G36*
X77371626Y-79298200D02*
G01*
X77376369Y-79311710D01*
X77383315Y-79332164D01*
X77392005Y-79358203D01*
X77401981Y-79388464D01*
X77408872Y-79409555D01*
X77419402Y-79441872D01*
X77428874Y-79470911D01*
X77436838Y-79495295D01*
X77442846Y-79513649D01*
X77446448Y-79524598D01*
X77447283Y-79527083D01*
X77452222Y-79526814D01*
X77464647Y-79523690D01*
X77482479Y-79518282D01*
X77496646Y-79513584D01*
X77517062Y-79506856D01*
X77533564Y-79501903D01*
X77544035Y-79499335D01*
X77546625Y-79499252D01*
X77546212Y-79504742D01*
X77543863Y-79518494D01*
X77539916Y-79538950D01*
X77534712Y-79564552D01*
X77528590Y-79593740D01*
X77521891Y-79624955D01*
X77514957Y-79656640D01*
X77508125Y-79687234D01*
X77501736Y-79715179D01*
X77496131Y-79738917D01*
X77491649Y-79756889D01*
X77488633Y-79767537D01*
X77487585Y-79769797D01*
X77483194Y-79766519D01*
X77472557Y-79757409D01*
X77456867Y-79743559D01*
X77437316Y-79726056D01*
X77415099Y-79705993D01*
X77391408Y-79684456D01*
X77367437Y-79662536D01*
X77344376Y-79641323D01*
X77323421Y-79621905D01*
X77305765Y-79605373D01*
X77292599Y-79592816D01*
X77285117Y-79585324D01*
X77283853Y-79583734D01*
X77288268Y-79581407D01*
X77300363Y-79577037D01*
X77318044Y-79571351D01*
X77330533Y-79567587D01*
X77350774Y-79561537D01*
X77366924Y-79556542D01*
X77376795Y-79553286D01*
X77378793Y-79552455D01*
X77377610Y-79547487D01*
X77373597Y-79534213D01*
X77367173Y-79513950D01*
X77358763Y-79488016D01*
X77348785Y-79457730D01*
X77340456Y-79432738D01*
X77329604Y-79400017D01*
X77320047Y-79370626D01*
X77312204Y-79345888D01*
X77306486Y-79327124D01*
X77303310Y-79315657D01*
X77302847Y-79312641D01*
X77308379Y-79310341D01*
X77320829Y-79305993D01*
X77336197Y-79300959D01*
X77352531Y-79296128D01*
X77364580Y-79293280D01*
X77369547Y-79293000D01*
X77371626Y-79298200D01*
G37*
X77371626Y-79298200D02*
X77376369Y-79311710D01*
X77383315Y-79332164D01*
X77392005Y-79358203D01*
X77401981Y-79388464D01*
X77408872Y-79409555D01*
X77419402Y-79441872D01*
X77428874Y-79470911D01*
X77436838Y-79495295D01*
X77442846Y-79513649D01*
X77446448Y-79524598D01*
X77447283Y-79527083D01*
X77452222Y-79526814D01*
X77464647Y-79523690D01*
X77482479Y-79518282D01*
X77496646Y-79513584D01*
X77517062Y-79506856D01*
X77533564Y-79501903D01*
X77544035Y-79499335D01*
X77546625Y-79499252D01*
X77546212Y-79504742D01*
X77543863Y-79518494D01*
X77539916Y-79538950D01*
X77534712Y-79564552D01*
X77528590Y-79593740D01*
X77521891Y-79624955D01*
X77514957Y-79656640D01*
X77508125Y-79687234D01*
X77501736Y-79715179D01*
X77496131Y-79738917D01*
X77491649Y-79756889D01*
X77488633Y-79767537D01*
X77487585Y-79769797D01*
X77483194Y-79766519D01*
X77472557Y-79757409D01*
X77456867Y-79743559D01*
X77437316Y-79726056D01*
X77415099Y-79705993D01*
X77391408Y-79684456D01*
X77367437Y-79662536D01*
X77344376Y-79641323D01*
X77323421Y-79621905D01*
X77305765Y-79605373D01*
X77292599Y-79592816D01*
X77285117Y-79585324D01*
X77283853Y-79583734D01*
X77288268Y-79581407D01*
X77300363Y-79577037D01*
X77318044Y-79571351D01*
X77330533Y-79567587D01*
X77350774Y-79561537D01*
X77366924Y-79556542D01*
X77376795Y-79553286D01*
X77378793Y-79552455D01*
X77377610Y-79547487D01*
X77373597Y-79534213D01*
X77367173Y-79513950D01*
X77358763Y-79488016D01*
X77348785Y-79457730D01*
X77340456Y-79432738D01*
X77329604Y-79400017D01*
X77320047Y-79370626D01*
X77312204Y-79345888D01*
X77306486Y-79327124D01*
X77303310Y-79315657D01*
X77302847Y-79312641D01*
X77308379Y-79310341D01*
X77320829Y-79305993D01*
X77336197Y-79300959D01*
X77352531Y-79296128D01*
X77364580Y-79293280D01*
X77369547Y-79293000D01*
X77371626Y-79298200D01*
X77735404Y-79070590D02*
X77721142Y-79075740D01*
X77721142Y-79075740D02*
X77698416Y-79083746D01*
X77698416Y-79083746D02*
X77667805Y-79094409D01*
X77667805Y-79094409D02*
X77629889Y-79107530D01*
X77629889Y-79107530D02*
X77585247Y-79122909D01*
X77585247Y-79122909D02*
X77534462Y-79140347D01*
X77534462Y-79140347D02*
X77478109Y-79159646D01*
X77478109Y-79159646D02*
X77416774Y-79180606D01*
X77416774Y-79180606D02*
X77351031Y-79203028D01*
X77351031Y-79203028D02*
X77281464Y-79226713D01*
X77281464Y-79226713D02*
X77208651Y-79251462D01*
X77208651Y-79251462D02*
X77133172Y-79277076D01*
X77133172Y-79277076D02*
X77132293Y-79277373D01*
X77132293Y-79277373D02*
X77056747Y-79302994D01*
X77056747Y-79302994D02*
X76983826Y-79327731D01*
X76983826Y-79327731D02*
X76914113Y-79351388D01*
X76914113Y-79351388D02*
X76848193Y-79373767D01*
X76848193Y-79373767D02*
X76786646Y-79394667D01*
X76786646Y-79394667D02*
X76730056Y-79413895D01*
X76730056Y-79413895D02*
X76679005Y-79431250D01*
X76679005Y-79431250D02*
X76634076Y-79446532D01*
X76634076Y-79446532D02*
X76595853Y-79459546D01*
X76595853Y-79459546D02*
X76564916Y-79470094D01*
X76564916Y-79470094D02*
X76541851Y-79477975D01*
X76541851Y-79477975D02*
X76527237Y-79482994D01*
X76527237Y-79482994D02*
X76521659Y-79484952D01*
X76521659Y-79484952D02*
X76521653Y-79484954D01*
X76521653Y-79484954D02*
X76521615Y-79486977D01*
X76521615Y-79486977D02*
X76524915Y-79492052D01*
X76524915Y-79492052D02*
X76532005Y-79500659D01*
X76532005Y-79500659D02*
X76543343Y-79513282D01*
X76543343Y-79513282D02*
X76559385Y-79530402D01*
X76559385Y-79530402D02*
X76580584Y-79552503D01*
X76580584Y-79552503D02*
X76607395Y-79580067D01*
X76607395Y-79580067D02*
X76640275Y-79613576D01*
X76640275Y-79613576D02*
X76679678Y-79653512D01*
X76679678Y-79653512D02*
X76702519Y-79676596D01*
X76702519Y-79676596D02*
X76889647Y-79865586D01*
X76889647Y-79865586D02*
X76792661Y-79962573D01*
X76792661Y-79962573D02*
X76596861Y-79768631D01*
X76596861Y-79768631D02*
X76401061Y-79574688D01*
X76401061Y-79574688D02*
X76077802Y-79897946D01*
X76077802Y-79897946D02*
X75754543Y-80221204D01*
X75754543Y-80221204D02*
X75653964Y-80120626D01*
X75653964Y-80120626D02*
X76300543Y-79474047D01*
X76300543Y-79474047D02*
X75912596Y-79086100D01*
X75912596Y-79086100D02*
X76013174Y-78985521D01*
X76013174Y-78985521D02*
X76199964Y-79172311D01*
X76199964Y-79172311D02*
X76235888Y-79208135D01*
X76235888Y-79208135D02*
X76269643Y-79241601D01*
X76269643Y-79241601D02*
X76300550Y-79272050D01*
X76300550Y-79272050D02*
X76327935Y-79298828D01*
X76327935Y-79298828D02*
X76351120Y-79321276D01*
X76351120Y-79321276D02*
X76369429Y-79338738D01*
X76369429Y-79338738D02*
X76382187Y-79350555D01*
X76382187Y-79350555D02*
X76388715Y-79356071D01*
X76388715Y-79356071D02*
X76389421Y-79356380D01*
X76389421Y-79356380D02*
X76391365Y-79351310D01*
X76391365Y-79351310D02*
X76396362Y-79337216D01*
X76396362Y-79337216D02*
X76404206Y-79314694D01*
X76404206Y-79314694D02*
X76414692Y-79284343D01*
X76414692Y-79284343D02*
X76427617Y-79246761D01*
X76427617Y-79246761D02*
X76442776Y-79202547D01*
X76442776Y-79202547D02*
X76459963Y-79152299D01*
X76459963Y-79152299D02*
X76478975Y-79096614D01*
X76478975Y-79096614D02*
X76499605Y-79036091D01*
X76499605Y-79036091D02*
X76521651Y-78971330D01*
X76521651Y-78971330D02*
X76544905Y-78902926D01*
X76544905Y-78902926D02*
X76569166Y-78831479D01*
X76569166Y-78831479D02*
X76583759Y-78788463D01*
X76583759Y-78788463D02*
X76775428Y-78223267D01*
X76775428Y-78223267D02*
X76839358Y-78159338D01*
X76839358Y-78159338D02*
X77227305Y-78547285D01*
X77227305Y-78547285D02*
X77809226Y-77965364D01*
X77809226Y-77965364D02*
X77860155Y-78016294D01*
X77860155Y-78016294D02*
X77177656Y-78698793D01*
X77177656Y-78698793D02*
X76868605Y-78389743D01*
X76868605Y-78389743D02*
X76796973Y-78600090D01*
X76796973Y-78600090D02*
X76780075Y-78649727D01*
X76780075Y-78649727D02*
X76760651Y-78706820D01*
X76760651Y-78706820D02*
X76739436Y-78769204D01*
X76739436Y-78769204D02*
X76717166Y-78834712D01*
X76717166Y-78834712D02*
X76694578Y-78901178D01*
X76694578Y-78901178D02*
X76672408Y-78966436D01*
X76672408Y-78966436D02*
X76651393Y-79028320D01*
X76651393Y-79028320D02*
X76638125Y-79067406D01*
X76638125Y-79067406D02*
X76621648Y-79116095D01*
X76621648Y-79116095D02*
X76606287Y-79161761D01*
X76606287Y-79161761D02*
X76592332Y-79203523D01*
X76592332Y-79203523D02*
X76580073Y-79240504D01*
X76580073Y-79240504D02*
X76569798Y-79271824D01*
X76569798Y-79271824D02*
X76561797Y-79296604D01*
X76561797Y-79296604D02*
X76556358Y-79313964D01*
X76556358Y-79313964D02*
X76553772Y-79323025D01*
X76553772Y-79323025D02*
X76553637Y-79324169D01*
X76553637Y-79324169D02*
X76558680Y-79322554D01*
X76558680Y-79322554D02*
X76572540Y-79317946D01*
X76572540Y-79317946D02*
X76594414Y-79310617D01*
X76594414Y-79310617D02*
X76623495Y-79300840D01*
X76623495Y-79300840D02*
X76658981Y-79288887D01*
X76658981Y-79288887D02*
X76700066Y-79275031D01*
X76700066Y-79275031D02*
X76745948Y-79259541D01*
X76745948Y-79259541D02*
X76795821Y-79242693D01*
X76795821Y-79242693D02*
X76848882Y-79224759D01*
X76848882Y-79224759D02*
X76904326Y-79206008D01*
X76904326Y-79206008D02*
X76961349Y-79186716D01*
X76961349Y-79186716D02*
X77019147Y-79167153D01*
X77019147Y-79167153D02*
X77076915Y-79147592D01*
X77076915Y-79147592D02*
X77133850Y-79128305D01*
X77133850Y-79128305D02*
X77189147Y-79109565D01*
X77189147Y-79109565D02*
X77242002Y-79091642D01*
X77242002Y-79091642D02*
X77291610Y-79074811D01*
X77291610Y-79074811D02*
X77337168Y-79059343D01*
X77337168Y-79059343D02*
X77377872Y-79045511D01*
X77377872Y-79045511D02*
X77412917Y-79033585D01*
X77412917Y-79033585D02*
X77441500Y-79023840D01*
X77441500Y-79023840D02*
X77462815Y-79016547D01*
X77462815Y-79016547D02*
X77476057Y-79011978D01*
X77476057Y-79011978D02*
X77480335Y-79010453D01*
X77480335Y-79010453D02*
X77480190Y-79008675D01*
X77480190Y-79008675D02*
X77477043Y-79004095D01*
X77477043Y-79004095D02*
X77470525Y-78996329D01*
X77470525Y-78996329D02*
X77460264Y-78984997D01*
X77460264Y-78984997D02*
X77445890Y-78969715D01*
X77445890Y-78969715D02*
X77427030Y-78950099D01*
X77427030Y-78950099D02*
X77403314Y-78925771D01*
X77403314Y-78925771D02*
X77374368Y-78896344D01*
X77374368Y-78896344D02*
X77339824Y-78861438D01*
X77339824Y-78861438D02*
X77299309Y-78820671D01*
X77299309Y-78820671D02*
X77252451Y-78773659D01*
X77252451Y-78773659D02*
X77198879Y-78720021D01*
X77198879Y-78720021D02*
X77177656Y-78698793D01*
X77177656Y-78698793D02*
X77860155Y-78016294D01*
X77860155Y-78016294D02*
X77909804Y-78065943D01*
X77909804Y-78065943D02*
X77327884Y-78647864D01*
X77327884Y-78647864D02*
X77536226Y-78856206D01*
X77536226Y-78856206D02*
X77584282Y-78904352D01*
X77584282Y-78904352D02*
X77625338Y-78945691D01*
X77625338Y-78945691D02*
X77659673Y-78980510D01*
X77659673Y-78980510D02*
X77687564Y-79009096D01*
X77687564Y-79009096D02*
X77709285Y-79031736D01*
X77709285Y-79031736D02*
X77725113Y-79048715D01*
X77725113Y-79048715D02*
X77735324Y-79060322D01*
X77735324Y-79060322D02*
X77740194Y-79066842D01*
X77740194Y-79066842D02*
X77740619Y-79068496D01*
X77740619Y-79068496D02*
X77735404Y-79070590D01*
X77735404Y-79070590D02*
X77735404Y-79070590D01*
G36*
X77860155Y-78016294D02*
G01*
X77909804Y-78065943D01*
X77327884Y-78647864D01*
X77536226Y-78856206D01*
X77584282Y-78904352D01*
X77625338Y-78945691D01*
X77659673Y-78980510D01*
X77687564Y-79009096D01*
X77709285Y-79031736D01*
X77725113Y-79048715D01*
X77735324Y-79060322D01*
X77740194Y-79066842D01*
X77740619Y-79068496D01*
X77735404Y-79070590D01*
X77721142Y-79075740D01*
X77698416Y-79083746D01*
X77667805Y-79094409D01*
X77629889Y-79107530D01*
X77585247Y-79122909D01*
X77534462Y-79140347D01*
X77478109Y-79159646D01*
X77416774Y-79180606D01*
X77351031Y-79203028D01*
X77281464Y-79226713D01*
X77208651Y-79251462D01*
X77133172Y-79277076D01*
X77132293Y-79277373D01*
X77056747Y-79302994D01*
X76983826Y-79327731D01*
X76914113Y-79351388D01*
X76848193Y-79373767D01*
X76786646Y-79394667D01*
X76730056Y-79413895D01*
X76679005Y-79431250D01*
X76634076Y-79446532D01*
X76595853Y-79459546D01*
X76564916Y-79470094D01*
X76541851Y-79477975D01*
X76527237Y-79482994D01*
X76521659Y-79484952D01*
X76521653Y-79484954D01*
X76521615Y-79486977D01*
X76524915Y-79492052D01*
X76532005Y-79500659D01*
X76543343Y-79513282D01*
X76559385Y-79530402D01*
X76580584Y-79552503D01*
X76607395Y-79580067D01*
X76640275Y-79613576D01*
X76679678Y-79653512D01*
X76702519Y-79676596D01*
X76889647Y-79865586D01*
X76792661Y-79962573D01*
X76596861Y-79768631D01*
X76401061Y-79574688D01*
X75754543Y-80221204D01*
X75653964Y-80120626D01*
X76300543Y-79474047D01*
X75912596Y-79086100D01*
X76013174Y-78985521D01*
X76199964Y-79172311D01*
X76235888Y-79208135D01*
X76269643Y-79241601D01*
X76300550Y-79272050D01*
X76327935Y-79298828D01*
X76351120Y-79321276D01*
X76369429Y-79338738D01*
X76382187Y-79350555D01*
X76388715Y-79356071D01*
X76389421Y-79356380D01*
X76391365Y-79351310D01*
X76396362Y-79337216D01*
X76400906Y-79324169D01*
X76553637Y-79324169D01*
X76558680Y-79322554D01*
X76572540Y-79317946D01*
X76594414Y-79310617D01*
X76623495Y-79300840D01*
X76658981Y-79288887D01*
X76700066Y-79275031D01*
X76745948Y-79259541D01*
X76795821Y-79242693D01*
X76848882Y-79224759D01*
X76904326Y-79206008D01*
X76961349Y-79186716D01*
X77019147Y-79167153D01*
X77076915Y-79147592D01*
X77133850Y-79128305D01*
X77189147Y-79109565D01*
X77242002Y-79091642D01*
X77291610Y-79074811D01*
X77337168Y-79059343D01*
X77377872Y-79045511D01*
X77412917Y-79033585D01*
X77441500Y-79023840D01*
X77462815Y-79016547D01*
X77476057Y-79011978D01*
X77480335Y-79010453D01*
X77480190Y-79008675D01*
X77477043Y-79004095D01*
X77470525Y-78996329D01*
X77460264Y-78984997D01*
X77445890Y-78969715D01*
X77427030Y-78950099D01*
X77403314Y-78925771D01*
X77374368Y-78896344D01*
X77339824Y-78861438D01*
X77299309Y-78820671D01*
X77252451Y-78773659D01*
X77198879Y-78720021D01*
X77177656Y-78698793D01*
X76868605Y-78389743D01*
X76796973Y-78600090D01*
X76780075Y-78649727D01*
X76760651Y-78706820D01*
X76739436Y-78769204D01*
X76717166Y-78834712D01*
X76694578Y-78901178D01*
X76672408Y-78966436D01*
X76651393Y-79028320D01*
X76638125Y-79067406D01*
X76621648Y-79116095D01*
X76606287Y-79161761D01*
X76592332Y-79203523D01*
X76580073Y-79240504D01*
X76569798Y-79271824D01*
X76561797Y-79296604D01*
X76556358Y-79313964D01*
X76553772Y-79323025D01*
X76553637Y-79324169D01*
X76400906Y-79324169D01*
X76404206Y-79314694D01*
X76414692Y-79284343D01*
X76427617Y-79246761D01*
X76442776Y-79202547D01*
X76459963Y-79152299D01*
X76478975Y-79096614D01*
X76499605Y-79036091D01*
X76521651Y-78971330D01*
X76544905Y-78902926D01*
X76569166Y-78831479D01*
X76583759Y-78788463D01*
X76775428Y-78223267D01*
X76839358Y-78159338D01*
X77227305Y-78547285D01*
X77809226Y-77965364D01*
X77860155Y-78016294D01*
G37*
X77860155Y-78016294D02*
X77909804Y-78065943D01*
X77327884Y-78647864D01*
X77536226Y-78856206D01*
X77584282Y-78904352D01*
X77625338Y-78945691D01*
X77659673Y-78980510D01*
X77687564Y-79009096D01*
X77709285Y-79031736D01*
X77725113Y-79048715D01*
X77735324Y-79060322D01*
X77740194Y-79066842D01*
X77740619Y-79068496D01*
X77735404Y-79070590D01*
X77721142Y-79075740D01*
X77698416Y-79083746D01*
X77667805Y-79094409D01*
X77629889Y-79107530D01*
X77585247Y-79122909D01*
X77534462Y-79140347D01*
X77478109Y-79159646D01*
X77416774Y-79180606D01*
X77351031Y-79203028D01*
X77281464Y-79226713D01*
X77208651Y-79251462D01*
X77133172Y-79277076D01*
X77132293Y-79277373D01*
X77056747Y-79302994D01*
X76983826Y-79327731D01*
X76914113Y-79351388D01*
X76848193Y-79373767D01*
X76786646Y-79394667D01*
X76730056Y-79413895D01*
X76679005Y-79431250D01*
X76634076Y-79446532D01*
X76595853Y-79459546D01*
X76564916Y-79470094D01*
X76541851Y-79477975D01*
X76527237Y-79482994D01*
X76521659Y-79484952D01*
X76521653Y-79484954D01*
X76521615Y-79486977D01*
X76524915Y-79492052D01*
X76532005Y-79500659D01*
X76543343Y-79513282D01*
X76559385Y-79530402D01*
X76580584Y-79552503D01*
X76607395Y-79580067D01*
X76640275Y-79613576D01*
X76679678Y-79653512D01*
X76702519Y-79676596D01*
X76889647Y-79865586D01*
X76792661Y-79962573D01*
X76596861Y-79768631D01*
X76401061Y-79574688D01*
X75754543Y-80221204D01*
X75653964Y-80120626D01*
X76300543Y-79474047D01*
X75912596Y-79086100D01*
X76013174Y-78985521D01*
X76199964Y-79172311D01*
X76235888Y-79208135D01*
X76269643Y-79241601D01*
X76300550Y-79272050D01*
X76327935Y-79298828D01*
X76351120Y-79321276D01*
X76369429Y-79338738D01*
X76382187Y-79350555D01*
X76388715Y-79356071D01*
X76389421Y-79356380D01*
X76391365Y-79351310D01*
X76396362Y-79337216D01*
X76400906Y-79324169D01*
X76553637Y-79324169D01*
X76558680Y-79322554D01*
X76572540Y-79317946D01*
X76594414Y-79310617D01*
X76623495Y-79300840D01*
X76658981Y-79288887D01*
X76700066Y-79275031D01*
X76745948Y-79259541D01*
X76795821Y-79242693D01*
X76848882Y-79224759D01*
X76904326Y-79206008D01*
X76961349Y-79186716D01*
X77019147Y-79167153D01*
X77076915Y-79147592D01*
X77133850Y-79128305D01*
X77189147Y-79109565D01*
X77242002Y-79091642D01*
X77291610Y-79074811D01*
X77337168Y-79059343D01*
X77377872Y-79045511D01*
X77412917Y-79033585D01*
X77441500Y-79023840D01*
X77462815Y-79016547D01*
X77476057Y-79011978D01*
X77480335Y-79010453D01*
X77480190Y-79008675D01*
X77477043Y-79004095D01*
X77470525Y-78996329D01*
X77460264Y-78984997D01*
X77445890Y-78969715D01*
X77427030Y-78950099D01*
X77403314Y-78925771D01*
X77374368Y-78896344D01*
X77339824Y-78861438D01*
X77299309Y-78820671D01*
X77252451Y-78773659D01*
X77198879Y-78720021D01*
X77177656Y-78698793D01*
X76868605Y-78389743D01*
X76796973Y-78600090D01*
X76780075Y-78649727D01*
X76760651Y-78706820D01*
X76739436Y-78769204D01*
X76717166Y-78834712D01*
X76694578Y-78901178D01*
X76672408Y-78966436D01*
X76651393Y-79028320D01*
X76638125Y-79067406D01*
X76621648Y-79116095D01*
X76606287Y-79161761D01*
X76592332Y-79203523D01*
X76580073Y-79240504D01*
X76569798Y-79271824D01*
X76561797Y-79296604D01*
X76556358Y-79313964D01*
X76553772Y-79323025D01*
X76553637Y-79324169D01*
X76400906Y-79324169D01*
X76404206Y-79314694D01*
X76414692Y-79284343D01*
X76427617Y-79246761D01*
X76442776Y-79202547D01*
X76459963Y-79152299D01*
X76478975Y-79096614D01*
X76499605Y-79036091D01*
X76521651Y-78971330D01*
X76544905Y-78902926D01*
X76569166Y-78831479D01*
X76583759Y-78788463D01*
X76775428Y-78223267D01*
X76839358Y-78159338D01*
X77227305Y-78547285D01*
X77809226Y-77965364D01*
X77860155Y-78016294D01*
D18*
%TO.C,U2*%
X94892000Y-99220000D02*
X94587200Y-99220000D01*
X74114800Y-99220000D02*
X64920000Y-99220000D01*
X74114800Y-83980000D02*
X64920000Y-83980000D01*
X63827800Y-96400600D02*
X63827800Y-86799400D01*
X94892000Y-83980000D02*
X94587200Y-83980000D01*
X94892000Y-99220000D02*
X94892000Y-83980000D01*
X64920000Y-85707200D02*
X64920000Y-83980000D01*
X64920000Y-99220000D02*
X64920000Y-97492800D01*
X63827800Y-86799400D02*
G75*
G03*
X64920000Y-85707200I0J1092200D01*
G01*
X64920000Y-97492800D02*
G75*
G03*
X63827800Y-96400600I-1092200J0D01*
G01*
D10*
%TO.C,D9*%
X71579270Y-77004223D02*
X70539823Y-78043670D01*
X70539823Y-78043670D02*
X72155562Y-79659409D01*
X73195009Y-78619962D02*
X71579270Y-77004223D01*
%TD*%
M02*
