M48
; DRILL file {KiCad (6.0.0-0)} date Tuesday, January 25, 2022 at 10:05:06 PM
; FORMAT={-:-/ absolute / inch / decimal}
; #@! TF.CreationDate,2022-01-25T22:05:06-05:00
; #@! TF.GenerationSoftware,Kicad,Pcbnew,(6.0.0-0)
; #@! TF.FileFunction,MixedPlating,1,6
FMAT,2
INCH
; #@! TA.AperFunction,Plated,PTH,ViaDrill
T1C0.0080
; #@! TA.AperFunction,Plated,PTH,ViaDrill
T2C0.0100
; #@! TA.AperFunction,Plated,PTH,ComponentDrill
T3C0.0236
; #@! TA.AperFunction,Plated,PTH,ComponentDrill
T4C0.0256
; #@! TA.AperFunction,Plated,PTH,ComponentDrill
T5C0.0276
; #@! TA.AperFunction,Plated,PTH,ComponentDrill
T6C0.0300
; #@! TA.AperFunction,Plated,PTH,ComponentDrill
T7C0.0335
; #@! TA.AperFunction,Plated,PTH,ComponentDrill
T8C0.1575
%
G90
G05
T1
X2.797Y-3.051
X2.881Y-3.136
X2.9205Y-3.5102
X2.9606Y-3.5531
X2.9815Y-3.9598
X2.9949Y-3.5531
X3.0661Y-3.9705
X3.0819Y-3.9862
X3.0839Y-3.5839
X3.1287Y-3.6205
X3.1299Y-3.9453
X3.191Y-3.484
X3.1988Y-3.9461
X3.209Y-3.557
X3.2126Y-3.7213
X3.239Y-3.5559
X3.239Y-3.529
X3.3583Y-3.4217
X3.3736Y-3.2358
X3.3961Y-3.4213
X3.5949Y-3.826
X3.798Y-3.6413
X3.8004Y-3.4316
X3.8059Y-3.6146
X3.8268Y-3.7449
X3.8803Y-3.5287
X3.962Y-3.515
X4.0004Y-3.4945
X4.024Y-3.2303
X4.0298Y-3.5675
X4.0528Y-3.5004
X4.089Y-3.6524
X4.1121Y-3.9354
X4.1618Y-3.7934
X4.1831Y-3.4307
X4.2224Y-3.4307
X4.2421Y-3.3815
X4.2618Y-3.4307
X4.2736Y-3.7934
X4.2815Y-3.3815
X4.3012Y-3.4307
X4.3209Y-3.3815
X4.3406Y-3.4307
X4.3575Y-3.2358
X4.3602Y-3.3815
X4.3638Y-3.2744
X4.3799Y-3.4307
X4.387Y-3.6055
X4.3996Y-3.3815
X4.4035Y-3.6327
X4.4193Y-3.4307
X4.4228Y-3.774
X4.4392Y-3.7303
X4.4634Y-3.7302
X4.5043Y-3.7303
X4.5047Y-3.5012
X4.5307Y-3.5713
X4.5307Y-3.6413
X4.5512Y-3.8406
X4.5602Y-3.6063
X4.685Y-3.1181
X4.685Y-3.1969
X4.685Y-3.2756
X4.685Y-3.3543
X4.6929Y-4.1142
X4.6969Y-3.8937
X4.6969Y-3.9724
X4.7087Y-3.7402
X4.7244Y-3.1575
X4.7244Y-3.315
X4.7283Y-4.0433
X4.7429Y-3.7398
T2
X2.7756Y-3.2087
X2.7756Y-3.2874
X2.7756Y-3.3661
X2.7756Y-3.4449
X2.7756Y-3.5236
X2.7756Y-3.6024
X2.7756Y-3.6811
X2.7756Y-3.7598
X2.7756Y-3.8386
X2.7756Y-3.9173
X2.7756Y-3.9961
X2.7862Y-4.1031
X2.815Y-3.248
X2.815Y-3.3268
X2.815Y-3.4055
X2.815Y-3.4843
X2.815Y-3.563
X2.815Y-3.6417
X2.815Y-3.7205
X2.815Y-3.7992
X2.815Y-3.878
X2.815Y-3.9567
X2.8272Y-4.1445
X2.8365Y-3.0096
X2.8681Y-4.185
X2.8705Y-4.0197
X2.877Y-2.969
X2.9008Y-3.2807
X2.9091Y-4.2256
X2.9114Y-3.635
X2.918Y-2.9281
X2.9265Y-3.0999
X2.9362Y-3.526
X2.9504Y-4.2669
X2.9585Y-2.8876
X2.9676Y-3.0592
X2.9929Y-4.1421
X2.9957Y-3.2583
X3.0085Y-3.0179
X3.0457Y-3.2539
X3.0496Y-3.9539
X3.0522Y-2.9781
X3.1283Y-3.8421
X3.2075Y-3.6634
X3.2095Y-3.4721
X3.226Y-3.4524
X3.236Y-3.4307
X3.246Y-3.4079
X3.2722Y-4.036
X3.2811Y-3.2535
X3.2941Y-4.0579
X3.2976Y-3.5453
X3.3071Y-3.5827
X3.3071Y-3.6614
X3.3071Y-3.7205
X3.3071Y-3.7795
X3.3531Y-3.952
X3.3661Y-3.5827
X3.3661Y-3.6614
X3.3661Y-3.7205
X3.3661Y-3.7795
X3.3876Y-4.0243
X3.422Y-3.5472
X3.4252Y-3.5827
X3.4252Y-3.6614
X3.4252Y-3.7205
X3.4252Y-3.7795
X3.4421Y-4.0197
X3.4606Y-3.952
X3.4843Y-3.6614
X3.4843Y-3.7205
X3.4843Y-3.7795
X3.4867Y-3.9432
X3.5457Y-3.7472
X3.5457Y-3.7701
X3.5709Y-3.2016
X3.5787Y-3.8425
X3.6461Y-3.9715
X3.6512Y-3.2008
X3.672Y-3.9634
X3.6772Y-3.5965
X3.6894Y-3.6173
X3.6937Y-3.6949
X3.7102Y-3.6381
X3.7102Y-3.5374
X3.7102Y-3.7177
X3.7498Y-3.8122
X3.7524Y-3.8724
X3.7548Y-3.7792
X3.7551Y-3.9409
X3.783Y-3.3932
X3.783Y-3.4149
X3.7876Y-3.5592
X3.7893Y-3.7731
X3.7937Y-3.5295
X3.794Y-3.5065
X3.7967Y-3.6732
X3.801Y-3.9847
X3.8035Y-3.2539
X3.8275Y-3.7907
X3.8278Y-3.5887
X3.8398Y-3.9402
X3.872Y-3.215
X3.8969Y-3.9512
X3.9028Y-3.8742
X3.9051Y-3.461
X3.9071Y-3.2815
X3.9079Y-3.3067
X3.9146Y-4.0081
X3.9165Y-3.8929
X3.9173Y-3.6181
X3.9173Y-3.6772
X3.9285Y-3.4621
X3.935Y-3.4276
X3.9449Y-3.6457
X3.9563Y-3.7669
X3.9571Y-3.4662
X3.9685Y-3.6181
X3.9685Y-3.6772
X3.9812Y-3.4654
X3.9894Y-3.3287
X3.9933Y-4.0047
X4.0165Y-3.5457
X4.0189Y-3.3291
X4.0409Y-3.7852
X4.0472Y-3.5527
X4.0479Y-3.58
X4.0667Y-3.7853
X4.0674Y-3.9066
X4.0717Y-3.9346
X4.0726Y-3.5547
X4.0882Y-3.4382
X4.0888Y-3.8982
X4.0892Y-3.7586
X4.0892Y-3.7356
X4.0895Y-3.7815
X4.0898Y-3.7126
X4.1051Y-3.4559
X4.111Y-3.9638
X4.1111Y-3.8917
X4.1169Y-3.4756
X4.1273Y-3.4961
X4.1276Y-4.0043
X4.1276Y-3.6827
X4.1445Y-3.9851
X4.1449Y-3.3508
X4.1496Y-3.4296
X4.1559Y-3.6748
X4.1614Y-3.8161
X4.1615Y-3.8393
X4.1866Y-3.798
X4.2102Y-3.9374
X4.2307Y-3.2343
X4.2358Y-3.3453
X4.248Y-3.5
X4.2492Y-3.674
X4.2681Y-3.6594
X4.3031Y-3.8043
X4.3126Y-3.5756
X4.3209Y-3.9016
X4.3378Y-3.5756
X4.3543Y-3.839
X4.3642Y-3.5736
X4.374Y-3.8925
X4.3894Y-3.5756
X4.4217Y-3.1965
X4.4646Y-3.1965
X4.685Y-3.4083
X4.7929Y-3.8866
T3
X3.3744Y-4.1614
X3.3744Y-4.3189
X3.3854Y-3.0512
X3.3856Y-2.8937
X3.4531Y-4.1614
X3.4531Y-4.3189
X3.4642Y-3.0512
X3.4644Y-2.8937
X3.5429Y-3.0512
X3.5431Y-2.8937
X3.5886Y-4.1614
X3.5886Y-4.3189
X3.6673Y-4.1614
X3.6673Y-4.3189
X3.7461Y-4.1614
X3.7461Y-4.3189
X3.8248Y-4.1614
X3.8248Y-4.3189
X3.9665Y-4.1614
X3.9665Y-4.3189
X3.9831Y-2.8937
X4.0453Y-4.1614
X4.0453Y-4.3189
X4.0618Y-2.8937
X4.0618Y-3.0512
X4.124Y-4.1614
X4.124Y-4.3189
X4.1406Y-2.8937
X4.1406Y-3.0512
X4.2028Y-4.1614
X4.2028Y-4.3189
X4.2193Y-2.8937
X4.2193Y-3.0512
X4.8457Y-3.1161
X4.8457Y-3.1949
X4.8457Y-3.2736
X4.8457Y-3.939
X4.8457Y-4.0177
X4.8457Y-4.0965
T6
X4.8555Y-3.372
X4.8555Y-3.439
X4.8555Y-3.5059
X4.8555Y-3.5728
X4.8555Y-3.6398
X4.8555Y-3.7067
X4.8555Y-3.7736
X4.8555Y-3.8406
T7
X4.6502Y-2.914
X4.6502Y-4.2988
X4.7671Y-3.0309
X4.7671Y-4.1819
T8
X3.2028Y-3.0059
X3.2028Y-4.2067
X4.4035Y-3.0059
X4.4035Y-4.2067
T4
G00X3.6713Y-3.0323
M15
G01X3.6713Y-3.048
M16
G05
G00X3.8618Y-3.0323
M15
G01X3.8618Y-3.048
M16
G05
T5
G00X3.6591Y-2.9122
M15
G01X3.6591Y-2.9319
M16
G05
G00X3.874Y-2.9122
M15
G01X3.874Y-2.9319
M16
G05
T0
M30
