%TF.GenerationSoftware,KiCad,Pcbnew,(6.0.0-0)*%
%TF.CreationDate,2022-01-25T22:05:00-05:00*%
%TF.ProjectId,Autodrone_V2,4175746f-6472-46f6-9e65-5f56322e6b69,rev?*%
%TF.SameCoordinates,Original*%
%TF.FileFunction,Copper,L4,Inr*%
%TF.FilePolarity,Positive*%
%FSLAX46Y46*%
G04 Gerber Fmt 4.6, Leading zero omitted, Abs format (unit mm)*
G04 Created by KiCad (PCBNEW (6.0.0-0)) date 2022-01-25 22:05:00*
%MOMM*%
%LPD*%
G01*
G04 APERTURE LIST*
G04 Aperture macros list*
%AMRoundRect*
0 Rectangle with rounded corners*
0 $1 Rounding radius*
0 $2 $3 $4 $5 $6 $7 $8 $9 X,Y pos of 4 corners*
0 Add a 4 corners polygon primitive as box body*
4,1,4,$2,$3,$4,$5,$6,$7,$8,$9,$2,$3,0*
0 Add four circle primitives for the rounded corners*
1,1,$1+$1,$2,$3*
1,1,$1+$1,$4,$5*
1,1,$1+$1,$6,$7*
1,1,$1+$1,$8,$9*
0 Add four rect primitives between the rounded corners*
20,1,$1+$1,$2,$3,$4,$5,0*
20,1,$1+$1,$4,$5,$6,$7,0*
20,1,$1+$1,$6,$7,$8,$9,0*
20,1,$1+$1,$8,$9,$2,$3,0*%
G04 Aperture macros list end*
%TA.AperFunction,ComponentPad*%
%ADD10O,1.200000X2.000000*%
%TD*%
%TA.AperFunction,ComponentPad*%
%ADD11O,1.100000X1.500000*%
%TD*%
%TA.AperFunction,ComponentPad*%
%ADD12O,1.350000X1.700000*%
%TD*%
%TA.AperFunction,ComponentPad*%
%ADD13C,6.000000*%
%TD*%
%TA.AperFunction,ComponentPad*%
%ADD14C,1.500000*%
%TD*%
%TA.AperFunction,ComponentPad*%
%ADD15RoundRect,0.250000X0.000000X0.954594X-0.954594X0.000000X0.000000X-0.954594X0.954594X0.000000X0*%
%TD*%
%TA.AperFunction,ComponentPad*%
%ADD16C,1.850000*%
%TD*%
%TA.AperFunction,ComponentPad*%
%ADD17O,2.000000X1.200000*%
%TD*%
%TA.AperFunction,ComponentPad*%
%ADD18RoundRect,0.250000X-0.954594X0.000000X0.000000X-0.954594X0.954594X0.000000X0.000000X0.954594X0*%
%TD*%
%TA.AperFunction,ViaPad*%
%ADD19C,0.457200*%
%TD*%
%TA.AperFunction,ViaPad*%
%ADD20C,0.406400*%
%TD*%
%TA.AperFunction,Conductor*%
%ADD21C,0.127000*%
%TD*%
%TA.AperFunction,Conductor*%
%ADD22C,0.300000*%
%TD*%
G04 APERTURE END LIST*
D10*
%TO.N,+5V*%
%TO.C,J8*%
X100750000Y-109700000D03*
%TO.N,GND*%
X102750000Y-109700000D03*
%TO.N,/Connectors/USART6_RX*%
X104750000Y-109700000D03*
%TO.N,/Connectors/USART6_TX*%
X106750000Y-109700000D03*
%TD*%
%TO.N,+5V*%
%TO.C,J13*%
X89990000Y-77500000D03*
%TO.N,GND*%
X87990000Y-77500000D03*
%TO.N,/Connectors/BUZ*%
X85990000Y-77500000D03*
%TD*%
%TO.N,+5V*%
%TO.C,J16*%
X89994999Y-73500000D03*
%TO.N,GND*%
X87994999Y-73500000D03*
%TO.N,/Connectors/LED_STRIP*%
X85994999Y-73500000D03*
%TD*%
%TO.N,/Connectors/I2C2_SDA*%
%TO.C,J17*%
X85710000Y-109700000D03*
%TO.N,/Connectors/I2C2_SCL*%
X87710000Y-109700000D03*
%TD*%
%TO.N,+4V5*%
%TO.C,J2*%
X91150000Y-109700000D03*
%TO.N,GND*%
X93150000Y-109700000D03*
%TO.N,/Connectors/USART1_RX*%
X95150000Y-109700000D03*
%TO.N,/Connectors/USART1_TX*%
X97150000Y-109700000D03*
%TD*%
%TO.N,+3V3*%
%TO.C,J11*%
X85710000Y-105700000D03*
%TO.N,GND*%
X87710000Y-105700000D03*
%TD*%
D11*
%TO.N,GND*%
%TO.C,J5*%
X98090000Y-77220000D03*
D12*
X98400000Y-74220000D03*
X92940000Y-74220000D03*
D11*
X93250000Y-77220000D03*
%TD*%
D13*
%TO.N,GND*%
%TO.C,H3*%
X111850000Y-76350000D03*
%TD*%
%TO.N,GND*%
%TO.C,H4*%
X81350000Y-106850000D03*
%TD*%
%TO.N,GND*%
%TO.C,H1*%
X81350000Y-76350000D03*
%TD*%
D10*
%TO.N,+5V*%
%TO.C,J9*%
X91150000Y-105700000D03*
%TO.N,GND*%
X93150000Y-105700000D03*
%TO.N,/Connectors/USART3_RX*%
X95150000Y-105700000D03*
%TO.N,/Connectors/USART3_TX*%
X97150000Y-105700000D03*
%TD*%
%TO.N,+9V*%
%TO.C,J10*%
X107170000Y-73500000D03*
%TO.N,GND*%
X105170000Y-73500000D03*
%TO.N,/Connectors/USART6_TX*%
X103170000Y-73500000D03*
%TO.N,/VID*%
X101170000Y-73500000D03*
%TD*%
%TO.N,+9V*%
%TO.C,J4*%
X107170000Y-77500000D03*
%TO.N,GND*%
X105170000Y-77500000D03*
%TO.N,/CAM*%
X103170000Y-77500000D03*
%TD*%
D13*
%TO.N,GND*%
%TO.C,H2*%
X111850000Y-106850000D03*
%TD*%
D10*
%TO.N,+5V*%
%TO.C,J3*%
X100750000Y-105700000D03*
%TO.N,GND*%
X102750000Y-105700000D03*
%TO.N,/Connectors/UART5_RX_CONN*%
X104750000Y-105700000D03*
%TO.N,/Connectors/UART5_TX_CONN*%
X106750000Y-105700000D03*
%TD*%
D14*
%TO.N,VCC*%
%TO.C,J7*%
X123330000Y-97550000D03*
%TO.N,GND*%
X123330000Y-95850000D03*
%TO.N,/Connectors/CURR_SENSE*%
X123330000Y-94150000D03*
%TO.N,/Connectors/USART6_RX*%
X123330000Y-92450000D03*
%TO.N,/Connectors/M1*%
X123330000Y-90750000D03*
%TO.N,/Connectors/M2*%
X123330000Y-89050000D03*
%TO.N,/Connectors/M3*%
X123330000Y-87350000D03*
%TO.N,/Connectors/M4*%
X123330000Y-85650000D03*
%TD*%
D15*
%TO.N,/WORM2_L*%
%TO.C,J15*%
X121084924Y-106220000D03*
D16*
%TO.N,/WORM2_H*%
X118115076Y-109189848D03*
%TD*%
D17*
%TO.N,+3V3*%
%TO.C,J14*%
X123080000Y-83150000D03*
%TO.N,GND*%
X123080000Y-81150000D03*
%TO.N,/Connectors/LIMIT1_INT*%
X123080000Y-79150000D03*
%TD*%
%TO.N,+3V3*%
%TO.C,J18*%
X123080000Y-104050000D03*
%TO.N,GND*%
X123080000Y-102050000D03*
%TO.N,/Connectors/LIMIT2_INT*%
X123080000Y-100050000D03*
%TD*%
D18*
%TO.N,/WORM1_H*%
%TO.C,J12*%
X118115076Y-74015076D03*
D16*
%TO.N,/WORM1_L*%
X121084924Y-76984924D03*
%TD*%
D19*
%TO.N,GND*%
X100800000Y-93400000D03*
X99500000Y-93400000D03*
X99500000Y-91900000D03*
X100800000Y-91900000D03*
X100200000Y-92600000D03*
D20*
X81508600Y-90347800D03*
X109750000Y-85890000D03*
D19*
X71500000Y-92500000D03*
X71500000Y-98500000D03*
X70500000Y-99500000D03*
D20*
X109250000Y-87140000D03*
X108750000Y-85890000D03*
X82270000Y-90320000D03*
X102210000Y-82050000D03*
X108550000Y-96353200D03*
X82270600Y-89636600D03*
D19*
X71500000Y-100500000D03*
D20*
X119000000Y-81200000D03*
D19*
X70500000Y-101500000D03*
X71500000Y-82500000D03*
X107460000Y-82150000D03*
X71500000Y-86500000D03*
D20*
X119000000Y-79200000D03*
X112250000Y-87140000D03*
X110750000Y-85890000D03*
X110250000Y-87140000D03*
X119000000Y-83200000D03*
X86260000Y-86900000D03*
X105710000Y-96353200D03*
X97200000Y-95120000D03*
X78330000Y-91030000D03*
X81250000Y-100230000D03*
D19*
X71500000Y-94500000D03*
X102080000Y-84560000D03*
D20*
X119200000Y-104500000D03*
X119600000Y-95000000D03*
X119300000Y-98900000D03*
X81600000Y-94520000D03*
X115080000Y-92490000D03*
X111750000Y-85890000D03*
X115080000Y-90710000D03*
X114420000Y-88930000D03*
X75730000Y-100580000D03*
X96529552Y-87162557D03*
X101610000Y-88760000D03*
X119300000Y-100900000D03*
D19*
X70500000Y-93500000D03*
X70500000Y-83500000D03*
X99260000Y-83990000D03*
D20*
X108250000Y-87140000D03*
X103860000Y-92770000D03*
X91310000Y-97180000D03*
D19*
X70500000Y-87500000D03*
D20*
X119000000Y-85200000D03*
X120100000Y-102700000D03*
D19*
X71500000Y-90500000D03*
D20*
X111250000Y-87140000D03*
D19*
X71500000Y-88500000D03*
D20*
X85300000Y-86910000D03*
X98560000Y-89630000D03*
X79500000Y-100210000D03*
D19*
X70500000Y-85500000D03*
D20*
X120000000Y-80200000D03*
D19*
X98980000Y-100360000D03*
D20*
X102358122Y-90614020D03*
X120000000Y-84200000D03*
D19*
X101430000Y-101720000D03*
D20*
X111430000Y-91580000D03*
D19*
X70500000Y-81500000D03*
X70500000Y-91500000D03*
X70500000Y-89500000D03*
D20*
X102940000Y-88910000D03*
X79470000Y-91960000D03*
D19*
X99240000Y-83350000D03*
X70500000Y-97500000D03*
D20*
X107750000Y-85890000D03*
D19*
X106940000Y-100010000D03*
X71500000Y-96500000D03*
X71500000Y-84500000D03*
X93270000Y-100670000D03*
D20*
X85690000Y-82190000D03*
X107250000Y-87140000D03*
X110680000Y-82190000D03*
X106250000Y-87140000D03*
X120470000Y-94990000D03*
D19*
X70500000Y-95500000D03*
D20*
X115830000Y-91600000D03*
D19*
X108410000Y-92950000D03*
%TO.N,+3V3*%
X85500000Y-94500000D03*
X87000000Y-93000000D03*
X84000000Y-91000000D03*
X88500000Y-93000000D03*
X77360000Y-82650000D03*
X107900000Y-88900000D03*
X97218857Y-96283588D03*
X96088600Y-86187502D03*
X88500000Y-96000000D03*
X112310000Y-81190000D03*
X106340000Y-96470000D03*
X84000000Y-96000000D03*
X113400000Y-81190000D03*
X88500000Y-94500000D03*
X87900000Y-100380000D03*
X95245610Y-96830000D03*
D20*
X110840000Y-83170000D03*
D19*
X99430000Y-101806957D03*
X87000000Y-91000000D03*
X105280000Y-85110000D03*
X85500000Y-91000000D03*
X76020000Y-105210000D03*
X96088600Y-86738959D03*
X85170000Y-100380000D03*
X90700000Y-81320000D03*
X97530000Y-100080890D03*
X87000000Y-94500000D03*
X87000000Y-96000000D03*
X85500000Y-96000000D03*
X105399999Y-87111632D03*
X107590000Y-84970000D03*
X84000000Y-94500000D03*
X85500000Y-93000000D03*
X84000000Y-93000000D03*
D20*
%TO.N,VCC*%
X115600000Y-97550000D03*
D19*
X83670000Y-103070000D03*
X72910000Y-102100000D03*
X83115000Y-102515000D03*
%TO.N,+5V*%
X77460000Y-100430000D03*
D20*
X111850000Y-92270000D03*
D19*
X73950000Y-92330000D03*
D20*
X77880000Y-100850000D03*
D19*
X90060000Y-95760000D03*
X90060000Y-95180000D03*
D20*
X78280000Y-101250000D03*
D19*
%TO.N,+9V*%
X73681339Y-83330000D03*
D20*
X74180000Y-89160000D03*
X76070000Y-90250000D03*
D19*
X74580000Y-89560000D03*
D20*
X75200000Y-90250000D03*
D19*
%TO.N,/Connectors/M3*%
X104270000Y-87779110D03*
%TO.N,/Connectors/M2*%
X104570181Y-88280303D03*
%TO.N,/Connectors/M1*%
X104832985Y-88802067D03*
%TO.N,/Connectors/M4*%
X103840000Y-87330002D03*
%TO.N,/MCU/BOOT0*%
X92740000Y-81300000D03*
X94240000Y-89850000D03*
%TO.N,/Gyro/SPI1_CS*%
X102020000Y-90060000D03*
X100490000Y-95680000D03*
%TO.N,/Gyro/SPI1_MISO*%
X103443133Y-90290440D03*
X103293698Y-96147092D03*
D20*
%TO.N,/MCU/D+*%
X96670000Y-91810000D03*
%TO.N,/MCU/D-*%
X96470000Y-92490000D03*
D19*
%TO.N,/Connectors/USART6_TX*%
X103311356Y-99228644D03*
%TO.N,/Connectors/USART6_RX*%
X103420000Y-99940002D03*
X121740000Y-98720000D03*
%TO.N,/Debugger/NRST*%
X101330000Y-84550000D03*
X76090000Y-82760000D03*
%TO.N,/Connectors/USART3_TX*%
X94240000Y-94430000D03*
%TO.N,/Connectors/USART3_RX*%
X93820000Y-93850000D03*
%TO.N,/Connectors/LIMIT2_INT*%
X99950000Y-87060000D03*
X119000000Y-86570000D03*
%TO.N,/Connectors/LIMIT1_INT*%
X96610000Y-82650000D03*
%TO.N,/Connectors/CURR_SENSE*%
X107930000Y-93320000D03*
%TO.N,/Connectors/LED_STRIP*%
X93400000Y-91350002D03*
X86920000Y-90100000D03*
%TO.N,/Connectors/I2C2_SCL*%
X105270000Y-101220795D03*
X87430000Y-102100890D03*
X105560000Y-93340000D03*
%TO.N,/Connectors/I2C2_SDA*%
X104840000Y-101710000D03*
X104840888Y-93540000D03*
X86045610Y-102217145D03*
%TO.N,/Connectors/USART1_TX*%
X97225996Y-91154006D03*
%TO.N,/Connectors/USART1_RX*%
X96204408Y-90403913D03*
%TO.N,/MCU/BUZ_MCU*%
X83340000Y-82640000D03*
X93710000Y-91880000D03*
X83760000Y-90050000D03*
%TO.N,/Debugger/SWO*%
X81470000Y-93050000D03*
X94239581Y-92408422D03*
%TO.N,/Debugger/SWCLK*%
X95372161Y-95992159D03*
X90900000Y-97600000D03*
%TO.N,/Debugger/SWDIO*%
X95310000Y-98360000D03*
X79460000Y-97590000D03*
%TO.N,/MCU/SPI2_MOSI*%
X110180000Y-90820000D03*
X103854881Y-99013145D03*
X109750000Y-99100000D03*
%TO.N,/MCU/SPI2_MISO*%
X111100000Y-98870000D03*
X111490000Y-90820000D03*
X104422288Y-98850000D03*
%TO.N,/MCU/SPI2_SCK*%
X105703360Y-97517651D03*
X110850000Y-90770000D03*
X110598600Y-97510000D03*
%TO.N,/MCU/SPI2_CS*%
X109300000Y-96630000D03*
X105699110Y-96929188D03*
X109540000Y-90820000D03*
%TO.N,/MCU/WORM2_PWM*%
X103880000Y-94300000D03*
D20*
X113370000Y-94746800D03*
D19*
%TO.N,/MCU/WORM1_PWM*%
X103865854Y-94883531D03*
D20*
X112756235Y-94749836D03*
%TO.N,/MCU/WORM2_DIR*%
X114410000Y-94750000D03*
D19*
X103864723Y-95467232D03*
%TO.N,/MCU/WORM1_DIR*%
X103872576Y-96050882D03*
D20*
X112340000Y-95860432D03*
D19*
%TO.N,/MCU/LED_4*%
X74331861Y-78736235D03*
X101122970Y-88020951D03*
X81521591Y-88192564D03*
%TO.N,/MCU/LED_3*%
X75377000Y-77703800D03*
X81940191Y-87690871D03*
X100511121Y-88040810D03*
%TO.N,/MCU/LED_2*%
X76417000Y-76653800D03*
X99783662Y-87938212D03*
X82193702Y-87140000D03*
%TO.N,/MCU/LED_1*%
X77527000Y-75643800D03*
X82447213Y-86560000D03*
X99189021Y-87910612D03*
%TO.N,/MCU/BLUE*%
X75147000Y-73343800D03*
%TO.N,/MCU/RED*%
X74117000Y-74373800D03*
%TO.N,/MCU/YELLOW*%
X73077000Y-75413800D03*
%TO.N,/MCU/GREEN*%
X72047000Y-76443800D03*
D20*
%TO.N,/MCU/LED_5*%
X81051400Y-88493600D03*
X100634800Y-89281000D03*
X73177400Y-79654400D03*
D19*
%TO.N,/Barometer/I2C1_SCL*%
X96359269Y-89648232D03*
X99480000Y-98880000D03*
%TO.N,/Barometer/I2C1_SDA*%
X99130000Y-98405100D03*
X96368351Y-89064600D03*
%TO.N,/MCU/3V3*%
X73890000Y-107330000D03*
%TO.N,/MCU/5V*%
X72850000Y-106300000D03*
%TO.N,/MCU/9V*%
X71810000Y-105270000D03*
%TO.N,/MCU/+VCC*%
X70770000Y-104220000D03*
%TO.N,/Debugger/VCP_RX*%
X96546407Y-101210473D03*
X92610000Y-100874900D03*
X104420550Y-100681440D03*
X96435154Y-93298369D03*
%TO.N,/Gyro/SPI1_MOSI*%
X102817438Y-90931400D03*
X102640000Y-96144900D03*
%TO.N,/Gyro/SPI1_SCK*%
X102799452Y-90239471D03*
%TO.N,/MCU/3V3_GYRO*%
X74940000Y-108380000D03*
%TO.N,/Debugger/VCP_TX*%
X88562797Y-100157187D03*
X96248211Y-95837094D03*
X95380000Y-100100000D03*
D20*
X104447688Y-99960000D03*
D19*
%TO.N,+4V5*%
X98350000Y-81659998D03*
D20*
%TO.N,/MCU/PURPLE*%
X71043800Y-77495400D03*
%TD*%
D21*
%TO.N,/Connectors/M3*%
X104679380Y-87779110D02*
X104270000Y-87779110D01*
X123330000Y-87350000D02*
X122711119Y-87968881D01*
X104869151Y-87968881D02*
X104679380Y-87779110D01*
X122711119Y-87968881D02*
X104869151Y-87968881D01*
%TO.N,/Connectors/M2*%
X122502391Y-88222391D02*
X104628093Y-88222391D01*
X104628093Y-88222391D02*
X104570181Y-88280303D01*
X123330000Y-89050000D02*
X122502391Y-88222391D01*
%TO.N,/Connectors/M1*%
X123330000Y-90750000D02*
X121055901Y-88475901D01*
X121055901Y-88475901D02*
X105159151Y-88475901D01*
X105159151Y-88475901D02*
X104832985Y-88802067D01*
%TO.N,/Connectors/M4*%
X123330000Y-85650000D02*
X121264629Y-87715371D01*
X104590579Y-87330002D02*
X103840000Y-87330002D01*
X104975948Y-87715371D02*
X104590579Y-87330002D01*
X121264629Y-87715371D02*
X104975948Y-87715371D01*
%TO.N,/Connectors/USART6_RX*%
X120893201Y-99566799D02*
X121740000Y-98720000D01*
X103420000Y-99940002D02*
X103793203Y-99566799D01*
X103793203Y-99566799D02*
X120893201Y-99566799D01*
D22*
%TO.N,/Debugger/NRST*%
X77880000Y-84550000D02*
X101330000Y-84550000D01*
X76090000Y-82760000D02*
X77880000Y-84550000D01*
D21*
%TO.N,/Connectors/LIMIT2_INT*%
X100440000Y-86570000D02*
X119000000Y-86570000D01*
X99950000Y-87060000D02*
X100440000Y-86570000D01*
%TO.N,/Connectors/LIMIT1_INT*%
X96660000Y-82600000D02*
X96610000Y-82650000D01*
X119480000Y-82600000D02*
X96660000Y-82600000D01*
X123080000Y-79000000D02*
X119480000Y-82600000D01*
%TO.N,/Connectors/CURR_SENSE*%
X123160000Y-94150000D02*
X123330000Y-94150000D01*
X108158599Y-93548599D02*
X122558599Y-93548599D01*
X122558599Y-93548599D02*
X123160000Y-94150000D01*
X107930000Y-93320000D02*
X108158599Y-93548599D01*
%TO.N,/Connectors/LED_STRIP*%
X86920000Y-90100000D02*
X88170002Y-91350002D01*
X88170002Y-91350002D02*
X93400000Y-91350002D01*
%TO.N,/Connectors/I2C2_SCL*%
X105270000Y-101220795D02*
X104737213Y-101220795D01*
X87554668Y-102225558D02*
X87430000Y-102100890D01*
X103732450Y-102225558D02*
X87554668Y-102225558D01*
X104737213Y-101220795D02*
X103732450Y-102225558D01*
%TO.N,/Connectors/I2C2_SDA*%
X86348465Y-102520000D02*
X104030000Y-102520000D01*
X104030000Y-102520000D02*
X104840000Y-101710000D01*
X86045610Y-102217145D02*
X86348465Y-102520000D01*
%TO.N,/MCU/BUZ_MCU*%
X85590000Y-91880000D02*
X83760000Y-90050000D01*
X93710000Y-91880000D02*
X85590000Y-91880000D01*
%TO.N,/Debugger/SWO*%
X94239581Y-92408422D02*
X82111578Y-92408422D01*
X82111578Y-92408422D02*
X81470000Y-93050000D01*
%TO.N,/Debugger/SWCLK*%
X95372161Y-95992159D02*
X94007841Y-95992159D01*
X94007841Y-95992159D02*
X92400000Y-97600000D01*
X92400000Y-97600000D02*
X90900000Y-97600000D01*
%TO.N,/Debugger/SWDIO*%
X80230000Y-98360000D02*
X95310000Y-98360000D01*
X79460000Y-97590000D02*
X80230000Y-98360000D01*
%TO.N,/MCU/SPI2_MOSI*%
X109750000Y-99100000D02*
X109581399Y-99268601D01*
X104110337Y-99268601D02*
X103854881Y-99013145D01*
X109581399Y-99268601D02*
X104110337Y-99268601D01*
%TO.N,/MCU/SPI2_MISO*%
X110900000Y-98670000D02*
X104602288Y-98670000D01*
X111100000Y-98870000D02*
X110900000Y-98670000D01*
X104602288Y-98670000D02*
X104422288Y-98850000D01*
%TO.N,/MCU/SPI2_SCK*%
X110590949Y-97517651D02*
X110598600Y-97510000D01*
X105703360Y-97517651D02*
X110590949Y-97517651D01*
%TO.N,/MCU/SPI2_CS*%
X105699110Y-96929188D02*
X109000812Y-96929188D01*
X109000812Y-96929188D02*
X109300000Y-96630000D01*
%TO.N,/MCU/WORM2_PWM*%
X112923200Y-94300000D02*
X103880000Y-94300000D01*
X113370000Y-94746800D02*
X112923200Y-94300000D01*
%TO.N,/MCU/WORM1_PWM*%
X112756235Y-94749836D02*
X112622540Y-94883531D01*
X112622540Y-94883531D02*
X103865854Y-94883531D01*
%TO.N,/MCU/WORM2_DIR*%
X113692768Y-95467232D02*
X103864723Y-95467232D01*
X114410000Y-94750000D02*
X113692768Y-95467232D01*
%TO.N,/MCU/WORM1_DIR*%
X112240432Y-95960000D02*
X112340000Y-95860432D01*
X103963458Y-95960000D02*
X112240432Y-95960000D01*
X103872576Y-96050882D02*
X103963458Y-95960000D01*
%TO.N,/MCU/LED_4*%
X98172451Y-88390533D02*
X81719560Y-88390533D01*
X98627710Y-88845792D02*
X98172451Y-88390533D01*
X100298129Y-88845792D02*
X98627710Y-88845792D01*
X81719560Y-88390533D02*
X81521591Y-88192564D01*
X101122970Y-88020951D02*
X100298129Y-88845792D01*
%TO.N,/MCU/LED_3*%
X99968206Y-88583725D02*
X98882637Y-88583725D01*
X98882637Y-88583725D02*
X98435934Y-88137022D01*
X100511121Y-88040810D02*
X99968206Y-88583725D01*
X82386342Y-88137022D02*
X81940191Y-87690871D01*
X98435934Y-88137022D02*
X82386342Y-88137022D01*
%TO.N,/MCU/LED_2*%
X99392160Y-88329714D02*
X98987851Y-88329714D01*
X98541648Y-87883511D02*
X82937213Y-87883511D01*
X99783662Y-87938212D02*
X99392160Y-88329714D01*
X82937213Y-87883511D02*
X82193702Y-87140000D01*
X98987851Y-88329714D02*
X98541648Y-87883511D01*
%TO.N,/MCU/LED_1*%
X83517213Y-87630000D02*
X82447213Y-86560000D01*
X99189021Y-87910612D02*
X98908409Y-87630000D01*
X98908409Y-87630000D02*
X83517213Y-87630000D01*
%TO.N,/MCU/LED_5*%
X98653600Y-89230200D02*
X100584000Y-89230200D01*
X81051400Y-88493600D02*
X81203800Y-88646000D01*
X81203800Y-88646000D02*
X98069400Y-88646000D01*
X100584000Y-89230200D02*
X100634800Y-89281000D01*
X98069400Y-88646000D02*
X98653600Y-89230200D01*
%TO.N,/Debugger/VCP_RX*%
X103891517Y-101210473D02*
X104420550Y-100681440D01*
X92945573Y-101210473D02*
X92610000Y-100874900D01*
X96546407Y-101210473D02*
X92945573Y-101210473D01*
X96546407Y-101210473D02*
X103891517Y-101210473D01*
%TO.N,/Debugger/VCP_TX*%
X96070000Y-100790000D02*
X103617688Y-100790000D01*
X103617688Y-100790000D02*
X104447688Y-99960000D01*
X88562797Y-100157187D02*
X95322813Y-100157187D01*
X95380000Y-100100000D02*
X96070000Y-100790000D01*
X95322813Y-100157187D02*
X95380000Y-100100000D01*
%TD*%
%TA.AperFunction,Conductor*%
%TO.N,GND*%
G36*
X117569205Y-72103677D02*
G01*
X117571291Y-72104534D01*
X117571292Y-72104534D01*
X117580309Y-72108239D01*
X117589304Y-72104483D01*
X117599051Y-72104455D01*
X117599052Y-72104890D01*
X117608404Y-72103633D01*
X118457310Y-72213338D01*
X118469716Y-72216637D01*
X119281219Y-72551415D01*
X119292343Y-72557824D01*
X119971670Y-73078577D01*
X119977418Y-73086063D01*
X119977725Y-73085756D01*
X119984617Y-73092647D01*
X119988347Y-73101653D01*
X119999199Y-73106148D01*
X120015096Y-73116770D01*
X123473206Y-76574879D01*
X123483827Y-76590774D01*
X123488338Y-76601663D01*
X123497342Y-76605393D01*
X123504234Y-76612285D01*
X123503935Y-76612584D01*
X123511424Y-76618332D01*
X123586634Y-76716347D01*
X123831537Y-77035510D01*
X124030560Y-77294882D01*
X124036955Y-77305958D01*
X124349377Y-78060213D01*
X124371679Y-78114054D01*
X124374990Y-78126409D01*
X124486299Y-78971890D01*
X124485067Y-78981249D01*
X124485491Y-78981249D01*
X124485491Y-78990995D01*
X124481761Y-79000000D01*
X124485491Y-79009005D01*
X124486258Y-79010857D01*
X124489988Y-79029627D01*
X124485541Y-90235440D01*
X124480170Y-103770880D01*
X124480011Y-104170353D01*
X124476281Y-104189085D01*
X124471760Y-104200000D01*
X124475490Y-104209005D01*
X124475490Y-104218751D01*
X124475066Y-104218751D01*
X124476298Y-104228110D01*
X124425048Y-104617392D01*
X124375504Y-104993724D01*
X124364989Y-105073590D01*
X124361678Y-105085945D01*
X124176276Y-105533544D01*
X124026953Y-105894042D01*
X124020557Y-105905119D01*
X123501423Y-106581669D01*
X123493933Y-106587417D01*
X123494233Y-106587717D01*
X123487342Y-106594608D01*
X123478336Y-106598338D01*
X123473828Y-106609222D01*
X123473826Y-106609226D01*
X123463204Y-106625122D01*
X120005118Y-110083207D01*
X119989221Y-110093829D01*
X119987340Y-110094608D01*
X119978336Y-110098338D01*
X119974606Y-110107342D01*
X119967714Y-110114234D01*
X119967415Y-110113935D01*
X119961667Y-110121424D01*
X119818186Y-110231521D01*
X119285120Y-110640558D01*
X119285117Y-110640560D01*
X119274041Y-110646955D01*
X118465945Y-110981679D01*
X118453592Y-110984990D01*
X118164225Y-111023085D01*
X117608109Y-111096299D01*
X117598750Y-111095067D01*
X117598750Y-111095491D01*
X117589004Y-111095491D01*
X117579999Y-111091761D01*
X117570994Y-111095491D01*
X117569113Y-111096270D01*
X117550362Y-111100000D01*
X76779637Y-111100000D01*
X76760886Y-111096270D01*
X76759005Y-111095491D01*
X76750000Y-111091761D01*
X76740995Y-111095491D01*
X76731249Y-111095491D01*
X76731249Y-111095067D01*
X76721890Y-111096299D01*
X76017785Y-111003602D01*
X75876409Y-110984990D01*
X75864054Y-110981679D01*
X75533103Y-110844594D01*
X75055957Y-110646954D01*
X75044881Y-110640558D01*
X74433792Y-110171654D01*
X84982500Y-110171654D01*
X85024710Y-110383857D01*
X85027391Y-110387869D01*
X85027392Y-110387872D01*
X85172684Y-110605317D01*
X85185501Y-110624499D01*
X85189512Y-110627179D01*
X85422128Y-110782608D01*
X85422131Y-110782609D01*
X85426143Y-110785290D01*
X85710000Y-110841753D01*
X85993857Y-110785290D01*
X85997869Y-110782609D01*
X85997872Y-110782608D01*
X86230488Y-110627179D01*
X86234499Y-110624499D01*
X86247316Y-110605317D01*
X86392608Y-110387872D01*
X86392609Y-110387869D01*
X86395290Y-110383857D01*
X86437500Y-110171654D01*
X86982500Y-110171654D01*
X87024710Y-110383857D01*
X87027391Y-110387869D01*
X87027392Y-110387872D01*
X87172684Y-110605317D01*
X87185501Y-110624499D01*
X87189512Y-110627179D01*
X87422128Y-110782608D01*
X87422131Y-110782609D01*
X87426143Y-110785290D01*
X87710000Y-110841753D01*
X87993857Y-110785290D01*
X87997869Y-110782609D01*
X87997872Y-110782608D01*
X88230488Y-110627179D01*
X88234499Y-110624499D01*
X88247316Y-110605317D01*
X88392608Y-110387872D01*
X88392609Y-110387869D01*
X88395290Y-110383857D01*
X88437500Y-110171654D01*
X90422500Y-110171654D01*
X90464710Y-110383857D01*
X90467391Y-110387869D01*
X90467392Y-110387872D01*
X90612684Y-110605317D01*
X90625501Y-110624499D01*
X90629512Y-110627179D01*
X90862128Y-110782608D01*
X90862131Y-110782609D01*
X90866143Y-110785290D01*
X91150000Y-110841753D01*
X91433857Y-110785290D01*
X91437869Y-110782609D01*
X91437872Y-110782608D01*
X91670488Y-110627179D01*
X91674499Y-110624499D01*
X91687316Y-110605317D01*
X91832608Y-110387872D01*
X91832609Y-110387869D01*
X91835290Y-110383857D01*
X91877500Y-110171654D01*
X94422500Y-110171654D01*
X94464710Y-110383857D01*
X94467391Y-110387869D01*
X94467392Y-110387872D01*
X94612684Y-110605317D01*
X94625501Y-110624499D01*
X94629512Y-110627179D01*
X94862128Y-110782608D01*
X94862131Y-110782609D01*
X94866143Y-110785290D01*
X95150000Y-110841753D01*
X95433857Y-110785290D01*
X95437869Y-110782609D01*
X95437872Y-110782608D01*
X95670488Y-110627179D01*
X95674499Y-110624499D01*
X95687316Y-110605317D01*
X95832608Y-110387872D01*
X95832609Y-110387869D01*
X95835290Y-110383857D01*
X95877500Y-110171654D01*
X96422500Y-110171654D01*
X96464710Y-110383857D01*
X96467391Y-110387869D01*
X96467392Y-110387872D01*
X96612684Y-110605317D01*
X96625501Y-110624499D01*
X96629512Y-110627179D01*
X96862128Y-110782608D01*
X96862131Y-110782609D01*
X96866143Y-110785290D01*
X97150000Y-110841753D01*
X97433857Y-110785290D01*
X97437869Y-110782609D01*
X97437872Y-110782608D01*
X97670488Y-110627179D01*
X97674499Y-110624499D01*
X97687316Y-110605317D01*
X97832608Y-110387872D01*
X97832609Y-110387869D01*
X97835290Y-110383857D01*
X97877500Y-110171654D01*
X100022500Y-110171654D01*
X100064710Y-110383857D01*
X100067391Y-110387869D01*
X100067392Y-110387872D01*
X100212684Y-110605317D01*
X100225501Y-110624499D01*
X100229512Y-110627179D01*
X100462128Y-110782608D01*
X100462131Y-110782609D01*
X100466143Y-110785290D01*
X100750000Y-110841753D01*
X101033857Y-110785290D01*
X101037869Y-110782609D01*
X101037872Y-110782608D01*
X101270488Y-110627179D01*
X101274499Y-110624499D01*
X101287316Y-110605317D01*
X101432608Y-110387872D01*
X101432609Y-110387869D01*
X101435290Y-110383857D01*
X101477500Y-110171654D01*
X104022500Y-110171654D01*
X104064710Y-110383857D01*
X104067391Y-110387869D01*
X104067392Y-110387872D01*
X104212684Y-110605317D01*
X104225501Y-110624499D01*
X104229512Y-110627179D01*
X104462128Y-110782608D01*
X104462131Y-110782609D01*
X104466143Y-110785290D01*
X104750000Y-110841753D01*
X105033857Y-110785290D01*
X105037869Y-110782609D01*
X105037872Y-110782608D01*
X105270488Y-110627179D01*
X105274499Y-110624499D01*
X105287316Y-110605317D01*
X105432608Y-110387872D01*
X105432609Y-110387869D01*
X105435290Y-110383857D01*
X105477500Y-110171654D01*
X106022500Y-110171654D01*
X106064710Y-110383857D01*
X106067391Y-110387869D01*
X106067392Y-110387872D01*
X106212684Y-110605317D01*
X106225501Y-110624499D01*
X106229512Y-110627179D01*
X106462128Y-110782608D01*
X106462131Y-110782609D01*
X106466143Y-110785290D01*
X106750000Y-110841753D01*
X107033857Y-110785290D01*
X107037869Y-110782609D01*
X107037872Y-110782608D01*
X107270488Y-110627179D01*
X107274499Y-110624499D01*
X107287316Y-110605317D01*
X107432608Y-110387872D01*
X107432609Y-110387869D01*
X107435290Y-110383857D01*
X107477500Y-110171654D01*
X107477500Y-109228346D01*
X107469842Y-109189848D01*
X117041956Y-109189848D01*
X117123642Y-109600513D01*
X117356266Y-109948658D01*
X117360277Y-109951338D01*
X117614828Y-110121424D01*
X117704411Y-110181282D01*
X118115076Y-110262968D01*
X118525741Y-110181282D01*
X118615325Y-110121424D01*
X118869875Y-109951338D01*
X118873886Y-109948658D01*
X119106510Y-109600513D01*
X119188196Y-109189848D01*
X119106510Y-108779183D01*
X118873886Y-108431038D01*
X118525741Y-108198414D01*
X118115076Y-108116728D01*
X117704411Y-108198414D01*
X117356266Y-108431038D01*
X117123642Y-108779183D01*
X117041956Y-109189848D01*
X107469842Y-109189848D01*
X107435290Y-109016143D01*
X107432609Y-109012131D01*
X107432608Y-109012128D01*
X107277179Y-108779512D01*
X107274499Y-108775501D01*
X107253859Y-108761710D01*
X107037872Y-108617392D01*
X107037869Y-108617391D01*
X107033857Y-108614710D01*
X106750000Y-108558247D01*
X106466143Y-108614710D01*
X106462131Y-108617391D01*
X106462128Y-108617392D01*
X106246141Y-108761710D01*
X106225501Y-108775501D01*
X106222821Y-108779512D01*
X106067392Y-109012128D01*
X106067391Y-109012131D01*
X106064710Y-109016143D01*
X106022500Y-109228346D01*
X106022500Y-110171654D01*
X105477500Y-110171654D01*
X105477500Y-109228346D01*
X105435290Y-109016143D01*
X105432609Y-109012131D01*
X105432608Y-109012128D01*
X105277179Y-108779512D01*
X105274499Y-108775501D01*
X105253859Y-108761710D01*
X105037872Y-108617392D01*
X105037869Y-108617391D01*
X105033857Y-108614710D01*
X104750000Y-108558247D01*
X104466143Y-108614710D01*
X104462131Y-108617391D01*
X104462128Y-108617392D01*
X104246141Y-108761710D01*
X104225501Y-108775501D01*
X104222821Y-108779512D01*
X104067392Y-109012128D01*
X104067391Y-109012131D01*
X104064710Y-109016143D01*
X104022500Y-109228346D01*
X104022500Y-110171654D01*
X101477500Y-110171654D01*
X101477500Y-109228346D01*
X101435290Y-109016143D01*
X101432609Y-109012131D01*
X101432608Y-109012128D01*
X101277179Y-108779512D01*
X101274499Y-108775501D01*
X101253859Y-108761710D01*
X101037872Y-108617392D01*
X101037869Y-108617391D01*
X101033857Y-108614710D01*
X100750000Y-108558247D01*
X100466143Y-108614710D01*
X100462131Y-108617391D01*
X100462128Y-108617392D01*
X100246141Y-108761710D01*
X100225501Y-108775501D01*
X100222821Y-108779512D01*
X100067392Y-109012128D01*
X100067391Y-109012131D01*
X100064710Y-109016143D01*
X100022500Y-109228346D01*
X100022500Y-110171654D01*
X97877500Y-110171654D01*
X97877500Y-109228346D01*
X97835290Y-109016143D01*
X97832609Y-109012131D01*
X97832608Y-109012128D01*
X97677179Y-108779512D01*
X97674499Y-108775501D01*
X97653859Y-108761710D01*
X97437872Y-108617392D01*
X97437869Y-108617391D01*
X97433857Y-108614710D01*
X97150000Y-108558247D01*
X96866143Y-108614710D01*
X96862131Y-108617391D01*
X96862128Y-108617392D01*
X96646141Y-108761710D01*
X96625501Y-108775501D01*
X96622821Y-108779512D01*
X96467392Y-109012128D01*
X96467391Y-109012131D01*
X96464710Y-109016143D01*
X96422500Y-109228346D01*
X96422500Y-110171654D01*
X95877500Y-110171654D01*
X95877500Y-109228346D01*
X95835290Y-109016143D01*
X95832609Y-109012131D01*
X95832608Y-109012128D01*
X95677179Y-108779512D01*
X95674499Y-108775501D01*
X95653859Y-108761710D01*
X95437872Y-108617392D01*
X95437869Y-108617391D01*
X95433857Y-108614710D01*
X95150000Y-108558247D01*
X94866143Y-108614710D01*
X94862131Y-108617391D01*
X94862128Y-108617392D01*
X94646141Y-108761710D01*
X94625501Y-108775501D01*
X94622821Y-108779512D01*
X94467392Y-109012128D01*
X94467391Y-109012131D01*
X94464710Y-109016143D01*
X94422500Y-109228346D01*
X94422500Y-110171654D01*
X91877500Y-110171654D01*
X91877500Y-109228346D01*
X91835290Y-109016143D01*
X91832609Y-109012131D01*
X91832608Y-109012128D01*
X91677179Y-108779512D01*
X91674499Y-108775501D01*
X91653859Y-108761710D01*
X91437872Y-108617392D01*
X91437869Y-108617391D01*
X91433857Y-108614710D01*
X91150000Y-108558247D01*
X90866143Y-108614710D01*
X90862131Y-108617391D01*
X90862128Y-108617392D01*
X90646141Y-108761710D01*
X90625501Y-108775501D01*
X90622821Y-108779512D01*
X90467392Y-109012128D01*
X90467391Y-109012131D01*
X90464710Y-109016143D01*
X90422500Y-109228346D01*
X90422500Y-110171654D01*
X88437500Y-110171654D01*
X88437500Y-109228346D01*
X88395290Y-109016143D01*
X88392609Y-109012131D01*
X88392608Y-109012128D01*
X88237179Y-108779512D01*
X88234499Y-108775501D01*
X88213859Y-108761710D01*
X87997872Y-108617392D01*
X87997869Y-108617391D01*
X87993857Y-108614710D01*
X87710000Y-108558247D01*
X87426143Y-108614710D01*
X87422131Y-108617391D01*
X87422128Y-108617392D01*
X87206141Y-108761710D01*
X87185501Y-108775501D01*
X87182821Y-108779512D01*
X87027392Y-109012128D01*
X87027391Y-109012131D01*
X87024710Y-109016143D01*
X86982500Y-109228346D01*
X86982500Y-110171654D01*
X86437500Y-110171654D01*
X86437500Y-109228346D01*
X86395290Y-109016143D01*
X86392609Y-109012131D01*
X86392608Y-109012128D01*
X86237179Y-108779512D01*
X86234499Y-108775501D01*
X86213859Y-108761710D01*
X85997872Y-108617392D01*
X85997869Y-108617391D01*
X85993857Y-108614710D01*
X85710000Y-108558247D01*
X85426143Y-108614710D01*
X85422131Y-108617391D01*
X85422128Y-108617392D01*
X85206141Y-108761710D01*
X85185501Y-108775501D01*
X85182821Y-108779512D01*
X85027392Y-109012128D01*
X85027391Y-109012131D01*
X85024710Y-109016143D01*
X84982500Y-109228346D01*
X84982500Y-110171654D01*
X74433792Y-110171654D01*
X74368331Y-110121424D01*
X74362583Y-110113934D01*
X74362283Y-110114234D01*
X74355392Y-110107343D01*
X74351662Y-110098337D01*
X74342657Y-110094607D01*
X74342656Y-110094606D01*
X74340777Y-110093828D01*
X74324880Y-110083206D01*
X72621673Y-108380000D01*
X74554560Y-108380000D01*
X74667453Y-108652547D01*
X74940000Y-108765440D01*
X75212547Y-108652547D01*
X75325440Y-108380000D01*
X75212547Y-108107453D01*
X74940000Y-107994560D01*
X74667453Y-108107453D01*
X74554560Y-108380000D01*
X72621673Y-108380000D01*
X71571673Y-107330000D01*
X73504560Y-107330000D01*
X73617453Y-107602547D01*
X73890000Y-107715440D01*
X74162547Y-107602547D01*
X74275440Y-107330000D01*
X74162547Y-107057453D01*
X73890000Y-106944560D01*
X73617453Y-107057453D01*
X73504560Y-107330000D01*
X71571673Y-107330000D01*
X70866792Y-106625119D01*
X70856170Y-106609222D01*
X70855391Y-106607341D01*
X70851661Y-106598337D01*
X70842657Y-106594607D01*
X70835765Y-106587715D01*
X70836064Y-106587416D01*
X70828575Y-106581668D01*
X70612443Y-106300000D01*
X72464560Y-106300000D01*
X72577453Y-106572547D01*
X72850000Y-106685440D01*
X73122547Y-106572547D01*
X73235440Y-106300000D01*
X73182277Y-106171654D01*
X84982500Y-106171654D01*
X85024710Y-106383857D01*
X85027391Y-106387869D01*
X85027392Y-106387872D01*
X85156882Y-106581668D01*
X85185501Y-106624499D01*
X85189512Y-106627179D01*
X85422128Y-106782608D01*
X85422131Y-106782609D01*
X85426143Y-106785290D01*
X85710000Y-106841753D01*
X85993857Y-106785290D01*
X85997869Y-106782609D01*
X85997872Y-106782608D01*
X86230488Y-106627179D01*
X86234499Y-106624499D01*
X86263118Y-106581668D01*
X86392608Y-106387872D01*
X86392609Y-106387869D01*
X86395290Y-106383857D01*
X86437500Y-106171654D01*
X90422500Y-106171654D01*
X90464710Y-106383857D01*
X90467391Y-106387869D01*
X90467392Y-106387872D01*
X90596882Y-106581668D01*
X90625501Y-106624499D01*
X90629512Y-106627179D01*
X90862128Y-106782608D01*
X90862131Y-106782609D01*
X90866143Y-106785290D01*
X91150000Y-106841753D01*
X91433857Y-106785290D01*
X91437869Y-106782609D01*
X91437872Y-106782608D01*
X91670488Y-106627179D01*
X91674499Y-106624499D01*
X91703118Y-106581668D01*
X91832608Y-106387872D01*
X91832609Y-106387869D01*
X91835290Y-106383857D01*
X91877500Y-106171654D01*
X94422500Y-106171654D01*
X94464710Y-106383857D01*
X94467391Y-106387869D01*
X94467392Y-106387872D01*
X94596882Y-106581668D01*
X94625501Y-106624499D01*
X94629512Y-106627179D01*
X94862128Y-106782608D01*
X94862131Y-106782609D01*
X94866143Y-106785290D01*
X95150000Y-106841753D01*
X95433857Y-106785290D01*
X95437869Y-106782609D01*
X95437872Y-106782608D01*
X95670488Y-106627179D01*
X95674499Y-106624499D01*
X95703118Y-106581668D01*
X95832608Y-106387872D01*
X95832609Y-106387869D01*
X95835290Y-106383857D01*
X95877500Y-106171654D01*
X96422500Y-106171654D01*
X96464710Y-106383857D01*
X96467391Y-106387869D01*
X96467392Y-106387872D01*
X96596882Y-106581668D01*
X96625501Y-106624499D01*
X96629512Y-106627179D01*
X96862128Y-106782608D01*
X96862131Y-106782609D01*
X96866143Y-106785290D01*
X97150000Y-106841753D01*
X97433857Y-106785290D01*
X97437869Y-106782609D01*
X97437872Y-106782608D01*
X97670488Y-106627179D01*
X97674499Y-106624499D01*
X97703118Y-106581668D01*
X97832608Y-106387872D01*
X97832609Y-106387869D01*
X97835290Y-106383857D01*
X97877500Y-106171654D01*
X100022500Y-106171654D01*
X100064710Y-106383857D01*
X100067391Y-106387869D01*
X100067392Y-106387872D01*
X100196882Y-106581668D01*
X100225501Y-106624499D01*
X100229512Y-106627179D01*
X100462128Y-106782608D01*
X100462131Y-106782609D01*
X100466143Y-106785290D01*
X100750000Y-106841753D01*
X101033857Y-106785290D01*
X101037869Y-106782609D01*
X101037872Y-106782608D01*
X101270488Y-106627179D01*
X101274499Y-106624499D01*
X101303118Y-106581668D01*
X101432608Y-106387872D01*
X101432609Y-106387869D01*
X101435290Y-106383857D01*
X101477500Y-106171654D01*
X104022500Y-106171654D01*
X104064710Y-106383857D01*
X104067391Y-106387869D01*
X104067392Y-106387872D01*
X104196882Y-106581668D01*
X104225501Y-106624499D01*
X104229512Y-106627179D01*
X104462128Y-106782608D01*
X104462131Y-106782609D01*
X104466143Y-106785290D01*
X104750000Y-106841753D01*
X105033857Y-106785290D01*
X105037869Y-106782609D01*
X105037872Y-106782608D01*
X105270488Y-106627179D01*
X105274499Y-106624499D01*
X105303118Y-106581668D01*
X105432608Y-106387872D01*
X105432609Y-106387869D01*
X105435290Y-106383857D01*
X105477500Y-106171654D01*
X106022500Y-106171654D01*
X106064710Y-106383857D01*
X106067391Y-106387869D01*
X106067392Y-106387872D01*
X106196882Y-106581668D01*
X106225501Y-106624499D01*
X106229512Y-106627179D01*
X106462128Y-106782608D01*
X106462131Y-106782609D01*
X106466143Y-106785290D01*
X106750000Y-106841753D01*
X107033857Y-106785290D01*
X107037869Y-106782609D01*
X107037872Y-106782608D01*
X107270488Y-106627179D01*
X107274499Y-106624499D01*
X107303118Y-106581668D01*
X107432608Y-106387872D01*
X107432609Y-106387869D01*
X107435290Y-106383857D01*
X107467883Y-106220000D01*
X119745433Y-106220000D01*
X119774732Y-106367294D01*
X119777411Y-106371303D01*
X119777412Y-106371306D01*
X119785799Y-106383857D01*
X119837105Y-106460640D01*
X120844284Y-107467818D01*
X120937630Y-107530192D01*
X120942364Y-107531134D01*
X120942365Y-107531134D01*
X121080188Y-107558549D01*
X121084924Y-107559491D01*
X121232218Y-107530192D01*
X121236227Y-107527513D01*
X121236230Y-107527512D01*
X121281779Y-107497076D01*
X121325564Y-107467819D01*
X122332742Y-106460640D01*
X122395116Y-106367294D01*
X122424415Y-106220000D01*
X122395116Y-106072706D01*
X122392437Y-106068697D01*
X122392436Y-106068694D01*
X122356913Y-106015532D01*
X122332743Y-105979360D01*
X121325564Y-104972182D01*
X121232218Y-104909808D01*
X121227484Y-104908866D01*
X121227483Y-104908866D01*
X121089660Y-104881451D01*
X121084924Y-104880509D01*
X120937630Y-104909808D01*
X120933621Y-104912487D01*
X120933618Y-104912488D01*
X120901838Y-104933724D01*
X120844284Y-104972181D01*
X119837106Y-105979360D01*
X119774732Y-106072706D01*
X119745433Y-106220000D01*
X107467883Y-106220000D01*
X107477500Y-106171654D01*
X107477500Y-105228346D01*
X107435290Y-105016143D01*
X107432609Y-105012131D01*
X107432608Y-105012128D01*
X107277179Y-104779512D01*
X107274499Y-104775501D01*
X107255317Y-104762684D01*
X107037872Y-104617392D01*
X107037869Y-104617391D01*
X107033857Y-104614710D01*
X106750000Y-104558247D01*
X106466143Y-104614710D01*
X106462131Y-104617391D01*
X106462128Y-104617392D01*
X106244683Y-104762684D01*
X106225501Y-104775501D01*
X106222821Y-104779512D01*
X106067392Y-105012128D01*
X106067391Y-105012131D01*
X106064710Y-105016143D01*
X106022500Y-105228346D01*
X106022500Y-106171654D01*
X105477500Y-106171654D01*
X105477500Y-105228346D01*
X105435290Y-105016143D01*
X105432609Y-105012131D01*
X105432608Y-105012128D01*
X105277179Y-104779512D01*
X105274499Y-104775501D01*
X105255317Y-104762684D01*
X105037872Y-104617392D01*
X105037869Y-104617391D01*
X105033857Y-104614710D01*
X104750000Y-104558247D01*
X104466143Y-104614710D01*
X104462131Y-104617391D01*
X104462128Y-104617392D01*
X104244683Y-104762684D01*
X104225501Y-104775501D01*
X104222821Y-104779512D01*
X104067392Y-105012128D01*
X104067391Y-105012131D01*
X104064710Y-105016143D01*
X104022500Y-105228346D01*
X104022500Y-106171654D01*
X101477500Y-106171654D01*
X101477500Y-105228346D01*
X101435290Y-105016143D01*
X101432609Y-105012131D01*
X101432608Y-105012128D01*
X101277179Y-104779512D01*
X101274499Y-104775501D01*
X101255317Y-104762684D01*
X101037872Y-104617392D01*
X101037869Y-104617391D01*
X101033857Y-104614710D01*
X100750000Y-104558247D01*
X100466143Y-104614710D01*
X100462131Y-104617391D01*
X100462128Y-104617392D01*
X100244683Y-104762684D01*
X100225501Y-104775501D01*
X100222821Y-104779512D01*
X100067392Y-105012128D01*
X100067391Y-105012131D01*
X100064710Y-105016143D01*
X100022500Y-105228346D01*
X100022500Y-106171654D01*
X97877500Y-106171654D01*
X97877500Y-105228346D01*
X97835290Y-105016143D01*
X97832609Y-105012131D01*
X97832608Y-105012128D01*
X97677179Y-104779512D01*
X97674499Y-104775501D01*
X97655317Y-104762684D01*
X97437872Y-104617392D01*
X97437869Y-104617391D01*
X97433857Y-104614710D01*
X97150000Y-104558247D01*
X96866143Y-104614710D01*
X96862131Y-104617391D01*
X96862128Y-104617392D01*
X96644683Y-104762684D01*
X96625501Y-104775501D01*
X96622821Y-104779512D01*
X96467392Y-105012128D01*
X96467391Y-105012131D01*
X96464710Y-105016143D01*
X96422500Y-105228346D01*
X96422500Y-106171654D01*
X95877500Y-106171654D01*
X95877500Y-105228346D01*
X95835290Y-105016143D01*
X95832609Y-105012131D01*
X95832608Y-105012128D01*
X95677179Y-104779512D01*
X95674499Y-104775501D01*
X95655317Y-104762684D01*
X95437872Y-104617392D01*
X95437869Y-104617391D01*
X95433857Y-104614710D01*
X95150000Y-104558247D01*
X94866143Y-104614710D01*
X94862131Y-104617391D01*
X94862128Y-104617392D01*
X94644683Y-104762684D01*
X94625501Y-104775501D01*
X94622821Y-104779512D01*
X94467392Y-105012128D01*
X94467391Y-105012131D01*
X94464710Y-105016143D01*
X94422500Y-105228346D01*
X94422500Y-106171654D01*
X91877500Y-106171654D01*
X91877500Y-105228346D01*
X91835290Y-105016143D01*
X91832609Y-105012131D01*
X91832608Y-105012128D01*
X91677179Y-104779512D01*
X91674499Y-104775501D01*
X91655317Y-104762684D01*
X91437872Y-104617392D01*
X91437869Y-104617391D01*
X91433857Y-104614710D01*
X91150000Y-104558247D01*
X90866143Y-104614710D01*
X90862131Y-104617391D01*
X90862128Y-104617392D01*
X90644683Y-104762684D01*
X90625501Y-104775501D01*
X90622821Y-104779512D01*
X90467392Y-105012128D01*
X90467391Y-105012131D01*
X90464710Y-105016143D01*
X90422500Y-105228346D01*
X90422500Y-106171654D01*
X86437500Y-106171654D01*
X86437500Y-105228346D01*
X86395290Y-105016143D01*
X86392609Y-105012131D01*
X86392608Y-105012128D01*
X86237179Y-104779512D01*
X86234499Y-104775501D01*
X86215317Y-104762684D01*
X85997872Y-104617392D01*
X85997869Y-104617391D01*
X85993857Y-104614710D01*
X85710000Y-104558247D01*
X85426143Y-104614710D01*
X85422131Y-104617391D01*
X85422128Y-104617392D01*
X85204683Y-104762684D01*
X85185501Y-104775501D01*
X85182821Y-104779512D01*
X85027392Y-105012128D01*
X85027391Y-105012131D01*
X85024710Y-105016143D01*
X84982500Y-105228346D01*
X84982500Y-106171654D01*
X73182277Y-106171654D01*
X73122547Y-106027453D01*
X72850000Y-105914560D01*
X72577453Y-106027453D01*
X72464560Y-106300000D01*
X70612443Y-106300000D01*
X70309439Y-105905118D01*
X70303043Y-105894040D01*
X70044558Y-105270000D01*
X71424560Y-105270000D01*
X71537453Y-105542547D01*
X71810000Y-105655440D01*
X72082547Y-105542547D01*
X72195440Y-105270000D01*
X72170587Y-105210000D01*
X75634560Y-105210000D01*
X75747453Y-105482547D01*
X76020000Y-105595440D01*
X76292547Y-105482547D01*
X76405440Y-105210000D01*
X76292547Y-104937453D01*
X76020000Y-104824560D01*
X75747453Y-104937453D01*
X75634560Y-105210000D01*
X72170587Y-105210000D01*
X72082547Y-104997453D01*
X71810000Y-104884560D01*
X71537453Y-104997453D01*
X71424560Y-105270000D01*
X70044558Y-105270000D01*
X69990623Y-105139789D01*
X69968320Y-105085945D01*
X69965009Y-105073591D01*
X69954495Y-104993724D01*
X69904950Y-104617392D01*
X69853700Y-104228110D01*
X69854768Y-104220000D01*
X70384560Y-104220000D01*
X70497453Y-104492547D01*
X70770000Y-104605440D01*
X71042547Y-104492547D01*
X71155440Y-104220000D01*
X71085023Y-104050000D01*
X121938247Y-104050000D01*
X121994710Y-104333857D01*
X121997391Y-104337869D01*
X121997392Y-104337872D01*
X122094727Y-104483544D01*
X122155501Y-104574499D01*
X122159512Y-104577179D01*
X122392128Y-104732608D01*
X122392131Y-104732609D01*
X122396143Y-104735290D01*
X122608346Y-104777500D01*
X123551654Y-104777500D01*
X123763857Y-104735290D01*
X123767869Y-104732609D01*
X123767872Y-104732608D01*
X124000488Y-104577179D01*
X124004499Y-104574499D01*
X124065273Y-104483544D01*
X124162608Y-104337872D01*
X124162609Y-104337869D01*
X124165290Y-104333857D01*
X124221753Y-104050000D01*
X124165290Y-103766143D01*
X124162609Y-103762131D01*
X124162608Y-103762128D01*
X124007179Y-103529512D01*
X124004499Y-103525501D01*
X123899645Y-103455440D01*
X123767872Y-103367392D01*
X123767869Y-103367391D01*
X123763857Y-103364710D01*
X123551654Y-103322500D01*
X122608346Y-103322500D01*
X122396143Y-103364710D01*
X122392131Y-103367391D01*
X122392128Y-103367392D01*
X122260355Y-103455440D01*
X122155501Y-103525501D01*
X122152821Y-103529512D01*
X121997392Y-103762128D01*
X121997391Y-103762131D01*
X121994710Y-103766143D01*
X121938247Y-104050000D01*
X71085023Y-104050000D01*
X71042547Y-103947453D01*
X70770000Y-103834560D01*
X70497453Y-103947453D01*
X70384560Y-104220000D01*
X69854768Y-104220000D01*
X69854932Y-104218751D01*
X69854508Y-104218751D01*
X69854508Y-104209005D01*
X69858238Y-104200000D01*
X69853729Y-104189113D01*
X69850000Y-104170365D01*
X69850000Y-102515000D01*
X82729560Y-102515000D01*
X82842453Y-102787547D01*
X83115000Y-102900440D01*
X83124005Y-102896710D01*
X83295165Y-102825813D01*
X83332668Y-102825813D01*
X83359187Y-102852331D01*
X83359187Y-102889835D01*
X83284560Y-103070000D01*
X83397453Y-103342547D01*
X83670000Y-103455440D01*
X83942547Y-103342547D01*
X84055440Y-103070000D01*
X83942547Y-102797453D01*
X83670000Y-102684560D01*
X83489835Y-102759187D01*
X83452332Y-102759187D01*
X83425813Y-102732669D01*
X83425813Y-102695165D01*
X83496710Y-102524005D01*
X83500440Y-102515000D01*
X83387547Y-102242453D01*
X83326448Y-102217145D01*
X85660170Y-102217145D01*
X85773063Y-102489692D01*
X86045610Y-102602585D01*
X86096909Y-102581336D01*
X86134411Y-102581336D01*
X86150308Y-102591958D01*
X86179650Y-102621300D01*
X86190272Y-102637196D01*
X86202280Y-102666185D01*
X86240272Y-102681922D01*
X86348465Y-102726737D01*
X86377452Y-102714730D01*
X86396204Y-102711000D01*
X103982261Y-102711000D01*
X104001013Y-102714730D01*
X104030000Y-102726737D01*
X104067992Y-102711000D01*
X104176185Y-102666185D01*
X104188193Y-102637196D01*
X104198815Y-102621300D01*
X104735302Y-102084813D01*
X104769950Y-102070461D01*
X104788699Y-102074190D01*
X104840000Y-102095440D01*
X105112547Y-101982547D01*
X105225440Y-101710000D01*
X105208978Y-101670256D01*
X105208978Y-101632753D01*
X105235497Y-101606235D01*
X105254248Y-101602505D01*
X105260995Y-101602505D01*
X105270000Y-101606235D01*
X105542547Y-101493342D01*
X105655440Y-101220795D01*
X105542547Y-100948248D01*
X105270000Y-100835355D01*
X104997453Y-100948248D01*
X104993724Y-100957251D01*
X104976204Y-100999547D01*
X104949685Y-101026065D01*
X104930934Y-101029795D01*
X104784950Y-101029795D01*
X104766199Y-101026065D01*
X104746218Y-101017789D01*
X104737213Y-101014059D01*
X104734106Y-101015346D01*
X104705355Y-101003437D01*
X104691003Y-100968789D01*
X104694733Y-100950037D01*
X104704608Y-100926198D01*
X104805990Y-100681440D01*
X104693097Y-100408893D01*
X104684094Y-100405164D01*
X104684093Y-100405163D01*
X104569903Y-100357864D01*
X104543384Y-100331346D01*
X104543384Y-100293843D01*
X104569903Y-100267324D01*
X104691790Y-100216837D01*
X104700795Y-100213107D01*
X104768356Y-100050000D01*
X121938247Y-100050000D01*
X121994710Y-100333857D01*
X121997391Y-100337869D01*
X121997392Y-100337872D01*
X122101172Y-100493190D01*
X122155501Y-100574499D01*
X122159512Y-100577179D01*
X122392128Y-100732608D01*
X122392131Y-100732609D01*
X122396143Y-100735290D01*
X122608346Y-100777500D01*
X123551654Y-100777500D01*
X123763857Y-100735290D01*
X123767869Y-100732609D01*
X123767872Y-100732608D01*
X124000488Y-100577179D01*
X124004499Y-100574499D01*
X124058828Y-100493190D01*
X124162608Y-100337872D01*
X124162609Y-100337869D01*
X124165290Y-100333857D01*
X124221753Y-100050000D01*
X124165290Y-99766143D01*
X124162609Y-99762131D01*
X124162608Y-99762128D01*
X124007179Y-99529512D01*
X124004499Y-99525501D01*
X123847524Y-99420614D01*
X123767872Y-99367392D01*
X123767869Y-99367391D01*
X123763857Y-99364710D01*
X123551654Y-99322500D01*
X122608346Y-99322500D01*
X122396143Y-99364710D01*
X122392131Y-99367391D01*
X122392128Y-99367392D01*
X122312476Y-99420614D01*
X122155501Y-99525501D01*
X122152821Y-99529512D01*
X121997392Y-99762128D01*
X121997391Y-99762131D01*
X121994710Y-99766143D01*
X121938247Y-100050000D01*
X104768356Y-100050000D01*
X104805635Y-99960000D01*
X104749944Y-99825549D01*
X104749944Y-99788048D01*
X104776463Y-99761529D01*
X104795214Y-99757799D01*
X120845462Y-99757799D01*
X120864214Y-99761529D01*
X120893201Y-99773536D01*
X120931193Y-99757799D01*
X120942144Y-99753263D01*
X121001394Y-99728721D01*
X121039386Y-99712984D01*
X121051394Y-99683995D01*
X121062016Y-99668099D01*
X121635302Y-99094813D01*
X121669950Y-99080461D01*
X121688699Y-99084190D01*
X121740000Y-99105440D01*
X122012547Y-98992547D01*
X122125440Y-98720000D01*
X122012547Y-98447453D01*
X121740000Y-98334560D01*
X121467453Y-98447453D01*
X121354560Y-98720000D01*
X121375809Y-98771299D01*
X121375809Y-98808801D01*
X121365187Y-98824698D01*
X120828438Y-99361447D01*
X120793790Y-99375799D01*
X110094534Y-99375799D01*
X110059886Y-99361447D01*
X110045534Y-99326799D01*
X110049264Y-99308047D01*
X110131710Y-99109005D01*
X110135440Y-99100000D01*
X110064506Y-98928750D01*
X110064506Y-98891249D01*
X110091024Y-98864730D01*
X110109776Y-98861000D01*
X110678091Y-98861000D01*
X110712739Y-98875352D01*
X110723361Y-98891248D01*
X110780255Y-99028601D01*
X110827453Y-99142547D01*
X111100000Y-99255440D01*
X111372547Y-99142547D01*
X111485440Y-98870000D01*
X111372547Y-98597453D01*
X111100000Y-98484560D01*
X111044459Y-98507566D01*
X111006957Y-98507566D01*
X110900000Y-98463263D01*
X110890995Y-98466993D01*
X110871013Y-98475270D01*
X110852261Y-98479000D01*
X104650025Y-98479000D01*
X104631274Y-98475270D01*
X104614422Y-98468290D01*
X104602288Y-98463264D01*
X104564298Y-98479000D01*
X104564296Y-98479000D01*
X104529473Y-98493424D01*
X104491971Y-98493424D01*
X104431293Y-98468290D01*
X104422288Y-98464560D01*
X104149741Y-98577453D01*
X104107545Y-98679324D01*
X104081027Y-98705843D01*
X104043524Y-98705843D01*
X103863887Y-98631435D01*
X103863886Y-98631435D01*
X103854881Y-98627705D01*
X103582334Y-98740598D01*
X103578605Y-98749601D01*
X103525124Y-98878713D01*
X103498605Y-98905231D01*
X103461102Y-98905231D01*
X103320361Y-98846934D01*
X103311356Y-98843204D01*
X103038809Y-98956097D01*
X102925916Y-99228644D01*
X103038809Y-99501191D01*
X103107182Y-99529512D01*
X103184538Y-99561554D01*
X103211056Y-99588073D01*
X103211056Y-99625576D01*
X103184537Y-99652094D01*
X103156457Y-99663725D01*
X103156456Y-99663726D01*
X103147453Y-99667455D01*
X103034560Y-99940002D01*
X103147453Y-100212549D01*
X103420000Y-100325442D01*
X103692547Y-100212549D01*
X103805440Y-99940002D01*
X103784191Y-99888703D01*
X103784191Y-99851201D01*
X103794813Y-99835304D01*
X103857966Y-99772151D01*
X103892614Y-99757799D01*
X104100162Y-99757799D01*
X104134810Y-99772151D01*
X104149162Y-99806799D01*
X104145432Y-99825549D01*
X104089741Y-99960000D01*
X104093471Y-99969005D01*
X104102937Y-99991859D01*
X104102937Y-100029362D01*
X104092315Y-100045258D01*
X103552925Y-100584648D01*
X103518277Y-100599000D01*
X96169411Y-100599000D01*
X96134763Y-100584648D01*
X95754813Y-100204698D01*
X95740461Y-100170050D01*
X95744190Y-100151301D01*
X95765440Y-100100000D01*
X95757524Y-100080890D01*
X97144560Y-100080890D01*
X97257453Y-100353437D01*
X97530000Y-100466330D01*
X97802547Y-100353437D01*
X97915440Y-100080890D01*
X97802547Y-99808343D01*
X97530000Y-99695450D01*
X97257453Y-99808343D01*
X97144560Y-100080890D01*
X95757524Y-100080890D01*
X95652547Y-99827453D01*
X95380000Y-99714560D01*
X95107453Y-99827453D01*
X95085310Y-99880911D01*
X95062516Y-99935939D01*
X95035997Y-99962457D01*
X95017246Y-99966187D01*
X88901863Y-99966187D01*
X88867215Y-99951835D01*
X88856593Y-99935939D01*
X88839073Y-99893643D01*
X88835344Y-99884640D01*
X88562797Y-99771747D01*
X88290250Y-99884640D01*
X88286521Y-99893643D01*
X88212987Y-100071167D01*
X88186468Y-100097685D01*
X88148965Y-100097685D01*
X88086679Y-100071885D01*
X87900000Y-99994560D01*
X87627453Y-100107453D01*
X87514560Y-100380000D01*
X87627453Y-100652547D01*
X87900000Y-100765440D01*
X88172547Y-100652547D01*
X88226545Y-100522185D01*
X88249810Y-100466020D01*
X88276329Y-100439502D01*
X88313832Y-100439502D01*
X88562797Y-100542627D01*
X88835344Y-100429734D01*
X88856593Y-100378435D01*
X88883112Y-100351917D01*
X88901863Y-100348187D01*
X95068072Y-100348187D01*
X95102721Y-100362540D01*
X95103723Y-100363542D01*
X95107453Y-100372547D01*
X95116456Y-100376276D01*
X95116457Y-100376277D01*
X95370995Y-100481710D01*
X95380000Y-100485440D01*
X95431299Y-100464191D01*
X95468801Y-100464191D01*
X95484698Y-100474813D01*
X95901185Y-100891300D01*
X95911807Y-100907196D01*
X95923815Y-100936185D01*
X95929927Y-100938717D01*
X95943081Y-100970473D01*
X95928729Y-101005121D01*
X95894081Y-101019473D01*
X93044984Y-101019473D01*
X93010336Y-101005121D01*
X92984813Y-100979598D01*
X92970461Y-100944950D01*
X92974190Y-100926201D01*
X92995440Y-100874900D01*
X92882547Y-100602353D01*
X92610000Y-100489460D01*
X92337453Y-100602353D01*
X92224560Y-100874900D01*
X92337453Y-101147447D01*
X92610000Y-101260340D01*
X92661299Y-101239091D01*
X92698801Y-101239091D01*
X92714698Y-101249713D01*
X92776758Y-101311773D01*
X92787380Y-101327669D01*
X92799388Y-101356658D01*
X92837380Y-101372395D01*
X92945573Y-101417210D01*
X92974560Y-101405203D01*
X92993312Y-101401473D01*
X96207341Y-101401473D01*
X96241989Y-101415825D01*
X96252611Y-101431721D01*
X96273860Y-101483020D01*
X96546407Y-101595913D01*
X96818954Y-101483020D01*
X96840203Y-101431721D01*
X96866722Y-101405203D01*
X96885473Y-101401473D01*
X99232051Y-101401473D01*
X99266699Y-101415825D01*
X99281051Y-101450473D01*
X99266699Y-101485121D01*
X99250803Y-101495743D01*
X99157453Y-101534410D01*
X99044560Y-101806957D01*
X99048290Y-101815962D01*
X99110772Y-101966806D01*
X99110772Y-102004309D01*
X99084254Y-102030828D01*
X99065502Y-102034558D01*
X87820704Y-102034558D01*
X87786056Y-102020206D01*
X87775434Y-102004309D01*
X87767965Y-101986276D01*
X87702547Y-101828343D01*
X87430000Y-101715450D01*
X87157453Y-101828343D01*
X87044560Y-102100890D01*
X87048290Y-102109895D01*
X87110983Y-102261248D01*
X87110983Y-102298751D01*
X87084465Y-102325270D01*
X87065713Y-102329000D01*
X86458052Y-102329000D01*
X86423404Y-102314648D01*
X86409052Y-102280000D01*
X86412782Y-102261249D01*
X86427320Y-102226151D01*
X86427320Y-102226150D01*
X86431050Y-102217145D01*
X86318157Y-101944598D01*
X86045610Y-101831705D01*
X85773063Y-101944598D01*
X85660170Y-102217145D01*
X83326448Y-102217145D01*
X83115000Y-102129560D01*
X82842453Y-102242453D01*
X82729560Y-102515000D01*
X69850000Y-102515000D01*
X69850000Y-102100000D01*
X72524560Y-102100000D01*
X72637453Y-102372547D01*
X72910000Y-102485440D01*
X73182547Y-102372547D01*
X73295440Y-102100000D01*
X73182547Y-101827453D01*
X72910000Y-101714560D01*
X72637453Y-101827453D01*
X72524560Y-102100000D01*
X69850000Y-102100000D01*
X69850000Y-100430000D01*
X77074560Y-100430000D01*
X77187453Y-100702547D01*
X77268776Y-100736232D01*
X77450995Y-100811710D01*
X77460000Y-100815440D01*
X77469005Y-100811710D01*
X77476783Y-100811710D01*
X77511431Y-100826062D01*
X77521450Y-100850250D01*
X77522053Y-100850000D01*
X77607486Y-101056253D01*
X77626893Y-101103107D01*
X77880000Y-101207947D01*
X77882894Y-101206748D01*
X77911431Y-101218569D01*
X77923252Y-101247106D01*
X77922053Y-101250000D01*
X78026893Y-101503107D01*
X78280000Y-101607947D01*
X78289005Y-101604217D01*
X78524102Y-101506837D01*
X78533107Y-101503107D01*
X78637947Y-101250000D01*
X78533107Y-100996893D01*
X78280000Y-100892053D01*
X78277106Y-100893252D01*
X78248569Y-100881431D01*
X78236748Y-100852894D01*
X78237947Y-100850000D01*
X78133107Y-100596893D01*
X78069360Y-100570488D01*
X77880000Y-100492053D01*
X77880250Y-100491450D01*
X77856062Y-100481431D01*
X77841710Y-100446783D01*
X77841710Y-100439005D01*
X77845440Y-100430000D01*
X77824729Y-100380000D01*
X84784560Y-100380000D01*
X84897453Y-100652547D01*
X85170000Y-100765440D01*
X85442547Y-100652547D01*
X85555440Y-100380000D01*
X85442547Y-100107453D01*
X85170000Y-99994560D01*
X84897453Y-100107453D01*
X84784560Y-100380000D01*
X77824729Y-100380000D01*
X77732547Y-100157453D01*
X77460000Y-100044560D01*
X77187453Y-100157453D01*
X77074560Y-100430000D01*
X69850000Y-100430000D01*
X69850000Y-97590000D01*
X79074560Y-97590000D01*
X79187453Y-97862547D01*
X79460000Y-97975440D01*
X79511299Y-97954191D01*
X79548801Y-97954191D01*
X79564698Y-97964813D01*
X80061186Y-98461300D01*
X80071808Y-98477197D01*
X80079335Y-98495368D01*
X80083815Y-98506185D01*
X80092820Y-98509915D01*
X80192005Y-98550999D01*
X80192006Y-98550999D01*
X80192008Y-98551000D01*
X80192010Y-98551000D01*
X80230000Y-98566736D01*
X80239005Y-98563006D01*
X80258986Y-98554730D01*
X80277737Y-98551000D01*
X94970934Y-98551000D01*
X95005582Y-98565352D01*
X95016204Y-98581248D01*
X95024967Y-98602403D01*
X95037453Y-98632547D01*
X95310000Y-98745440D01*
X95582547Y-98632547D01*
X95676759Y-98405100D01*
X98744560Y-98405100D01*
X98857453Y-98677647D01*
X99031165Y-98749601D01*
X99086110Y-98772360D01*
X99112628Y-98798879D01*
X99112628Y-98836380D01*
X99094560Y-98880000D01*
X99098290Y-98889005D01*
X99100772Y-98894996D01*
X99207453Y-99152547D01*
X99480000Y-99265440D01*
X99752547Y-99152547D01*
X99859228Y-98894996D01*
X99861710Y-98889005D01*
X99865440Y-98880000D01*
X99752547Y-98607453D01*
X99523890Y-98512740D01*
X99497372Y-98486221D01*
X99497372Y-98448720D01*
X99515440Y-98405100D01*
X99402547Y-98132553D01*
X99130000Y-98019660D01*
X98857453Y-98132553D01*
X98744560Y-98405100D01*
X95676759Y-98405100D01*
X95695440Y-98360000D01*
X95582547Y-98087453D01*
X95310000Y-97974560D01*
X95037453Y-98087453D01*
X95033724Y-98096456D01*
X95016204Y-98138752D01*
X94989685Y-98165270D01*
X94970934Y-98169000D01*
X80329410Y-98169000D01*
X80294762Y-98154648D01*
X79834813Y-97694698D01*
X79820461Y-97660050D01*
X79824190Y-97641301D01*
X79841298Y-97600000D01*
X90514560Y-97600000D01*
X90627453Y-97872547D01*
X90900000Y-97985440D01*
X91172547Y-97872547D01*
X91193796Y-97821248D01*
X91220315Y-97794730D01*
X91239066Y-97791000D01*
X92352261Y-97791000D01*
X92371013Y-97794730D01*
X92400000Y-97806737D01*
X92437992Y-97791000D01*
X92508193Y-97761922D01*
X92546185Y-97746185D01*
X92554054Y-97727189D01*
X92558193Y-97717196D01*
X92568815Y-97701300D01*
X93440115Y-96830000D01*
X94860170Y-96830000D01*
X94973063Y-97102547D01*
X95245610Y-97215440D01*
X95518157Y-97102547D01*
X95631050Y-96830000D01*
X95518157Y-96557453D01*
X95245610Y-96444560D01*
X94973063Y-96557453D01*
X94860170Y-96830000D01*
X93440115Y-96830000D01*
X94072604Y-96197511D01*
X94107252Y-96183159D01*
X95033095Y-96183159D01*
X95067743Y-96197511D01*
X95078365Y-96213407D01*
X95080425Y-96218379D01*
X95099614Y-96264706D01*
X95372161Y-96377599D01*
X95599123Y-96283588D01*
X96833417Y-96283588D01*
X96946310Y-96556135D01*
X97218857Y-96669028D01*
X97491404Y-96556135D01*
X97604297Y-96283588D01*
X97546850Y-96144900D01*
X102254560Y-96144900D01*
X102367453Y-96417447D01*
X102640000Y-96530340D01*
X102912547Y-96417447D01*
X102921125Y-96396738D01*
X102947644Y-96370220D01*
X102985147Y-96370220D01*
X103011665Y-96396738D01*
X103021151Y-96419639D01*
X103293698Y-96532532D01*
X103566245Y-96419639D01*
X103586456Y-96370845D01*
X103612974Y-96344326D01*
X103650477Y-96344326D01*
X103863570Y-96432592D01*
X103863571Y-96432592D01*
X103872576Y-96436322D01*
X104145123Y-96323429D01*
X104177792Y-96244560D01*
X104204017Y-96181248D01*
X104230536Y-96154730D01*
X104249287Y-96151000D01*
X106013361Y-96151000D01*
X106048009Y-96165352D01*
X106062361Y-96200000D01*
X106058631Y-96218750D01*
X105954560Y-96470000D01*
X105999070Y-96577457D01*
X105999070Y-96614958D01*
X105972552Y-96641477D01*
X105935048Y-96641477D01*
X105708115Y-96547478D01*
X105699110Y-96543748D01*
X105426563Y-96656641D01*
X105313670Y-96929188D01*
X105317400Y-96938193D01*
X105426563Y-97201735D01*
X105425646Y-97202115D01*
X105435351Y-97225545D01*
X105427766Y-97243842D01*
X105430813Y-97245104D01*
X105317920Y-97517651D01*
X105430813Y-97790198D01*
X105703360Y-97903091D01*
X105975907Y-97790198D01*
X105997156Y-97738899D01*
X106023675Y-97712381D01*
X106042426Y-97708651D01*
X110262703Y-97708651D01*
X110297351Y-97723003D01*
X110307973Y-97738899D01*
X110326053Y-97782547D01*
X110598600Y-97895440D01*
X110871147Y-97782547D01*
X110967471Y-97550000D01*
X115242053Y-97550000D01*
X115346893Y-97803107D01*
X115600000Y-97907947D01*
X115609005Y-97904217D01*
X115620729Y-97899361D01*
X115853107Y-97803107D01*
X115957947Y-97550000D01*
X122435309Y-97550000D01*
X122503413Y-97892383D01*
X122506095Y-97896397D01*
X122536340Y-97941662D01*
X122697358Y-98182642D01*
X122701369Y-98185322D01*
X122930302Y-98338290D01*
X122987617Y-98376587D01*
X123272604Y-98433274D01*
X123325139Y-98443724D01*
X123330000Y-98444691D01*
X123334862Y-98443724D01*
X123387396Y-98433274D01*
X123672383Y-98376587D01*
X123729699Y-98338290D01*
X123958631Y-98185322D01*
X123962642Y-98182642D01*
X124123660Y-97941662D01*
X124153905Y-97896397D01*
X124156587Y-97892383D01*
X124224691Y-97550000D01*
X124156587Y-97207617D01*
X124146188Y-97192053D01*
X124005609Y-96981662D01*
X123962642Y-96917358D01*
X123672383Y-96723413D01*
X123380218Y-96665298D01*
X123334736Y-96656251D01*
X123330000Y-96655309D01*
X123325264Y-96656251D01*
X123279782Y-96665298D01*
X122987617Y-96723413D01*
X122697358Y-96917358D01*
X122654391Y-96981662D01*
X122513813Y-97192053D01*
X122503413Y-97207617D01*
X122435309Y-97550000D01*
X115957947Y-97550000D01*
X115853107Y-97296893D01*
X115600000Y-97192053D01*
X115346893Y-97296893D01*
X115242053Y-97550000D01*
X110967471Y-97550000D01*
X110984040Y-97510000D01*
X110871147Y-97237453D01*
X110598600Y-97124560D01*
X110326053Y-97237453D01*
X110302978Y-97293163D01*
X110301636Y-97296402D01*
X110275118Y-97322921D01*
X110256366Y-97326651D01*
X106042426Y-97326651D01*
X106007778Y-97312299D01*
X105997156Y-97296403D01*
X105975907Y-97245104D01*
X105976824Y-97244724D01*
X105967119Y-97221294D01*
X105974704Y-97202997D01*
X105971657Y-97201735D01*
X105992906Y-97150436D01*
X106019425Y-97123918D01*
X106038176Y-97120188D01*
X108953073Y-97120188D01*
X108971825Y-97123918D01*
X109000812Y-97135925D01*
X109038804Y-97120188D01*
X109109005Y-97091110D01*
X109146997Y-97075373D01*
X109159005Y-97046384D01*
X109169627Y-97030488D01*
X109195302Y-97004813D01*
X109229950Y-96990461D01*
X109248699Y-96994190D01*
X109300000Y-97015440D01*
X109572547Y-96902547D01*
X109685440Y-96630000D01*
X109572547Y-96357453D01*
X109301714Y-96245270D01*
X109300341Y-96243897D01*
X109298286Y-96245270D01*
X109027453Y-96357453D01*
X108914560Y-96630000D01*
X108918290Y-96639005D01*
X108918290Y-96639006D01*
X108931309Y-96670437D01*
X108931309Y-96707940D01*
X108904790Y-96734458D01*
X108886039Y-96738188D01*
X106687686Y-96738188D01*
X106653038Y-96723836D01*
X106638686Y-96689188D01*
X106642416Y-96670437D01*
X106725440Y-96470000D01*
X106621369Y-96218751D01*
X106621369Y-96181249D01*
X106647887Y-96154730D01*
X106666639Y-96151000D01*
X109279534Y-96151000D01*
X109297856Y-96158589D01*
X109301715Y-96154730D01*
X109320466Y-96151000D01*
X112167586Y-96151000D01*
X112186337Y-96154730D01*
X112211981Y-96165352D01*
X112340000Y-96218379D01*
X112349005Y-96214649D01*
X112352004Y-96213407D01*
X112593107Y-96113539D01*
X112697947Y-95860432D01*
X112642256Y-95725982D01*
X112642256Y-95688481D01*
X112668774Y-95661962D01*
X112687526Y-95658232D01*
X113645029Y-95658232D01*
X113663781Y-95661962D01*
X113692768Y-95673969D01*
X113730760Y-95658232D01*
X113800961Y-95629154D01*
X113838953Y-95613417D01*
X113850961Y-95584428D01*
X113861583Y-95568532D01*
X114324742Y-95105373D01*
X114359390Y-95091021D01*
X114378142Y-95094751D01*
X114410000Y-95107947D01*
X114419005Y-95104217D01*
X114654102Y-95006837D01*
X114663107Y-95003107D01*
X114767947Y-94750000D01*
X114663107Y-94496893D01*
X114410000Y-94392053D01*
X114156893Y-94496893D01*
X114052053Y-94750000D01*
X114055783Y-94759005D01*
X114065249Y-94781859D01*
X114065249Y-94819362D01*
X114054627Y-94835258D01*
X113628005Y-95261880D01*
X113593357Y-95276232D01*
X104203789Y-95276232D01*
X104169141Y-95261880D01*
X104158519Y-95245984D01*
X104137278Y-95194705D01*
X104137278Y-95157202D01*
X104137887Y-95156291D01*
X104138401Y-95156078D01*
X104159650Y-95104779D01*
X104186169Y-95078261D01*
X104204920Y-95074531D01*
X112574801Y-95074531D01*
X112593553Y-95078261D01*
X112622540Y-95090268D01*
X112649494Y-95079103D01*
X112686996Y-95079103D01*
X112756235Y-95107783D01*
X112765240Y-95104053D01*
X113000337Y-95006673D01*
X113009342Y-95002943D01*
X113018476Y-94980891D01*
X113044994Y-94954372D01*
X113082497Y-94954372D01*
X113109016Y-94980891D01*
X113113162Y-94990901D01*
X113113163Y-94990902D01*
X113116893Y-94999907D01*
X113370000Y-95104747D01*
X113379005Y-95101017D01*
X113404956Y-95090268D01*
X113496554Y-95052327D01*
X113614102Y-95003637D01*
X113623107Y-94999907D01*
X113727947Y-94746800D01*
X113623107Y-94493693D01*
X113370000Y-94388853D01*
X113338141Y-94402049D01*
X113300638Y-94402049D01*
X113284742Y-94391427D01*
X113092015Y-94198700D01*
X113081393Y-94182804D01*
X113073114Y-94162818D01*
X113069385Y-94153815D01*
X113018851Y-94132883D01*
X112923200Y-94093263D01*
X112914195Y-94096993D01*
X112894213Y-94105270D01*
X112875461Y-94109000D01*
X104219066Y-94109000D01*
X104184418Y-94094648D01*
X104173796Y-94078752D01*
X104156276Y-94036456D01*
X104152547Y-94027453D01*
X103880000Y-93914560D01*
X103607453Y-94027453D01*
X103494560Y-94300000D01*
X103498290Y-94309005D01*
X103603583Y-94563204D01*
X103603583Y-94600707D01*
X103598021Y-94609031D01*
X103593307Y-94610984D01*
X103480414Y-94883531D01*
X103573371Y-95107947D01*
X103593299Y-95156058D01*
X103593299Y-95193561D01*
X103592690Y-95194472D01*
X103592176Y-95194685D01*
X103479283Y-95467232D01*
X103483013Y-95476237D01*
X103592176Y-95739779D01*
X103591660Y-95739993D01*
X103601767Y-95764392D01*
X103598037Y-95783143D01*
X103579818Y-95827129D01*
X103553300Y-95853648D01*
X103515797Y-95853648D01*
X103302704Y-95765382D01*
X103302703Y-95765382D01*
X103293698Y-95761652D01*
X103021151Y-95874545D01*
X103012912Y-95894436D01*
X103012573Y-95895254D01*
X102986054Y-95921772D01*
X102948551Y-95921772D01*
X102922033Y-95895254D01*
X102916276Y-95881356D01*
X102912547Y-95872353D01*
X102640000Y-95759460D01*
X102367453Y-95872353D01*
X102254560Y-96144900D01*
X97546850Y-96144900D01*
X97491404Y-96011041D01*
X97218857Y-95898148D01*
X96946310Y-96011041D01*
X96833417Y-96283588D01*
X95599123Y-96283588D01*
X95644708Y-96264706D01*
X95757601Y-95992159D01*
X95693371Y-95837094D01*
X95862771Y-95837094D01*
X95975664Y-96109641D01*
X96248211Y-96222534D01*
X96520758Y-96109641D01*
X96633651Y-95837094D01*
X96568580Y-95680000D01*
X100104560Y-95680000D01*
X100217453Y-95952547D01*
X100490000Y-96065440D01*
X100762547Y-95952547D01*
X100875440Y-95680000D01*
X100762547Y-95407453D01*
X100490000Y-95294560D01*
X100217453Y-95407453D01*
X100104560Y-95680000D01*
X96568580Y-95680000D01*
X96520758Y-95564547D01*
X96248211Y-95451654D01*
X95975664Y-95564547D01*
X95862771Y-95837094D01*
X95693371Y-95837094D01*
X95644708Y-95719612D01*
X95372161Y-95606719D01*
X95099614Y-95719612D01*
X95095885Y-95728615D01*
X95078365Y-95770911D01*
X95051846Y-95797429D01*
X95033095Y-95801159D01*
X94055580Y-95801159D01*
X94036828Y-95797429D01*
X94016846Y-95789152D01*
X94007841Y-95785422D01*
X93998836Y-95789152D01*
X93899648Y-95830237D01*
X93870662Y-95842243D01*
X93870661Y-95842244D01*
X93861656Y-95845974D01*
X93857926Y-95854980D01*
X93849648Y-95874963D01*
X93839026Y-95890859D01*
X92335237Y-97394648D01*
X92300589Y-97409000D01*
X91239066Y-97409000D01*
X91204418Y-97394648D01*
X91193796Y-97378752D01*
X91176276Y-97336456D01*
X91172547Y-97327453D01*
X90900000Y-97214560D01*
X90627453Y-97327453D01*
X90514560Y-97600000D01*
X79841298Y-97600000D01*
X79845440Y-97590000D01*
X79732547Y-97317453D01*
X79460000Y-97204560D01*
X79187453Y-97317453D01*
X79074560Y-97590000D01*
X69850000Y-97590000D01*
X69850000Y-96000000D01*
X83614560Y-96000000D01*
X83727453Y-96272547D01*
X84000000Y-96385440D01*
X84272547Y-96272547D01*
X84385440Y-96000000D01*
X85114560Y-96000000D01*
X85227453Y-96272547D01*
X85500000Y-96385440D01*
X85772547Y-96272547D01*
X85885440Y-96000000D01*
X86614560Y-96000000D01*
X86727453Y-96272547D01*
X87000000Y-96385440D01*
X87272547Y-96272547D01*
X87385440Y-96000000D01*
X88114560Y-96000000D01*
X88227453Y-96272547D01*
X88500000Y-96385440D01*
X88772547Y-96272547D01*
X88885440Y-96000000D01*
X88786028Y-95760000D01*
X89674560Y-95760000D01*
X89787453Y-96032547D01*
X90060000Y-96145440D01*
X90332547Y-96032547D01*
X90445440Y-95760000D01*
X90333085Y-95488752D01*
X90333085Y-95451248D01*
X90441710Y-95189005D01*
X90445440Y-95180000D01*
X90332547Y-94907453D01*
X90060000Y-94794560D01*
X89787453Y-94907453D01*
X89674560Y-95180000D01*
X89678290Y-95189005D01*
X89786915Y-95451248D01*
X89786915Y-95488752D01*
X89674560Y-95760000D01*
X88786028Y-95760000D01*
X88772547Y-95727453D01*
X88500000Y-95614560D01*
X88227453Y-95727453D01*
X88114560Y-96000000D01*
X87385440Y-96000000D01*
X87272547Y-95727453D01*
X87000000Y-95614560D01*
X86727453Y-95727453D01*
X86614560Y-96000000D01*
X85885440Y-96000000D01*
X85772547Y-95727453D01*
X85500000Y-95614560D01*
X85227453Y-95727453D01*
X85114560Y-96000000D01*
X84385440Y-96000000D01*
X84272547Y-95727453D01*
X84000000Y-95614560D01*
X83727453Y-95727453D01*
X83614560Y-96000000D01*
X69850000Y-96000000D01*
X69850000Y-94500000D01*
X83614560Y-94500000D01*
X83727453Y-94772547D01*
X84000000Y-94885440D01*
X84272547Y-94772547D01*
X84385440Y-94500000D01*
X85114560Y-94500000D01*
X85227453Y-94772547D01*
X85500000Y-94885440D01*
X85772547Y-94772547D01*
X85885440Y-94500000D01*
X86614560Y-94500000D01*
X86727453Y-94772547D01*
X87000000Y-94885440D01*
X87272547Y-94772547D01*
X87385440Y-94500000D01*
X88114560Y-94500000D01*
X88227453Y-94772547D01*
X88500000Y-94885440D01*
X88772547Y-94772547D01*
X88885440Y-94500000D01*
X88772547Y-94227453D01*
X88500000Y-94114560D01*
X88227453Y-94227453D01*
X88114560Y-94500000D01*
X87385440Y-94500000D01*
X87272547Y-94227453D01*
X87000000Y-94114560D01*
X86727453Y-94227453D01*
X86614560Y-94500000D01*
X85885440Y-94500000D01*
X85772547Y-94227453D01*
X85500000Y-94114560D01*
X85227453Y-94227453D01*
X85114560Y-94500000D01*
X84385440Y-94500000D01*
X84272547Y-94227453D01*
X84000000Y-94114560D01*
X83727453Y-94227453D01*
X83614560Y-94500000D01*
X69850000Y-94500000D01*
X69850000Y-93850000D01*
X93434560Y-93850000D01*
X93547453Y-94122547D01*
X93820000Y-94235440D01*
X93829005Y-94231710D01*
X93829006Y-94231710D01*
X93849706Y-94223136D01*
X93887209Y-94223136D01*
X93913727Y-94249655D01*
X93913727Y-94287157D01*
X93860948Y-94414578D01*
X93854560Y-94430000D01*
X93967453Y-94702547D01*
X94240000Y-94815440D01*
X94512547Y-94702547D01*
X94625440Y-94430000D01*
X94512547Y-94157453D01*
X94240000Y-94044560D01*
X94230995Y-94048290D01*
X94230994Y-94048290D01*
X94210294Y-94056864D01*
X94172791Y-94056864D01*
X94146273Y-94030345D01*
X94146273Y-93992843D01*
X94201710Y-93859006D01*
X94201710Y-93859005D01*
X94205440Y-93850000D01*
X94092547Y-93577453D01*
X93820000Y-93464560D01*
X93547453Y-93577453D01*
X93434560Y-93850000D01*
X69850000Y-93850000D01*
X69850000Y-93050000D01*
X81084560Y-93050000D01*
X81197453Y-93322547D01*
X81470000Y-93435440D01*
X81742547Y-93322547D01*
X81855440Y-93050000D01*
X81834191Y-92998701D01*
X81834191Y-92961199D01*
X81844813Y-92945302D01*
X82176341Y-92613774D01*
X82210989Y-92599422D01*
X83790207Y-92599422D01*
X83824855Y-92613774D01*
X83839207Y-92648422D01*
X83824855Y-92683070D01*
X83808959Y-92693692D01*
X83727453Y-92727453D01*
X83614560Y-93000000D01*
X83727453Y-93272547D01*
X84000000Y-93385440D01*
X84272547Y-93272547D01*
X84385440Y-93000000D01*
X84272547Y-92727453D01*
X84191041Y-92693692D01*
X84164523Y-92667173D01*
X84164523Y-92629670D01*
X84191042Y-92603152D01*
X84209793Y-92599422D01*
X85290207Y-92599422D01*
X85324855Y-92613774D01*
X85339207Y-92648422D01*
X85324855Y-92683070D01*
X85308959Y-92693692D01*
X85227453Y-92727453D01*
X85114560Y-93000000D01*
X85227453Y-93272547D01*
X85500000Y-93385440D01*
X85772547Y-93272547D01*
X85885440Y-93000000D01*
X85772547Y-92727453D01*
X85691041Y-92693692D01*
X85664523Y-92667173D01*
X85664523Y-92629670D01*
X85691042Y-92603152D01*
X85709793Y-92599422D01*
X86790207Y-92599422D01*
X86824855Y-92613774D01*
X86839207Y-92648422D01*
X86824855Y-92683070D01*
X86808959Y-92693692D01*
X86727453Y-92727453D01*
X86614560Y-93000000D01*
X86727453Y-93272547D01*
X87000000Y-93385440D01*
X87272547Y-93272547D01*
X87385440Y-93000000D01*
X87272547Y-92727453D01*
X87191041Y-92693692D01*
X87164523Y-92667173D01*
X87164523Y-92629670D01*
X87191042Y-92603152D01*
X87209793Y-92599422D01*
X88290207Y-92599422D01*
X88324855Y-92613774D01*
X88339207Y-92648422D01*
X88324855Y-92683070D01*
X88308959Y-92693692D01*
X88227453Y-92727453D01*
X88114560Y-93000000D01*
X88227453Y-93272547D01*
X88500000Y-93385440D01*
X88710207Y-93298369D01*
X96049714Y-93298369D01*
X96162607Y-93570916D01*
X96435154Y-93683809D01*
X96707701Y-93570916D01*
X96720507Y-93540000D01*
X104455448Y-93540000D01*
X104568341Y-93812547D01*
X104840888Y-93925440D01*
X105113435Y-93812547D01*
X105137825Y-93753666D01*
X105196595Y-93611781D01*
X105223113Y-93585262D01*
X105260616Y-93585262D01*
X105274421Y-93599061D01*
X105276831Y-93596651D01*
X105283724Y-93603544D01*
X105287453Y-93612547D01*
X105560000Y-93725440D01*
X105832547Y-93612547D01*
X105945440Y-93340000D01*
X105832547Y-93067453D01*
X105560000Y-92954560D01*
X105287453Y-93067453D01*
X105283724Y-93076456D01*
X105283723Y-93076457D01*
X105204293Y-93268219D01*
X105177775Y-93294738D01*
X105140272Y-93294738D01*
X105126467Y-93280939D01*
X105124057Y-93283349D01*
X105117164Y-93276456D01*
X105113435Y-93267453D01*
X104840888Y-93154560D01*
X104568341Y-93267453D01*
X104455448Y-93540000D01*
X96720507Y-93540000D01*
X96820594Y-93298369D01*
X96707701Y-93025822D01*
X96483428Y-92932925D01*
X96456910Y-92906406D01*
X96456910Y-92868903D01*
X96483428Y-92842385D01*
X96600573Y-92793862D01*
X96723107Y-92743107D01*
X96827947Y-92490000D01*
X96736820Y-92270000D01*
X111492053Y-92270000D01*
X111596893Y-92523107D01*
X111850000Y-92627947D01*
X111859005Y-92624217D01*
X112094102Y-92526837D01*
X112103107Y-92523107D01*
X112207947Y-92270000D01*
X112103107Y-92016893D01*
X111850000Y-91912053D01*
X111596893Y-92016893D01*
X111492053Y-92270000D01*
X96736820Y-92270000D01*
X96723107Y-92236893D01*
X96714102Y-92233163D01*
X96707210Y-92226271D01*
X96709705Y-92223776D01*
X96696092Y-92210150D01*
X96696110Y-92172647D01*
X96722620Y-92146151D01*
X96725694Y-92144878D01*
X96923107Y-92063107D01*
X97027947Y-91810000D01*
X96937003Y-91590441D01*
X96926837Y-91565898D01*
X96923107Y-91556893D01*
X96670000Y-91452053D01*
X96416893Y-91556893D01*
X96413163Y-91565898D01*
X96402997Y-91590441D01*
X96312053Y-91810000D01*
X96416893Y-92063107D01*
X96425898Y-92066837D01*
X96432790Y-92073729D01*
X96430295Y-92076224D01*
X96443908Y-92089850D01*
X96443890Y-92127353D01*
X96417380Y-92153849D01*
X96216893Y-92236893D01*
X96112053Y-92490000D01*
X96216893Y-92743107D01*
X96225898Y-92746837D01*
X96421725Y-92827951D01*
X96448244Y-92854469D01*
X96448244Y-92891972D01*
X96421726Y-92918491D01*
X96382932Y-92934560D01*
X96162607Y-93025822D01*
X96049714Y-93298369D01*
X88710207Y-93298369D01*
X88772547Y-93272547D01*
X88885440Y-93000000D01*
X88772547Y-92727453D01*
X88691041Y-92693692D01*
X88664523Y-92667173D01*
X88664523Y-92629670D01*
X88691042Y-92603152D01*
X88709793Y-92599422D01*
X93900515Y-92599422D01*
X93935163Y-92613774D01*
X93945785Y-92629670D01*
X93967034Y-92680969D01*
X94239581Y-92793862D01*
X94512128Y-92680969D01*
X94625021Y-92408422D01*
X94512128Y-92135875D01*
X94239581Y-92022982D01*
X94230576Y-92026712D01*
X94230575Y-92026712D01*
X94103387Y-92079395D01*
X94065885Y-92079395D01*
X94039366Y-92052876D01*
X94039366Y-92015375D01*
X94095440Y-91880000D01*
X93982547Y-91607453D01*
X93898832Y-91572777D01*
X93768553Y-91518813D01*
X93742035Y-91492294D01*
X93742035Y-91454792D01*
X93781710Y-91359008D01*
X93781710Y-91359007D01*
X93785440Y-91350002D01*
X93704256Y-91154006D01*
X96840556Y-91154006D01*
X96953449Y-91426553D01*
X97225996Y-91539446D01*
X97498543Y-91426553D01*
X97611436Y-91154006D01*
X97498543Y-90881459D01*
X97225996Y-90768566D01*
X96953449Y-90881459D01*
X96840556Y-91154006D01*
X93704256Y-91154006D01*
X93672547Y-91077455D01*
X93400000Y-90964562D01*
X93127453Y-91077455D01*
X93123724Y-91086458D01*
X93106204Y-91128754D01*
X93079685Y-91155272D01*
X93060934Y-91159002D01*
X88269413Y-91159002D01*
X88234765Y-91144650D01*
X87294813Y-90204698D01*
X87280461Y-90170050D01*
X87284190Y-90151301D01*
X87305440Y-90100000D01*
X87201886Y-89850000D01*
X93854560Y-89850000D01*
X93967453Y-90122547D01*
X94240000Y-90235440D01*
X94512547Y-90122547D01*
X94625440Y-89850000D01*
X94512547Y-89577453D01*
X94240000Y-89464560D01*
X93967453Y-89577453D01*
X93854560Y-89850000D01*
X87201886Y-89850000D01*
X87192547Y-89827453D01*
X86920000Y-89714560D01*
X86647453Y-89827453D01*
X86534560Y-90100000D01*
X86647453Y-90372547D01*
X86920000Y-90485440D01*
X86971299Y-90464191D01*
X87008801Y-90464191D01*
X87024698Y-90474813D01*
X87106537Y-90556652D01*
X87120889Y-90591300D01*
X87106537Y-90625948D01*
X87071889Y-90640300D01*
X87053138Y-90636570D01*
X87009006Y-90618290D01*
X87009005Y-90618290D01*
X87000000Y-90614560D01*
X86727453Y-90727453D01*
X86614560Y-91000000D01*
X86727453Y-91272547D01*
X87000000Y-91385440D01*
X87272547Y-91272547D01*
X87385440Y-91000000D01*
X87381710Y-90990994D01*
X87363430Y-90946862D01*
X87363430Y-90909359D01*
X87389949Y-90882841D01*
X87427452Y-90882841D01*
X87443348Y-90893463D01*
X88001187Y-91451302D01*
X88011809Y-91467198D01*
X88023817Y-91496187D01*
X88061809Y-91511924D01*
X88170002Y-91556739D01*
X88198989Y-91544732D01*
X88217741Y-91541002D01*
X93060934Y-91541002D01*
X93095582Y-91555354D01*
X93106204Y-91571250D01*
X93126914Y-91621248D01*
X93126914Y-91658751D01*
X93100396Y-91685270D01*
X93081644Y-91689000D01*
X85689411Y-91689000D01*
X85654763Y-91674648D01*
X85444675Y-91464560D01*
X85430323Y-91429912D01*
X85444675Y-91395264D01*
X85479323Y-91380912D01*
X85483334Y-91381710D01*
X85490995Y-91381710D01*
X85500000Y-91385440D01*
X85772547Y-91272547D01*
X85885440Y-91000000D01*
X85772547Y-90727453D01*
X85500000Y-90614560D01*
X85227453Y-90727453D01*
X85114560Y-91000000D01*
X85118290Y-91009005D01*
X85118290Y-91018751D01*
X85115358Y-91018751D01*
X85115360Y-91039424D01*
X85088844Y-91065945D01*
X85051341Y-91065949D01*
X85035440Y-91055325D01*
X84134813Y-90154698D01*
X84120461Y-90120050D01*
X84124190Y-90101301D01*
X84145440Y-90050000D01*
X84032547Y-89777453D01*
X83760000Y-89664560D01*
X83487453Y-89777453D01*
X83374560Y-90050000D01*
X83487453Y-90322547D01*
X83760000Y-90435440D01*
X83811299Y-90414191D01*
X83848801Y-90414191D01*
X83864698Y-90424813D01*
X83986644Y-90546759D01*
X84000996Y-90581407D01*
X83986644Y-90616055D01*
X83970747Y-90626677D01*
X83736457Y-90723723D01*
X83736456Y-90723724D01*
X83727453Y-90727453D01*
X83614560Y-91000000D01*
X83727453Y-91272547D01*
X84000000Y-91385440D01*
X84272547Y-91272547D01*
X84304692Y-91194944D01*
X84373323Y-91029253D01*
X84399841Y-91002734D01*
X84437344Y-91002734D01*
X84453241Y-91013356D01*
X85421185Y-91981300D01*
X85431807Y-91997196D01*
X85443815Y-92026185D01*
X85481807Y-92041922D01*
X85590000Y-92086737D01*
X85618987Y-92074730D01*
X85637739Y-92071000D01*
X93370934Y-92071000D01*
X93405582Y-92085352D01*
X93416204Y-92101249D01*
X93436261Y-92149671D01*
X93436261Y-92187174D01*
X93409742Y-92213692D01*
X93390991Y-92217422D01*
X82159317Y-92217422D01*
X82140565Y-92213692D01*
X82120583Y-92205415D01*
X82111578Y-92201685D01*
X82102573Y-92205415D01*
X82003385Y-92246500D01*
X81974399Y-92258506D01*
X81974398Y-92258507D01*
X81965393Y-92262237D01*
X81956016Y-92284875D01*
X81953385Y-92291226D01*
X81942763Y-92307122D01*
X81574698Y-92675187D01*
X81540050Y-92689539D01*
X81521301Y-92685810D01*
X81470000Y-92664560D01*
X81197453Y-92777453D01*
X81084560Y-93050000D01*
X69850000Y-93050000D01*
X69850000Y-92330000D01*
X73564560Y-92330000D01*
X73677453Y-92602547D01*
X73950000Y-92715440D01*
X74222547Y-92602547D01*
X74335440Y-92330000D01*
X74222547Y-92057453D01*
X73950000Y-91944560D01*
X73677453Y-92057453D01*
X73564560Y-92330000D01*
X69850000Y-92330000D01*
X69850000Y-90250000D01*
X74842053Y-90250000D01*
X74845783Y-90259005D01*
X74918865Y-90435440D01*
X74946893Y-90503107D01*
X74955898Y-90506837D01*
X75027366Y-90536440D01*
X75200000Y-90607947D01*
X75209005Y-90604217D01*
X75323838Y-90556652D01*
X75372634Y-90536440D01*
X75444102Y-90506837D01*
X75453107Y-90503107D01*
X75481136Y-90435440D01*
X75554217Y-90259005D01*
X75557947Y-90250000D01*
X75712053Y-90250000D01*
X75715783Y-90259005D01*
X75788865Y-90435440D01*
X75816893Y-90503107D01*
X75825898Y-90506837D01*
X75897366Y-90536440D01*
X76070000Y-90607947D01*
X76079005Y-90604217D01*
X76193838Y-90556652D01*
X76242634Y-90536440D01*
X76314102Y-90506837D01*
X76323107Y-90503107D01*
X76351136Y-90435440D01*
X76424217Y-90259005D01*
X76427947Y-90250000D01*
X76323107Y-89996893D01*
X76070000Y-89892053D01*
X75816893Y-89996893D01*
X75712053Y-90250000D01*
X75557947Y-90250000D01*
X75453107Y-89996893D01*
X75200000Y-89892053D01*
X74946893Y-89996893D01*
X74842053Y-90250000D01*
X69850000Y-90250000D01*
X69850000Y-89160000D01*
X73822053Y-89160000D01*
X73825783Y-89169005D01*
X73919972Y-89396397D01*
X73926893Y-89413107D01*
X74168042Y-89512994D01*
X74194560Y-89539511D01*
X74197313Y-89553353D01*
X74194560Y-89560000D01*
X74307453Y-89832547D01*
X74580000Y-89945440D01*
X74852547Y-89832547D01*
X74965440Y-89560000D01*
X74852547Y-89287453D01*
X74580000Y-89174560D01*
X74574629Y-89176785D01*
X74543615Y-89163938D01*
X74532993Y-89148041D01*
X74504124Y-89078343D01*
X74433107Y-88906893D01*
X74180000Y-88802053D01*
X73926893Y-88906893D01*
X73822053Y-89160000D01*
X69850000Y-89160000D01*
X69850000Y-88493600D01*
X80693453Y-88493600D01*
X80798293Y-88746707D01*
X81051400Y-88851547D01*
X81107413Y-88828346D01*
X81144915Y-88828346D01*
X81203800Y-88852737D01*
X81232787Y-88840730D01*
X81251539Y-88837000D01*
X96003853Y-88837000D01*
X96038501Y-88851352D01*
X96052853Y-88886000D01*
X96049124Y-88904748D01*
X95982911Y-89064600D01*
X96073676Y-89283724D01*
X96093447Y-89331456D01*
X96093447Y-89368959D01*
X96089806Y-89374407D01*
X96086722Y-89375685D01*
X96083084Y-89384467D01*
X96083083Y-89384469D01*
X95979220Y-89635217D01*
X95973829Y-89648232D01*
X96086722Y-89920779D01*
X96095725Y-89924508D01*
X96154201Y-89948730D01*
X96180719Y-89975249D01*
X96180719Y-90012752D01*
X96154200Y-90039270D01*
X95940865Y-90127636D01*
X95940864Y-90127637D01*
X95931861Y-90131366D01*
X95818968Y-90403913D01*
X95931861Y-90676460D01*
X96204408Y-90789353D01*
X96476955Y-90676460D01*
X96589848Y-90403913D01*
X96476955Y-90131366D01*
X96433929Y-90113544D01*
X96409476Y-90103415D01*
X96382958Y-90076896D01*
X96382958Y-90060000D01*
X101634560Y-90060000D01*
X101747453Y-90332547D01*
X102020000Y-90445440D01*
X102292547Y-90332547D01*
X102296690Y-90322547D01*
X102327286Y-90248680D01*
X102353804Y-90222161D01*
X102391307Y-90222161D01*
X102417826Y-90248679D01*
X102418373Y-90250000D01*
X102526905Y-90512018D01*
X102567959Y-90529023D01*
X102603852Y-90543891D01*
X102630370Y-90570410D01*
X102630370Y-90607913D01*
X102603851Y-90634431D01*
X102553897Y-90655122D01*
X102553896Y-90655123D01*
X102544891Y-90658853D01*
X102431998Y-90931400D01*
X102544891Y-91203947D01*
X102817438Y-91316840D01*
X103089985Y-91203947D01*
X103202878Y-90931400D01*
X103156734Y-90820000D01*
X109154560Y-90820000D01*
X109267453Y-91092547D01*
X109540000Y-91205440D01*
X109812547Y-91092547D01*
X109816276Y-91083544D01*
X109823169Y-91076651D01*
X109824263Y-91077745D01*
X109841249Y-91060759D01*
X109878752Y-91060759D01*
X109895738Y-91077745D01*
X109896831Y-91076651D01*
X109903724Y-91083544D01*
X109907453Y-91092547D01*
X110180000Y-91205440D01*
X110452547Y-91092547D01*
X110480086Y-91026063D01*
X110506603Y-90999545D01*
X110544106Y-90999545D01*
X110570625Y-91026063D01*
X110577453Y-91042547D01*
X110850000Y-91155440D01*
X111122547Y-91042547D01*
X111124910Y-91036842D01*
X111156260Y-91023856D01*
X111190908Y-91038208D01*
X111201530Y-91054104D01*
X111217453Y-91092547D01*
X111490000Y-91205440D01*
X111762547Y-91092547D01*
X111875440Y-90820000D01*
X111762547Y-90547453D01*
X111490000Y-90434560D01*
X111217453Y-90547453D01*
X111215090Y-90553158D01*
X111183740Y-90566144D01*
X111149092Y-90551792D01*
X111138470Y-90535895D01*
X111122547Y-90497453D01*
X110850000Y-90384560D01*
X110577453Y-90497453D01*
X110554945Y-90551792D01*
X110549915Y-90563936D01*
X110523397Y-90590455D01*
X110485894Y-90590455D01*
X110459375Y-90563937D01*
X110456276Y-90556456D01*
X110452547Y-90547453D01*
X110180000Y-90434560D01*
X109907453Y-90547453D01*
X109903724Y-90556456D01*
X109896831Y-90563349D01*
X109895737Y-90562255D01*
X109878751Y-90579241D01*
X109841248Y-90579241D01*
X109824263Y-90562256D01*
X109823169Y-90563349D01*
X109816276Y-90556456D01*
X109812547Y-90547453D01*
X109540000Y-90434560D01*
X109267453Y-90547453D01*
X109154560Y-90820000D01*
X103156734Y-90820000D01*
X103089985Y-90658853D01*
X103048931Y-90641848D01*
X103013038Y-90626980D01*
X102986520Y-90600461D01*
X102986520Y-90562958D01*
X103013039Y-90536440D01*
X103062994Y-90515748D01*
X103071999Y-90512018D01*
X103075042Y-90504673D01*
X103108030Y-90491008D01*
X103142678Y-90505360D01*
X103153300Y-90521256D01*
X103170586Y-90562987D01*
X103443133Y-90675880D01*
X103715680Y-90562987D01*
X103828573Y-90290440D01*
X103715680Y-90017893D01*
X103443133Y-89905000D01*
X103434128Y-89908730D01*
X103179590Y-90014163D01*
X103179589Y-90014164D01*
X103170586Y-90017893D01*
X103167544Y-90025238D01*
X103134556Y-90038903D01*
X103099908Y-90024552D01*
X103089285Y-90008655D01*
X103077718Y-89980730D01*
X103071999Y-89966924D01*
X102799452Y-89854031D01*
X102526905Y-89966924D01*
X102523176Y-89975927D01*
X102523175Y-89975928D01*
X102492166Y-90050791D01*
X102465648Y-90077310D01*
X102428145Y-90077310D01*
X102401626Y-90050792D01*
X102321670Y-89857761D01*
X102292547Y-89787453D01*
X102020000Y-89674560D01*
X101747453Y-89787453D01*
X101669665Y-89975249D01*
X101638375Y-90050791D01*
X101634560Y-90060000D01*
X96382958Y-90060000D01*
X96382958Y-90039393D01*
X96409477Y-90012875D01*
X96622812Y-89924509D01*
X96622813Y-89924508D01*
X96631816Y-89920779D01*
X96744709Y-89648232D01*
X96634173Y-89381375D01*
X96634173Y-89343873D01*
X96637814Y-89338425D01*
X96640898Y-89337147D01*
X96644536Y-89328365D01*
X96644537Y-89328363D01*
X96750061Y-89073605D01*
X96753791Y-89064600D01*
X96687579Y-88904750D01*
X96687579Y-88867249D01*
X96714097Y-88840730D01*
X96732849Y-88837000D01*
X97969989Y-88837000D01*
X98004637Y-88851352D01*
X98484785Y-89331500D01*
X98495407Y-89347396D01*
X98507415Y-89376385D01*
X98545407Y-89392122D01*
X98653600Y-89436937D01*
X98682587Y-89424930D01*
X98701339Y-89421200D01*
X100302185Y-89421200D01*
X100336833Y-89435552D01*
X100347455Y-89451449D01*
X100372947Y-89512993D01*
X100381693Y-89534107D01*
X100390698Y-89537837D01*
X100477337Y-89573724D01*
X100634800Y-89638947D01*
X100643805Y-89635217D01*
X100878902Y-89537837D01*
X100887907Y-89534107D01*
X100992747Y-89281000D01*
X100903530Y-89065611D01*
X100891637Y-89036898D01*
X100887907Y-89027893D01*
X100634800Y-88923053D01*
X100616874Y-88930478D01*
X100579373Y-88930478D01*
X100552854Y-88903960D01*
X100552854Y-88866457D01*
X100563476Y-88850560D01*
X101018272Y-88395764D01*
X101052920Y-88381412D01*
X101071669Y-88385141D01*
X101122970Y-88406391D01*
X101395517Y-88293498D01*
X101508410Y-88020951D01*
X101395517Y-87748404D01*
X101122970Y-87635511D01*
X100850423Y-87748404D01*
X100846694Y-87757407D01*
X100841764Y-87762337D01*
X100807116Y-87776689D01*
X100784123Y-87767165D01*
X100783668Y-87768263D01*
X100520126Y-87659100D01*
X100511121Y-87655370D01*
X100238574Y-87768263D01*
X100234845Y-87777266D01*
X100213910Y-87827806D01*
X100187391Y-87854324D01*
X100149888Y-87854324D01*
X100123370Y-87827805D01*
X100059939Y-87674669D01*
X100059938Y-87674668D01*
X100056209Y-87665665D01*
X99783662Y-87552772D01*
X99774657Y-87556502D01*
X99774656Y-87556502D01*
X99522114Y-87661108D01*
X99484611Y-87661108D01*
X99468715Y-87650486D01*
X99465297Y-87647068D01*
X99461568Y-87638065D01*
X99189021Y-87525172D01*
X99137722Y-87546421D01*
X99100220Y-87546421D01*
X99084323Y-87535799D01*
X99077224Y-87528700D01*
X99066602Y-87512804D01*
X99060085Y-87497072D01*
X99054594Y-87483815D01*
X99045589Y-87480085D01*
X99045588Y-87480084D01*
X98946401Y-87439000D01*
X98917414Y-87426993D01*
X98908409Y-87423263D01*
X98899404Y-87426993D01*
X98879422Y-87435270D01*
X98860670Y-87439000D01*
X83616624Y-87439000D01*
X83581976Y-87424648D01*
X82896287Y-86738959D01*
X95703160Y-86738959D01*
X95816053Y-87011506D01*
X96088600Y-87124399D01*
X96244072Y-87060000D01*
X99564560Y-87060000D01*
X99677453Y-87332547D01*
X99950000Y-87445440D01*
X100222547Y-87332547D01*
X100335440Y-87060000D01*
X100314191Y-87008701D01*
X100314191Y-86971199D01*
X100324813Y-86955302D01*
X100504763Y-86775352D01*
X100539411Y-86761000D01*
X105092515Y-86761000D01*
X105127163Y-86775352D01*
X105141515Y-86810000D01*
X105129885Y-86838077D01*
X105127452Y-86839085D01*
X105014559Y-87111632D01*
X105127452Y-87384179D01*
X105136455Y-87387908D01*
X105238317Y-87430101D01*
X105264835Y-87456620D01*
X105264835Y-87494123D01*
X105238316Y-87520641D01*
X105219565Y-87524371D01*
X105075359Y-87524371D01*
X105040711Y-87510019D01*
X104759394Y-87228702D01*
X104748772Y-87212806D01*
X104740494Y-87192823D01*
X104736764Y-87183817D01*
X104727759Y-87180087D01*
X104727758Y-87180086D01*
X104638858Y-87143263D01*
X104599584Y-87126995D01*
X104590579Y-87123265D01*
X104581574Y-87126995D01*
X104561592Y-87135272D01*
X104542840Y-87139002D01*
X104179066Y-87139002D01*
X104144418Y-87124650D01*
X104133796Y-87108754D01*
X104116276Y-87066458D01*
X104112547Y-87057455D01*
X103840000Y-86944562D01*
X103567453Y-87057455D01*
X103454560Y-87330002D01*
X103567453Y-87602549D01*
X103806725Y-87701659D01*
X103830995Y-87711712D01*
X103840000Y-87715442D01*
X103844147Y-87713724D01*
X103873938Y-87726064D01*
X103888290Y-87760712D01*
X103888290Y-87770105D01*
X103884560Y-87779110D01*
X103997453Y-88051657D01*
X104006456Y-88055386D01*
X104192882Y-88132607D01*
X104219400Y-88159126D01*
X104219400Y-88196629D01*
X104184741Y-88280303D01*
X104297634Y-88552850D01*
X104306637Y-88556579D01*
X104468433Y-88623598D01*
X104494951Y-88650117D01*
X104494951Y-88687620D01*
X104447545Y-88802067D01*
X104560438Y-89074614D01*
X104832985Y-89187507D01*
X105105532Y-89074614D01*
X105218425Y-88802067D01*
X105197176Y-88750768D01*
X105197176Y-88713266D01*
X105207798Y-88697369D01*
X105223914Y-88681253D01*
X105258562Y-88666901D01*
X107537779Y-88666901D01*
X107572427Y-88681253D01*
X107586779Y-88715901D01*
X107583049Y-88734652D01*
X107534137Y-88852737D01*
X107514560Y-88900000D01*
X107627453Y-89172547D01*
X107900000Y-89285440D01*
X108172547Y-89172547D01*
X108285440Y-88900000D01*
X108265863Y-88852737D01*
X108216951Y-88734652D01*
X108216951Y-88697150D01*
X108243470Y-88670631D01*
X108262221Y-88666901D01*
X120956490Y-88666901D01*
X120991138Y-88681253D01*
X122560730Y-90250845D01*
X122575082Y-90285493D01*
X122566824Y-90312715D01*
X122503413Y-90407617D01*
X122435309Y-90750000D01*
X122503413Y-91092383D01*
X122697358Y-91382642D01*
X122716248Y-91395264D01*
X122961682Y-91559258D01*
X122982517Y-91590441D01*
X122975201Y-91627223D01*
X122961682Y-91640742D01*
X122889459Y-91689000D01*
X122697358Y-91817358D01*
X122694678Y-91821369D01*
X122515285Y-92089850D01*
X122503413Y-92107617D01*
X122435309Y-92450000D01*
X122503413Y-92792383D01*
X122697358Y-93082642D01*
X122701369Y-93085322D01*
X122961682Y-93259258D01*
X122982517Y-93290441D01*
X122975201Y-93327223D01*
X122961682Y-93340742D01*
X122790809Y-93454916D01*
X122754027Y-93462232D01*
X122728938Y-93448822D01*
X122727413Y-93447297D01*
X122716791Y-93431401D01*
X122708513Y-93411417D01*
X122704784Y-93402414D01*
X122666792Y-93386677D01*
X122558599Y-93341862D01*
X122549594Y-93345592D01*
X122529612Y-93353869D01*
X122510860Y-93357599D01*
X108360710Y-93357599D01*
X108326062Y-93343247D01*
X108316287Y-93319649D01*
X108315440Y-93320000D01*
X108206276Y-93056456D01*
X108202547Y-93047453D01*
X107930000Y-92934560D01*
X107657453Y-93047453D01*
X107544560Y-93320000D01*
X107657453Y-93592547D01*
X107930000Y-93705440D01*
X107939005Y-93701710D01*
X107969292Y-93689165D01*
X108006795Y-93689165D01*
X108011346Y-93692206D01*
X108012414Y-93694784D01*
X108050406Y-93710521D01*
X108158599Y-93755336D01*
X108187586Y-93743329D01*
X108206338Y-93739599D01*
X122459187Y-93739599D01*
X122493548Y-93753666D01*
X122493609Y-93753726D01*
X122508246Y-93788254D01*
X122504915Y-93805369D01*
X122503413Y-93807617D01*
X122502471Y-93812351D01*
X122502471Y-93812352D01*
X122442358Y-94114560D01*
X122435309Y-94150000D01*
X122503413Y-94492383D01*
X122506095Y-94496397D01*
X122603501Y-94642176D01*
X122697358Y-94782642D01*
X122987617Y-94976587D01*
X123330000Y-95044691D01*
X123672383Y-94976587D01*
X123962642Y-94782642D01*
X124056499Y-94642176D01*
X124153905Y-94496397D01*
X124156587Y-94492383D01*
X124224691Y-94150000D01*
X124156587Y-93807617D01*
X124091710Y-93710521D01*
X123965322Y-93521369D01*
X123962642Y-93517358D01*
X123790616Y-93402414D01*
X123698318Y-93340742D01*
X123677483Y-93309559D01*
X123684799Y-93272777D01*
X123698318Y-93259258D01*
X123958631Y-93085322D01*
X123962642Y-93082642D01*
X124156587Y-92792383D01*
X124224691Y-92450000D01*
X124156587Y-92107617D01*
X124144716Y-92089850D01*
X123965322Y-91821369D01*
X123962642Y-91817358D01*
X123770541Y-91689000D01*
X123698318Y-91640742D01*
X123677483Y-91609559D01*
X123684799Y-91572777D01*
X123698318Y-91559258D01*
X123943752Y-91395264D01*
X123962642Y-91382642D01*
X124156587Y-91092383D01*
X124224691Y-90750000D01*
X124156587Y-90407617D01*
X123962642Y-90117358D01*
X123813782Y-90017893D01*
X123698318Y-89940742D01*
X123677483Y-89909559D01*
X123684799Y-89872777D01*
X123698318Y-89859258D01*
X123958631Y-89685322D01*
X123962642Y-89682642D01*
X124156587Y-89392383D01*
X124224691Y-89050000D01*
X124156587Y-88707617D01*
X123962642Y-88417358D01*
X123784691Y-88298455D01*
X123698318Y-88240742D01*
X123677483Y-88209559D01*
X123684799Y-88172777D01*
X123698318Y-88159258D01*
X123958631Y-87985322D01*
X123962642Y-87982642D01*
X124099870Y-87777266D01*
X124153905Y-87696397D01*
X124156587Y-87692383D01*
X124224691Y-87350000D01*
X124156587Y-87007617D01*
X123962642Y-86717358D01*
X123849183Y-86641547D01*
X123698318Y-86540742D01*
X123677483Y-86509559D01*
X123684799Y-86472777D01*
X123698318Y-86459258D01*
X123958631Y-86285322D01*
X123962642Y-86282642D01*
X124156587Y-85992383D01*
X124224691Y-85650000D01*
X124156587Y-85307617D01*
X123962642Y-85017358D01*
X123822176Y-84923501D01*
X123676397Y-84826095D01*
X123672383Y-84823413D01*
X123330000Y-84755309D01*
X122987617Y-84823413D01*
X122983603Y-84826095D01*
X122837824Y-84923501D01*
X122697358Y-85017358D01*
X122503413Y-85307617D01*
X122435309Y-85650000D01*
X122503413Y-85992383D01*
X122506095Y-85996397D01*
X122566824Y-86087284D01*
X122574140Y-86124066D01*
X122560730Y-86149155D01*
X121199866Y-87510019D01*
X121165218Y-87524371D01*
X105580433Y-87524371D01*
X105545785Y-87510019D01*
X105531433Y-87475371D01*
X105545785Y-87440723D01*
X105561681Y-87430101D01*
X105663543Y-87387908D01*
X105672546Y-87384179D01*
X105785439Y-87111632D01*
X105672546Y-86839085D01*
X105670113Y-86838077D01*
X105658483Y-86810000D01*
X105672835Y-86775352D01*
X105707483Y-86761000D01*
X118660934Y-86761000D01*
X118695582Y-86775352D01*
X118706204Y-86791248D01*
X118727453Y-86842547D01*
X119000000Y-86955440D01*
X119272547Y-86842547D01*
X119385440Y-86570000D01*
X119272547Y-86297453D01*
X119000000Y-86184560D01*
X118727453Y-86297453D01*
X118723724Y-86306456D01*
X118706204Y-86348752D01*
X118679685Y-86375270D01*
X118660934Y-86379000D01*
X100487739Y-86379000D01*
X100468987Y-86375270D01*
X100449005Y-86366993D01*
X100440000Y-86363263D01*
X100430995Y-86366993D01*
X100331807Y-86408078D01*
X100302821Y-86420084D01*
X100302820Y-86420085D01*
X100293815Y-86423815D01*
X100290085Y-86432821D01*
X100281807Y-86452804D01*
X100271185Y-86468700D01*
X100054698Y-86685187D01*
X100020050Y-86699539D01*
X100001301Y-86695810D01*
X99950000Y-86674560D01*
X99677453Y-86787453D01*
X99564560Y-87060000D01*
X96244072Y-87060000D01*
X96361147Y-87011506D01*
X96474040Y-86738959D01*
X96465093Y-86717358D01*
X96367597Y-86481981D01*
X96367597Y-86444479D01*
X96470310Y-86196508D01*
X96470310Y-86196507D01*
X96474040Y-86187502D01*
X96361147Y-85914955D01*
X96088600Y-85802062D01*
X95816053Y-85914955D01*
X95703160Y-86187502D01*
X95706890Y-86196507D01*
X95706890Y-86196508D01*
X95809603Y-86444479D01*
X95809603Y-86481981D01*
X95712107Y-86717358D01*
X95703160Y-86738959D01*
X82896287Y-86738959D01*
X82822026Y-86664698D01*
X82807674Y-86630050D01*
X82811403Y-86611301D01*
X82832653Y-86560000D01*
X82719760Y-86287453D01*
X82447213Y-86174560D01*
X82174666Y-86287453D01*
X82061773Y-86560000D01*
X82065503Y-86569005D01*
X82131129Y-86727440D01*
X82131129Y-86764943D01*
X82104611Y-86791462D01*
X82003018Y-86833544D01*
X81921155Y-86867453D01*
X81808262Y-87140000D01*
X81867320Y-87282579D01*
X81867320Y-87320080D01*
X81840802Y-87346599D01*
X81821158Y-87354736D01*
X81667644Y-87418324D01*
X81554751Y-87690871D01*
X81558481Y-87699876D01*
X81576386Y-87743103D01*
X81576386Y-87780606D01*
X81549867Y-87807124D01*
X81531116Y-87810854D01*
X81530596Y-87810854D01*
X81521591Y-87807124D01*
X81249044Y-87920017D01*
X81192972Y-88055386D01*
X81162612Y-88128682D01*
X81136093Y-88155200D01*
X81098591Y-88155200D01*
X81089316Y-88151358D01*
X81051400Y-88135653D01*
X80798293Y-88240493D01*
X80693453Y-88493600D01*
X69850000Y-88493600D01*
X69850000Y-85110000D01*
X104894560Y-85110000D01*
X105007453Y-85382547D01*
X105280000Y-85495440D01*
X105552547Y-85382547D01*
X105665440Y-85110000D01*
X105607450Y-84970000D01*
X107204560Y-84970000D01*
X107317453Y-85242547D01*
X107590000Y-85355440D01*
X107862547Y-85242547D01*
X107975440Y-84970000D01*
X107862547Y-84697453D01*
X107590000Y-84584560D01*
X107317453Y-84697453D01*
X107204560Y-84970000D01*
X105607450Y-84970000D01*
X105552547Y-84837453D01*
X105280000Y-84724560D01*
X105007453Y-84837453D01*
X104894560Y-85110000D01*
X69850000Y-85110000D01*
X69850000Y-83330000D01*
X73295899Y-83330000D01*
X73408792Y-83602547D01*
X73681339Y-83715440D01*
X73953886Y-83602547D01*
X74066779Y-83330000D01*
X73953886Y-83057453D01*
X73681339Y-82944560D01*
X73408792Y-83057453D01*
X73295899Y-83330000D01*
X69850000Y-83330000D01*
X69850000Y-82760000D01*
X75704560Y-82760000D01*
X75817453Y-83032547D01*
X75899317Y-83066456D01*
X76069040Y-83136758D01*
X76084936Y-83147380D01*
X77637854Y-84700298D01*
X77648476Y-84716194D01*
X77653487Y-84728290D01*
X77667611Y-84762389D01*
X77824802Y-84827500D01*
X77824805Y-84827501D01*
X77880000Y-84850363D01*
X77926191Y-84831230D01*
X77944943Y-84827500D01*
X101059664Y-84827500D01*
X101078416Y-84831230D01*
X101330000Y-84935440D01*
X101602547Y-84822547D01*
X101715440Y-84550000D01*
X101602547Y-84277453D01*
X101330000Y-84164560D01*
X101320995Y-84168290D01*
X101078416Y-84268770D01*
X101059664Y-84272500D01*
X78015240Y-84272500D01*
X77980592Y-84258148D01*
X76477380Y-82754936D01*
X76466758Y-82739040D01*
X76429876Y-82650000D01*
X76974560Y-82650000D01*
X77087453Y-82922547D01*
X77360000Y-83035440D01*
X77632547Y-82922547D01*
X77745440Y-82650000D01*
X77741298Y-82640000D01*
X82954560Y-82640000D01*
X83067453Y-82912547D01*
X83340000Y-83025440D01*
X83612547Y-82912547D01*
X83721298Y-82650000D01*
X96224560Y-82650000D01*
X96337453Y-82922547D01*
X96610000Y-83035440D01*
X96882547Y-82922547D01*
X96903948Y-82870880D01*
X96924507Y-82821248D01*
X96951026Y-82794730D01*
X96969777Y-82791000D01*
X110644487Y-82791000D01*
X110679135Y-82805352D01*
X110693487Y-82840000D01*
X110679135Y-82874648D01*
X110663238Y-82885270D01*
X110586893Y-82916893D01*
X110482053Y-83170000D01*
X110586893Y-83423107D01*
X110840000Y-83527947D01*
X110849005Y-83524217D01*
X111084102Y-83426837D01*
X111093107Y-83423107D01*
X111197947Y-83170000D01*
X111189663Y-83150000D01*
X121938247Y-83150000D01*
X121994710Y-83433857D01*
X121997391Y-83437869D01*
X121997392Y-83437872D01*
X122101409Y-83593544D01*
X122155501Y-83674499D01*
X122159512Y-83677179D01*
X122392128Y-83832608D01*
X122392131Y-83832609D01*
X122396143Y-83835290D01*
X122608346Y-83877500D01*
X123551654Y-83877500D01*
X123763857Y-83835290D01*
X123767869Y-83832609D01*
X123767872Y-83832608D01*
X124000488Y-83677179D01*
X124004499Y-83674499D01*
X124058591Y-83593544D01*
X124162608Y-83437872D01*
X124162609Y-83437869D01*
X124165290Y-83433857D01*
X124221753Y-83150000D01*
X124165290Y-82866143D01*
X124162609Y-82862131D01*
X124162608Y-82862128D01*
X124007179Y-82629512D01*
X124004499Y-82625501D01*
X123985317Y-82612684D01*
X123767872Y-82467392D01*
X123767869Y-82467391D01*
X123763857Y-82464710D01*
X123551654Y-82422500D01*
X122608346Y-82422500D01*
X122396143Y-82464710D01*
X122392131Y-82467391D01*
X122392128Y-82467392D01*
X122174683Y-82612684D01*
X122155501Y-82625501D01*
X122152821Y-82629512D01*
X121997392Y-82862128D01*
X121997391Y-82862131D01*
X121994710Y-82866143D01*
X121938247Y-83150000D01*
X111189663Y-83150000D01*
X111093107Y-82916893D01*
X111016762Y-82885270D01*
X110990243Y-82858752D01*
X110990243Y-82821249D01*
X111016761Y-82794730D01*
X111035513Y-82791000D01*
X119432261Y-82791000D01*
X119451013Y-82794730D01*
X119480000Y-82806737D01*
X119517992Y-82791000D01*
X119626185Y-82746185D01*
X119638193Y-82717196D01*
X119648815Y-82701300D01*
X122476614Y-79873501D01*
X122511262Y-79859149D01*
X122520822Y-79860091D01*
X122605984Y-79877031D01*
X122605992Y-79877032D01*
X122608346Y-79877500D01*
X123551654Y-79877500D01*
X123763857Y-79835290D01*
X123767869Y-79832609D01*
X123767872Y-79832608D01*
X124000488Y-79677179D01*
X124004499Y-79674499D01*
X124034897Y-79629005D01*
X124162608Y-79437872D01*
X124162609Y-79437869D01*
X124165290Y-79433857D01*
X124221753Y-79150000D01*
X124165290Y-78866143D01*
X124162609Y-78862131D01*
X124162608Y-78862128D01*
X124007179Y-78629512D01*
X124004499Y-78625501D01*
X123985317Y-78612684D01*
X123767872Y-78467392D01*
X123767869Y-78467391D01*
X123763857Y-78464710D01*
X123551654Y-78422500D01*
X122608346Y-78422500D01*
X122396143Y-78464710D01*
X122392131Y-78467391D01*
X122392128Y-78467392D01*
X122174683Y-78612684D01*
X122155501Y-78625501D01*
X122152821Y-78629512D01*
X121997392Y-78862128D01*
X121997391Y-78862131D01*
X121994710Y-78866143D01*
X121938247Y-79150000D01*
X121994710Y-79433857D01*
X121997391Y-79437869D01*
X121997392Y-79437872D01*
X122125103Y-79629005D01*
X122132419Y-79665788D01*
X122119009Y-79690876D01*
X119415237Y-82394648D01*
X119380589Y-82409000D01*
X96928355Y-82409000D01*
X96893707Y-82394648D01*
X96892177Y-82392359D01*
X96886277Y-82386459D01*
X96882547Y-82377453D01*
X96610000Y-82264560D01*
X96337453Y-82377453D01*
X96224560Y-82650000D01*
X83721298Y-82650000D01*
X83725440Y-82640000D01*
X83612547Y-82367453D01*
X83340000Y-82254560D01*
X83067453Y-82367453D01*
X82954560Y-82640000D01*
X77741298Y-82640000D01*
X77632547Y-82377453D01*
X77360000Y-82264560D01*
X77087453Y-82377453D01*
X76974560Y-82650000D01*
X76429876Y-82650000D01*
X76366276Y-82496456D01*
X76362547Y-82487453D01*
X76090000Y-82374560D01*
X75817453Y-82487453D01*
X75704560Y-82760000D01*
X69850000Y-82760000D01*
X69850000Y-81320000D01*
X90314560Y-81320000D01*
X90427453Y-81592547D01*
X90700000Y-81705440D01*
X90972547Y-81592547D01*
X91085440Y-81320000D01*
X91077156Y-81300000D01*
X92354560Y-81300000D01*
X92467453Y-81572547D01*
X92740000Y-81685440D01*
X92801422Y-81659998D01*
X97964560Y-81659998D01*
X98077453Y-81932545D01*
X98350000Y-82045438D01*
X98622547Y-81932545D01*
X98735440Y-81659998D01*
X98622547Y-81387451D01*
X98350000Y-81274558D01*
X98077453Y-81387451D01*
X97964560Y-81659998D01*
X92801422Y-81659998D01*
X93012547Y-81572547D01*
X93125440Y-81300000D01*
X93079876Y-81190000D01*
X111924560Y-81190000D01*
X112037453Y-81462547D01*
X112310000Y-81575440D01*
X112582547Y-81462547D01*
X112695440Y-81190000D01*
X113014560Y-81190000D01*
X113127453Y-81462547D01*
X113400000Y-81575440D01*
X113672547Y-81462547D01*
X113785440Y-81190000D01*
X113672547Y-80917453D01*
X113400000Y-80804560D01*
X113127453Y-80917453D01*
X113014560Y-81190000D01*
X112695440Y-81190000D01*
X112582547Y-80917453D01*
X112310000Y-80804560D01*
X112037453Y-80917453D01*
X111924560Y-81190000D01*
X93079876Y-81190000D01*
X93012547Y-81027453D01*
X92740000Y-80914560D01*
X92467453Y-81027453D01*
X92354560Y-81300000D01*
X91077156Y-81300000D01*
X90972547Y-81047453D01*
X90700000Y-80934560D01*
X90427453Y-81047453D01*
X90314560Y-81320000D01*
X69850000Y-81320000D01*
X69850000Y-79654400D01*
X72819453Y-79654400D01*
X72924293Y-79907507D01*
X73177400Y-80012347D01*
X73186405Y-80008617D01*
X73421502Y-79911237D01*
X73430507Y-79907507D01*
X73535347Y-79654400D01*
X73430507Y-79401293D01*
X73177400Y-79296453D01*
X72924293Y-79401293D01*
X72819453Y-79654400D01*
X69850000Y-79654400D01*
X69850000Y-79029638D01*
X69853730Y-79010887D01*
X69854509Y-79009006D01*
X69854509Y-79009005D01*
X69858239Y-79000001D01*
X69854509Y-78990996D01*
X69854509Y-78981250D01*
X69854933Y-78981250D01*
X69853701Y-78971891D01*
X69884726Y-78736235D01*
X73946421Y-78736235D01*
X74059314Y-79008782D01*
X74331861Y-79121675D01*
X74604408Y-79008782D01*
X74717301Y-78736235D01*
X74604408Y-78463688D01*
X74331861Y-78350795D01*
X74059314Y-78463688D01*
X73946421Y-78736235D01*
X69884726Y-78736235D01*
X69965010Y-78126411D01*
X69968321Y-78114055D01*
X69968322Y-78114054D01*
X70224577Y-77495400D01*
X70685853Y-77495400D01*
X70790693Y-77748507D01*
X71043800Y-77853347D01*
X71052805Y-77849617D01*
X71287902Y-77752237D01*
X71296907Y-77748507D01*
X71315425Y-77703800D01*
X74991560Y-77703800D01*
X75104453Y-77976347D01*
X75377000Y-78089240D01*
X75649547Y-77976347D01*
X75651491Y-77971654D01*
X85262500Y-77971654D01*
X85304710Y-78183857D01*
X85307391Y-78187869D01*
X85307392Y-78187872D01*
X85416254Y-78350795D01*
X85465501Y-78424499D01*
X85469512Y-78427179D01*
X85702128Y-78582608D01*
X85702131Y-78582609D01*
X85706143Y-78585290D01*
X85990000Y-78641753D01*
X86273857Y-78585290D01*
X86277869Y-78582609D01*
X86277872Y-78582608D01*
X86510488Y-78427179D01*
X86514499Y-78424499D01*
X86563746Y-78350795D01*
X86672608Y-78187872D01*
X86672609Y-78187869D01*
X86675290Y-78183857D01*
X86717500Y-77971654D01*
X89262500Y-77971654D01*
X89304710Y-78183857D01*
X89307391Y-78187869D01*
X89307392Y-78187872D01*
X89416254Y-78350795D01*
X89465501Y-78424499D01*
X89469512Y-78427179D01*
X89702128Y-78582608D01*
X89702131Y-78582609D01*
X89706143Y-78585290D01*
X89990000Y-78641753D01*
X90273857Y-78585290D01*
X90277869Y-78582609D01*
X90277872Y-78582608D01*
X90510488Y-78427179D01*
X90514499Y-78424499D01*
X90563746Y-78350795D01*
X90672608Y-78187872D01*
X90672609Y-78187869D01*
X90675290Y-78183857D01*
X90717500Y-77971654D01*
X102442500Y-77971654D01*
X102484710Y-78183857D01*
X102487391Y-78187869D01*
X102487392Y-78187872D01*
X102596254Y-78350795D01*
X102645501Y-78424499D01*
X102649512Y-78427179D01*
X102882128Y-78582608D01*
X102882131Y-78582609D01*
X102886143Y-78585290D01*
X103170000Y-78641753D01*
X103453857Y-78585290D01*
X103457869Y-78582609D01*
X103457872Y-78582608D01*
X103690488Y-78427179D01*
X103694499Y-78424499D01*
X103743746Y-78350795D01*
X103852608Y-78187872D01*
X103852609Y-78187869D01*
X103855290Y-78183857D01*
X103897500Y-77971654D01*
X106442500Y-77971654D01*
X106484710Y-78183857D01*
X106487391Y-78187869D01*
X106487392Y-78187872D01*
X106596254Y-78350795D01*
X106645501Y-78424499D01*
X106649512Y-78427179D01*
X106882128Y-78582608D01*
X106882131Y-78582609D01*
X106886143Y-78585290D01*
X107170000Y-78641753D01*
X107453857Y-78585290D01*
X107457869Y-78582609D01*
X107457872Y-78582608D01*
X107690488Y-78427179D01*
X107694499Y-78424499D01*
X107743746Y-78350795D01*
X107852608Y-78187872D01*
X107852609Y-78187869D01*
X107855290Y-78183857D01*
X107897500Y-77971654D01*
X107897500Y-77028346D01*
X107888863Y-76984924D01*
X120011804Y-76984924D01*
X120012746Y-76989660D01*
X120021866Y-77035510D01*
X120093490Y-77395589D01*
X120326114Y-77743734D01*
X120674259Y-77976358D01*
X121084924Y-78058044D01*
X121495589Y-77976358D01*
X121843734Y-77743734D01*
X122076358Y-77395589D01*
X122147982Y-77035510D01*
X122157102Y-76989660D01*
X122158044Y-76984924D01*
X122076358Y-76574259D01*
X121843734Y-76226114D01*
X121592673Y-76058360D01*
X121499603Y-75996172D01*
X121495589Y-75993490D01*
X121084924Y-75911804D01*
X120674259Y-75993490D01*
X120670245Y-75996172D01*
X120577175Y-76058360D01*
X120326114Y-76226114D01*
X120093490Y-76574259D01*
X120011804Y-76984924D01*
X107888863Y-76984924D01*
X107855290Y-76816143D01*
X107852609Y-76812131D01*
X107852608Y-76812128D01*
X107697179Y-76579512D01*
X107694499Y-76575501D01*
X107675317Y-76562684D01*
X107457872Y-76417392D01*
X107457869Y-76417391D01*
X107453857Y-76414710D01*
X107170000Y-76358247D01*
X106886143Y-76414710D01*
X106882131Y-76417391D01*
X106882128Y-76417392D01*
X106664683Y-76562684D01*
X106645501Y-76575501D01*
X106642821Y-76579512D01*
X106487392Y-76812128D01*
X106487391Y-76812131D01*
X106484710Y-76816143D01*
X106442500Y-77028346D01*
X106442500Y-77971654D01*
X103897500Y-77971654D01*
X103897500Y-77028346D01*
X103855290Y-76816143D01*
X103852609Y-76812131D01*
X103852608Y-76812128D01*
X103697179Y-76579512D01*
X103694499Y-76575501D01*
X103675317Y-76562684D01*
X103457872Y-76417392D01*
X103457869Y-76417391D01*
X103453857Y-76414710D01*
X103170000Y-76358247D01*
X102886143Y-76414710D01*
X102882131Y-76417391D01*
X102882128Y-76417392D01*
X102664683Y-76562684D01*
X102645501Y-76575501D01*
X102642821Y-76579512D01*
X102487392Y-76812128D01*
X102487391Y-76812131D01*
X102484710Y-76816143D01*
X102442500Y-77028346D01*
X102442500Y-77971654D01*
X90717500Y-77971654D01*
X90717500Y-77028346D01*
X90675290Y-76816143D01*
X90672609Y-76812131D01*
X90672608Y-76812128D01*
X90517179Y-76579512D01*
X90514499Y-76575501D01*
X90495317Y-76562684D01*
X90277872Y-76417392D01*
X90277869Y-76417391D01*
X90273857Y-76414710D01*
X89990000Y-76358247D01*
X89706143Y-76414710D01*
X89702131Y-76417391D01*
X89702128Y-76417392D01*
X89484683Y-76562684D01*
X89465501Y-76575501D01*
X89462821Y-76579512D01*
X89307392Y-76812128D01*
X89307391Y-76812131D01*
X89304710Y-76816143D01*
X89262500Y-77028346D01*
X89262500Y-77971654D01*
X86717500Y-77971654D01*
X86717500Y-77028346D01*
X86675290Y-76816143D01*
X86672609Y-76812131D01*
X86672608Y-76812128D01*
X86517179Y-76579512D01*
X86514499Y-76575501D01*
X86495317Y-76562684D01*
X86277872Y-76417392D01*
X86277869Y-76417391D01*
X86273857Y-76414710D01*
X85990000Y-76358247D01*
X85706143Y-76414710D01*
X85702131Y-76417391D01*
X85702128Y-76417392D01*
X85484683Y-76562684D01*
X85465501Y-76575501D01*
X85462821Y-76579512D01*
X85307392Y-76812128D01*
X85307391Y-76812131D01*
X85304710Y-76816143D01*
X85262500Y-77028346D01*
X85262500Y-77971654D01*
X75651491Y-77971654D01*
X75762440Y-77703800D01*
X75649547Y-77431253D01*
X75377000Y-77318360D01*
X75104453Y-77431253D01*
X74991560Y-77703800D01*
X71315425Y-77703800D01*
X71401747Y-77495400D01*
X71296907Y-77242293D01*
X71043800Y-77137453D01*
X70790693Y-77242293D01*
X70685853Y-77495400D01*
X70224577Y-77495400D01*
X70303046Y-77305958D01*
X70309442Y-77294882D01*
X70828576Y-76618332D01*
X70836066Y-76612584D01*
X70835766Y-76612284D01*
X70842657Y-76605393D01*
X70851663Y-76601663D01*
X70856172Y-76590778D01*
X70866794Y-76574881D01*
X70997875Y-76443800D01*
X71661560Y-76443800D01*
X71774453Y-76716347D01*
X72047000Y-76829240D01*
X72319547Y-76716347D01*
X72345455Y-76653800D01*
X76031560Y-76653800D01*
X76144453Y-76926347D01*
X76417000Y-77039240D01*
X76689547Y-76926347D01*
X76802440Y-76653800D01*
X76689547Y-76381253D01*
X76417000Y-76268360D01*
X76144453Y-76381253D01*
X76031560Y-76653800D01*
X72345455Y-76653800D01*
X72432440Y-76443800D01*
X72319547Y-76171253D01*
X72047000Y-76058360D01*
X71774453Y-76171253D01*
X71661560Y-76443800D01*
X70997875Y-76443800D01*
X72027875Y-75413800D01*
X72691560Y-75413800D01*
X72804453Y-75686347D01*
X73077000Y-75799240D01*
X73349547Y-75686347D01*
X73367171Y-75643800D01*
X77141560Y-75643800D01*
X77254453Y-75916347D01*
X77527000Y-76029240D01*
X77799547Y-75916347D01*
X77912440Y-75643800D01*
X77799547Y-75371253D01*
X77527000Y-75258360D01*
X77254453Y-75371253D01*
X77141560Y-75643800D01*
X73367171Y-75643800D01*
X73462440Y-75413800D01*
X73349547Y-75141253D01*
X73077000Y-75028360D01*
X72804453Y-75141253D01*
X72691560Y-75413800D01*
X72027875Y-75413800D01*
X73067875Y-74373800D01*
X73731560Y-74373800D01*
X73844453Y-74646347D01*
X74117000Y-74759240D01*
X74389547Y-74646347D01*
X74502440Y-74373800D01*
X74389547Y-74101253D01*
X74117000Y-73988360D01*
X73844453Y-74101253D01*
X73731560Y-74373800D01*
X73067875Y-74373800D01*
X73470021Y-73971654D01*
X85267499Y-73971654D01*
X85309709Y-74183857D01*
X85312390Y-74187869D01*
X85312391Y-74187872D01*
X85356390Y-74253721D01*
X85470500Y-74424499D01*
X85474511Y-74427179D01*
X85707127Y-74582608D01*
X85707130Y-74582609D01*
X85711142Y-74585290D01*
X85941690Y-74631149D01*
X85972834Y-74637344D01*
X85994999Y-74641753D01*
X86017165Y-74637344D01*
X86048308Y-74631149D01*
X86278856Y-74585290D01*
X86282868Y-74582609D01*
X86282871Y-74582608D01*
X86515487Y-74427179D01*
X86519498Y-74424499D01*
X86633608Y-74253721D01*
X86677607Y-74187872D01*
X86677608Y-74187869D01*
X86680289Y-74183857D01*
X86722499Y-73971654D01*
X89267499Y-73971654D01*
X89309709Y-74183857D01*
X89312390Y-74187869D01*
X89312391Y-74187872D01*
X89356390Y-74253721D01*
X89470500Y-74424499D01*
X89474511Y-74427179D01*
X89707127Y-74582608D01*
X89707130Y-74582609D01*
X89711142Y-74585290D01*
X89941690Y-74631149D01*
X89972834Y-74637344D01*
X89994999Y-74641753D01*
X90017165Y-74637344D01*
X90048308Y-74631149D01*
X90278856Y-74585290D01*
X90282868Y-74582609D01*
X90282871Y-74582608D01*
X90515487Y-74427179D01*
X90519498Y-74424499D01*
X90633608Y-74253721D01*
X90677607Y-74187872D01*
X90677608Y-74187869D01*
X90680289Y-74183857D01*
X90722499Y-73971654D01*
X100442500Y-73971654D01*
X100484710Y-74183857D01*
X100487391Y-74187869D01*
X100487392Y-74187872D01*
X100531391Y-74253721D01*
X100645501Y-74424499D01*
X100649512Y-74427179D01*
X100882128Y-74582608D01*
X100882131Y-74582609D01*
X100886143Y-74585290D01*
X101116691Y-74631149D01*
X101147835Y-74637344D01*
X101170000Y-74641753D01*
X101192166Y-74637344D01*
X101223309Y-74631149D01*
X101453857Y-74585290D01*
X101457869Y-74582609D01*
X101457872Y-74582608D01*
X101690488Y-74427179D01*
X101694499Y-74424499D01*
X101808609Y-74253721D01*
X101852608Y-74187872D01*
X101852609Y-74187869D01*
X101855290Y-74183857D01*
X101897500Y-73971654D01*
X102442500Y-73971654D01*
X102484710Y-74183857D01*
X102487391Y-74187869D01*
X102487392Y-74187872D01*
X102531391Y-74253721D01*
X102645501Y-74424499D01*
X102649512Y-74427179D01*
X102882128Y-74582608D01*
X102882131Y-74582609D01*
X102886143Y-74585290D01*
X103116691Y-74631149D01*
X103147835Y-74637344D01*
X103170000Y-74641753D01*
X103192166Y-74637344D01*
X103223309Y-74631149D01*
X103453857Y-74585290D01*
X103457869Y-74582609D01*
X103457872Y-74582608D01*
X103690488Y-74427179D01*
X103694499Y-74424499D01*
X103808609Y-74253721D01*
X103852608Y-74187872D01*
X103852609Y-74187869D01*
X103855290Y-74183857D01*
X103897500Y-73971654D01*
X106442500Y-73971654D01*
X106484710Y-74183857D01*
X106487391Y-74187869D01*
X106487392Y-74187872D01*
X106531391Y-74253721D01*
X106645501Y-74424499D01*
X106649512Y-74427179D01*
X106882128Y-74582608D01*
X106882131Y-74582609D01*
X106886143Y-74585290D01*
X107116691Y-74631149D01*
X107147835Y-74637344D01*
X107170000Y-74641753D01*
X107192166Y-74637344D01*
X107223309Y-74631149D01*
X107453857Y-74585290D01*
X107457869Y-74582609D01*
X107457872Y-74582608D01*
X107690488Y-74427179D01*
X107694499Y-74424499D01*
X107808609Y-74253721D01*
X107852608Y-74187872D01*
X107852609Y-74187869D01*
X107855290Y-74183857D01*
X107888863Y-74015076D01*
X116775585Y-74015076D01*
X116804884Y-74162370D01*
X116807563Y-74166379D01*
X116807564Y-74166382D01*
X116816076Y-74179120D01*
X116867257Y-74255716D01*
X117874436Y-75262894D01*
X117967782Y-75325268D01*
X117972516Y-75326210D01*
X117972517Y-75326210D01*
X118110340Y-75353625D01*
X118115076Y-75354567D01*
X118262370Y-75325268D01*
X118266379Y-75322589D01*
X118266382Y-75322588D01*
X118311931Y-75292152D01*
X118355716Y-75262895D01*
X119362894Y-74255716D01*
X119425268Y-74162370D01*
X119454567Y-74015076D01*
X119425268Y-73867782D01*
X119422589Y-73863773D01*
X119422588Y-73863770D01*
X119392152Y-73818221D01*
X119362895Y-73774436D01*
X118355716Y-72767258D01*
X118262370Y-72704884D01*
X118257636Y-72703942D01*
X118257635Y-72703942D01*
X118119812Y-72676527D01*
X118115076Y-72675585D01*
X117967782Y-72704884D01*
X117963773Y-72707563D01*
X117963770Y-72707564D01*
X117918221Y-72738000D01*
X117874436Y-72767257D01*
X116867258Y-73774436D01*
X116804884Y-73867782D01*
X116775585Y-74015076D01*
X107888863Y-74015076D01*
X107897500Y-73971654D01*
X107897500Y-73028346D01*
X107855290Y-72816143D01*
X107852609Y-72812131D01*
X107852608Y-72812128D01*
X107697179Y-72579512D01*
X107694499Y-72575501D01*
X107658452Y-72551415D01*
X107457872Y-72417392D01*
X107457869Y-72417391D01*
X107453857Y-72414710D01*
X107170000Y-72358247D01*
X106886143Y-72414710D01*
X106882131Y-72417391D01*
X106882128Y-72417392D01*
X106681548Y-72551415D01*
X106645501Y-72575501D01*
X106642821Y-72579512D01*
X106487392Y-72812128D01*
X106487391Y-72812131D01*
X106484710Y-72816143D01*
X106442500Y-73028346D01*
X106442500Y-73971654D01*
X103897500Y-73971654D01*
X103897500Y-73028346D01*
X103855290Y-72816143D01*
X103852609Y-72812131D01*
X103852608Y-72812128D01*
X103697179Y-72579512D01*
X103694499Y-72575501D01*
X103658452Y-72551415D01*
X103457872Y-72417392D01*
X103457869Y-72417391D01*
X103453857Y-72414710D01*
X103170000Y-72358247D01*
X102886143Y-72414710D01*
X102882131Y-72417391D01*
X102882128Y-72417392D01*
X102681548Y-72551415D01*
X102645501Y-72575501D01*
X102642821Y-72579512D01*
X102487392Y-72812128D01*
X102487391Y-72812131D01*
X102484710Y-72816143D01*
X102442500Y-73028346D01*
X102442500Y-73971654D01*
X101897500Y-73971654D01*
X101897500Y-73028346D01*
X101855290Y-72816143D01*
X101852609Y-72812131D01*
X101852608Y-72812128D01*
X101697179Y-72579512D01*
X101694499Y-72575501D01*
X101658452Y-72551415D01*
X101457872Y-72417392D01*
X101457869Y-72417391D01*
X101453857Y-72414710D01*
X101170000Y-72358247D01*
X100886143Y-72414710D01*
X100882131Y-72417391D01*
X100882128Y-72417392D01*
X100681548Y-72551415D01*
X100645501Y-72575501D01*
X100642821Y-72579512D01*
X100487392Y-72812128D01*
X100487391Y-72812131D01*
X100484710Y-72816143D01*
X100442500Y-73028346D01*
X100442500Y-73971654D01*
X90722499Y-73971654D01*
X90722499Y-73028346D01*
X90680289Y-72816143D01*
X90677608Y-72812131D01*
X90677607Y-72812128D01*
X90522178Y-72579512D01*
X90519498Y-72575501D01*
X90483451Y-72551415D01*
X90282871Y-72417392D01*
X90282868Y-72417391D01*
X90278856Y-72414710D01*
X89994999Y-72358247D01*
X89711142Y-72414710D01*
X89707130Y-72417391D01*
X89707127Y-72417392D01*
X89506547Y-72551415D01*
X89470500Y-72575501D01*
X89467820Y-72579512D01*
X89312391Y-72812128D01*
X89312390Y-72812131D01*
X89309709Y-72816143D01*
X89267499Y-73028346D01*
X89267499Y-73971654D01*
X86722499Y-73971654D01*
X86722499Y-73028346D01*
X86680289Y-72816143D01*
X86677608Y-72812131D01*
X86677607Y-72812128D01*
X86522178Y-72579512D01*
X86519498Y-72575501D01*
X86483451Y-72551415D01*
X86282871Y-72417392D01*
X86282868Y-72417391D01*
X86278856Y-72414710D01*
X85994999Y-72358247D01*
X85711142Y-72414710D01*
X85707130Y-72417391D01*
X85707127Y-72417392D01*
X85506547Y-72551415D01*
X85470500Y-72575501D01*
X85467820Y-72579512D01*
X85312391Y-72812128D01*
X85312390Y-72812131D01*
X85309709Y-72816143D01*
X85267499Y-73028346D01*
X85267499Y-73971654D01*
X73470021Y-73971654D01*
X74097874Y-73343800D01*
X74761560Y-73343800D01*
X74874453Y-73616347D01*
X75147000Y-73729240D01*
X75419547Y-73616347D01*
X75532440Y-73343800D01*
X75419547Y-73071253D01*
X75147000Y-72958360D01*
X74874453Y-73071253D01*
X74761560Y-73343800D01*
X74097874Y-73343800D01*
X74324881Y-73116793D01*
X74340778Y-73106171D01*
X74342659Y-73105392D01*
X74351663Y-73101662D01*
X74355393Y-73092658D01*
X74362285Y-73085766D01*
X74362584Y-73086065D01*
X74368332Y-73078576D01*
X75044882Y-72559440D01*
X75055958Y-72553045D01*
X75864055Y-72218321D01*
X75876407Y-72215010D01*
X76165774Y-72176915D01*
X76721890Y-72103701D01*
X76731249Y-72104933D01*
X76731249Y-72104509D01*
X76740995Y-72104509D01*
X76750000Y-72108239D01*
X76759005Y-72104509D01*
X76759136Y-72104455D01*
X76760886Y-72103730D01*
X76779637Y-72100000D01*
X117550583Y-72100000D01*
X117569205Y-72103677D01*
G37*
%TD.AperFunction*%
%TA.AperFunction,Conductor*%
G36*
X104584930Y-101051828D02*
G01*
X104584931Y-101089330D01*
X104579020Y-101103600D01*
X104568399Y-101119495D01*
X103667687Y-102020206D01*
X103633039Y-102034558D01*
X99794498Y-102034558D01*
X99759850Y-102020206D01*
X99745498Y-101985558D01*
X99749228Y-101966806D01*
X99811710Y-101815962D01*
X99815440Y-101806957D01*
X99702547Y-101534410D01*
X99609197Y-101495743D01*
X99582679Y-101469224D01*
X99582679Y-101431721D01*
X99609198Y-101405203D01*
X99627949Y-101401473D01*
X103843778Y-101401473D01*
X103862530Y-101405203D01*
X103891517Y-101417210D01*
X103929509Y-101401473D01*
X104037702Y-101356658D01*
X104049710Y-101327669D01*
X104060332Y-101311773D01*
X104315852Y-101056253D01*
X104350500Y-101041901D01*
X104369249Y-101045630D01*
X104420550Y-101066880D01*
X104520909Y-101025310D01*
X104558411Y-101025310D01*
X104584930Y-101051828D01*
G37*
%TD.AperFunction*%
%TD*%
M02*
